<?xml version="1.0" encoding="utf-8"?>
<!-- Generator: Adobe Illustrator 26.0.2, SVG Export Plug-In . SVG Version: 6.00 Build 0)  -->
<svg version="1.1" id="Layer_1" xmlns="http://www.w3.org/2000/svg" xmlns:xlink="http://www.w3.org/1999/xlink" x="0px" y="0px"
	 viewBox="0 0 1920 939.4" style="enable-background:new 0 0 1920 939.4;" xml:space="preserve">
<style type="text/css">
	.st0{fill:#EAEDED;}
	.st1{fill:#8DC1C4;}
	.st2{fill:none;stroke:#8DC1C4;stroke-width:2.69;stroke-miterlimit:3.86;}
	.st3{fill:none;stroke:#8DC1C4;stroke-width:2.02;stroke-miterlimit:3.86;}
	.st4{fill:#DFEEF0;}
	.st5{fill:none;stroke:#8DC1C4;stroke-width:1.41;stroke-miterlimit:3.86;}
	.st6{fill:none;stroke:#8DC1C4;stroke-width:1.49;stroke-miterlimit:3.86;}
	.st7{fill:none;stroke:#368093;stroke-width:3.99;stroke-miterlimit:3.86;}
	.st8{fill:none;stroke:#368093;stroke-width:3;stroke-miterlimit:3.86;}
	.st9{fill:#6C7778;}
	.st10{fill-rule:evenodd;clip-rule:evenodd;fill:#6C7778;}
	.st11{fill:#8A9496;}
	.st12{fill-rule:evenodd;clip-rule:evenodd;fill:#BFC7C7;}
	.st13{fill:#383E3E;}
	.st14{fill:#E0C8DB;}
	.st15{fill-rule:evenodd;clip-rule:evenodd;fill:#383E3E;}
	.st16{fill-rule:evenodd;clip-rule:evenodd;fill:#008296;}
	.st17{fill-rule:evenodd;clip-rule:evenodd;fill:#235A66;}
	.st18{fill:#008296;}
	.st19{fill:none;stroke:#D85211;stroke-width:1.53;stroke-miterlimit:3.86;}
	.st20{fill:#F5F9FA;}
	.st21{fill:#D85211;}
	.st22{fill:#F3DB97;}
	.st23{fill:#FFA724;}
	.st24{fill:#262728;}
	.st25{fill:#EB9310;}
	.st26{fill-rule:evenodd;clip-rule:evenodd;fill:#47A2B2;}
	.st27{fill-rule:evenodd;clip-rule:evenodd;fill:#368093;}
	.st28{fill-rule:evenodd;clip-rule:evenodd;fill:#373E3E;}
	.st29{fill:#6E7778;}
	.st30{fill:#FFFFFF;}
	.st31{fill:none;stroke:#D85211;stroke-width:1.14;stroke-miterlimit:3.86;}
	.st32{fill:none;stroke:#617275;stroke-width:0.63;stroke-miterlimit:3.86;}
	.st33{fill:none;stroke:#617275;stroke-width:0.66;stroke-miterlimit:3.86;}
	.st34{fill:none;}
	.st35{fill-rule:evenodd;clip-rule:evenodd;fill:#CC7D36;}
	.st36{fill-rule:evenodd;clip-rule:evenodd;fill:#FFA724;}
	.st37{fill-rule:evenodd;clip-rule:evenodd;fill:#EB9310;}
	.st38{fill-rule:evenodd;clip-rule:evenodd;fill:#6E7778;}
	.st39{fill-rule:evenodd;clip-rule:evenodd;fill:#B25B20;}
	.st40{fill:#CC7D36;}
	.st41{fill-rule:evenodd;clip-rule:evenodd;fill:#ACB7B8;}
	.st42{fill:none;stroke:#6E7778;stroke-width:0.6;stroke-linecap:round;stroke-miterlimit:3.86;}
	.st43{fill:#CCB4C7;}
	.st44{fill:#013036;}
	.st45{fill:#00464F;}
	.st46{fill-rule:evenodd;clip-rule:evenodd;fill:#00464F;}
	.st47{fill-rule:evenodd;clip-rule:evenodd;fill:#013036;}
	.st48{fill:none;stroke:#013036;stroke-width:5;stroke-linecap:round;stroke-miterlimit:3.86;}
	.st49{fill:none;stroke:#013036;stroke-width:3.12;stroke-linecap:round;stroke-miterlimit:3.86;}
	.st50{fill:none;stroke:#013036;stroke-width:7.28;stroke-linecap:round;stroke-miterlimit:3.86;}
	.st51{fill:#6E9190;}
	.st52{fill:#92BCC9;}
	.st53{fill:#ACB7B8;}
	.st54{fill-rule:evenodd;clip-rule:evenodd;fill:#5A6364;}
	.st55{fill-rule:evenodd;clip-rule:evenodd;fill:#F5F9FA;}
	.st56{fill:none;stroke:#6E7778;stroke-width:10.85;stroke-miterlimit:3.86;}
	.st57{fill-rule:evenodd;clip-rule:evenodd;fill:#FFFFFF;}
	.st58{fill:none;stroke:#6E7778;stroke-width:2.83;stroke-miterlimit:3.86;}
	.st59{fill:none;stroke:#6E7778;stroke-width:4.54;stroke-miterlimit:3.86;}
	.st60{fill:none;stroke:#6E7778;stroke-width:2.41;stroke-miterlimit:3.86;}
	.st61{fill:none;stroke:#6E7778;stroke-width:2.27;stroke-miterlimit:3.86;}
	.st62{fill:none;stroke:#6E7778;stroke-width:3.62;stroke-miterlimit:3.86;}
	.st63{fill:none;stroke:#6C7778;stroke-width:6.98;stroke-miterlimit:3.86;}
	.st64{fill-rule:evenodd;clip-rule:evenodd;fill:#F5C09E;}
	.st65{fill:#F5C09E;}
	.st66{fill:none;stroke:#01282B;stroke-width:0.78;stroke-linecap:round;stroke-miterlimit:10;}
	.st67{fill:#FAFAFA;}
	.st68{fill:none;stroke:#92B3B7;stroke-width:0.78;stroke-linecap:round;stroke-linejoin:round;}
	.st69{fill:#92B3B7;}
	.st70{fill:#BA3407;}
	.st71{fill:#D3D4D4;}
	.st72{fill:none;stroke:#D3D4D4;stroke-width:4.65;stroke-linecap:round;stroke-linejoin:round;}
	.st73{fill:none;stroke:#00464F;stroke-width:1.5;stroke-linecap:round;stroke-miterlimit:3.86;}
	.st74{fill:#F2AA91;}
	.st75{fill-rule:evenodd;clip-rule:evenodd;fill:#BA3407;}
	.st76{fill-rule:evenodd;clip-rule:evenodd;fill:#D85211;}
	.st77{fill:none;stroke:#00464F;stroke-width:2;stroke-linecap:round;stroke-miterlimit:3.86;}
	.st78{fill-rule:evenodd;clip-rule:evenodd;fill:#F2AA91;}
	.st79{fill-rule:evenodd;clip-rule:evenodd;fill:#9AC6CB;}
</style>
<g id="Layer_2_00000029749096985890616970000009389319711268667525_">
	<g id="layer_1-2">
		<g id="Layer_4">
			<ellipse class="st0" cx="1016.7" cy="924.4" rx="817.7" ry="15"/>
			<path class="st0" d="M1699.7,33.8c-134.2-41.2-332.6-49.7-504.9,2.4s-403,142.4-794.2,154.4C185.6,197.2,12.4,255.4,1,365.3
				c-9.7,93.2,55.2,178.2,159.5,225.6c379.5,172.5,1219.2,99.6,1508.4-26.1C1923.4,454.2,2062.4,145.2,1699.7,33.8z"/>
			<polygon class="st1" points="1027.9,640.9 1668.9,640.9 1668.9,660.3 1027.9,660.3 1027.9,640.9 			"/>
			<path class="st2" d="M1063.3,652.7l-6.4,173.5c0.1,2.5-2,4.6-4.5,4.6c0,0,0,0,0,0h-1c-2.5,0-4.5-2.1-4.5-4.7l-6.4-173.5"/>
			<path class="st3" d="M1090.1,662.1l-6.1,166c0,2.4-1.9,4.4-4.3,4.4h-0.9c-2.4,0-4.3-2-4.3-4.4l-6.1-166"/>
			<polygon class="st1" points="1090.1,477.3 1280.4,477.3 1280.4,613.7 1090.1,613.7 1090.1,477.3 			"/>
			<polygon class="st1" points="1161.7,590.4 1207,590.4 1207,648.2 1161.7,648.2 1161.7,590.4 			"/>
			<polygon class="st1" points="1150.8,634.9 1283.8,634.9 1283.8,644.8 1150.8,644.8 1150.8,634.9 			"/>
			<polygon class="st4" points="1110.4,486.4 1269.2,486.4 1269.2,603.4 1110.4,603.4 1110.4,486.4 			"/>
			<polygon class="st1" points="1124.3,578.4 1138,578.4 1138,590.7 1124.3,590.7 1124.3,578.4 			"/>
			<polygon class="st1" points="1153.8,560.1 1167,560.1 1167,590.5 1153.8,590.5 1153.8,560.1 			"/>
			<polygon class="st1" points="1182.4,532.3 1195.9,532.3 1195.9,590.2 1182.4,590.2 1182.4,532.3 			"/>
			<polygon class="st1" points="1211.2,546.1 1224.8,546.1 1224.8,590 1211.2,590 1211.2,546.1 			"/>
			<polygon class="st1" points="1240.2,531.8 1253.7,531.8 1253.7,589.7 1240.2,589.7 1240.2,531.8 			"/>
			<line class="st5" x1="1130" y1="504.8" x2="1155.4" y2="504.8"/>
			<line class="st5" x1="1130" y1="509.9" x2="1152.3" y2="509.9"/>
			<line class="st5" x1="1130" y1="514.9" x2="1141.8" y2="514.9"/>
			<polygon class="st6" points="1124.8,499.1 1161.1,499.1 1161.1,520.3 1124.8,520.3 1124.8,499.1 			"/>
			<path class="st7" d="M1026.9,655.9l-9.5,256.9c0.1,3.7-2.9,6.8-6.6,6.9c0,0,0,0,0,0h-1.5c-3.7-0.1-6.7-3.2-6.6-6.9c0,0,0,0,0,0
				l-9.5-256.9"/>
			<path class="st8" d="M1066.5,658.6l-9.1,245.8c0.1,3.6-2.8,6.5-6.3,6.6h-1.4c-3.6-0.1-6.4-3-6.3-6.6l-9.1-245.8"/>
			<path class="st7" d="M1688.9,656l9.5,256.9c-0.1,3.7,2.9,6.8,6.6,6.9h1.5c3.7-0.1,6.7-3.2,6.6-6.9l9.5-256.9"/>
			<path class="st8" d="M1649.2,658.6l9.1,245.8c-0.1,3.6,2.8,6.5,6.3,6.6c0,0,0,0,0,0h1.4c3.6-0.1,6.4-3,6.3-6.6c0,0,0,0,0,0
				l9.1-245.8"/>
			<rect x="960.2" y="645.5" class="st9" width="779.1" height="18.1"/>
			<path class="st10" d="M977.8,656.9c6.1-1.9,12.4-3.1,18.8-3.4h710.7c5.9,0.2,11.8,1.4,17.4,3.4l10.7,4.1c5.2,2,5.5,3.6,0.5,3.6
				H963.5c-5,0-4-1.6,2-3.6L977.8,656.9z"/>
			<polygon class="st11" points="964,645.6 976.5,645.6 976.5,664.6 964,664.6 964,645.6 			"/>
			<polygon class="st11" points="1722.6,645.6 1735.1,645.6 1735.1,664.6 1722.6,664.6 1722.6,645.6 			"/>
			<path class="st12" d="M977.9,638.7c6.1-1.9,12.4-3.1,18.8-3.4h710.7c5.9,0.2,11.8,1.4,17.4,3.4l10.7,4.1c5.2,2,5.5,3.6,0.5,3.6
				H963.5c-5,0-4-1.6,2-3.6L977.9,638.7z"/>
			<polygon class="st13" points="1619.2,543.8 1706,543.8 1706,641.2 1619.2,641.2 1619.2,543.8 			"/>
			<polygon class="st14" points="1598,543.8 1684.9,543.8 1684.9,641.3 1598,641.3 1598,543.8 			"/>
			<path class="st15" d="M1651,606c0-8.1,4.6-14.7,10.3-15.3c0.3,0,3.4,0,3.7,0c6.2,0,8.3,6.9,8.3,15.4s-1,15.4-7.2,15.4
				c-0.2,0-4.4,0-4.7,0C1655.6,620.8,1651,614.1,1651,606z"/>
			<path class="st16" d="M1645.4,561.8l1.2-2.9c-18.7-1.8-32.2,8.2-30.6,33.3l8.5,1.2C1623.9,571.9,1630,560.8,1645.4,561.8z"/>
			<path class="st16" d="M1640.5,561.6l0.1-2.8c15.1-1.4,32.8,5.8,30.1,34.3l-8.5,0.1C1662.8,571.9,1656,560.7,1640.5,561.6z"/>
			<path class="st17" d="M1662.2,588.6h8.7c0,1.4-0.1,2.6-0.2,3.5h-8.6C1662.2,591.6,1662.2,590.5,1662.2,588.6z"/>
			<ellipse class="st18" cx="1666.7" cy="606" rx="11.2" ry="15.4"/>
			<ellipse class="st19" cx="1669.2" cy="605.9" rx="6.6" ry="9.1"/>
			
				<ellipse transform="matrix(0.1609 -0.987 0.987 0.1609 806.0164 2140.8486)" class="st20" cx="1662.1" cy="596.4" rx="1.4" ry="1.4"/>
			<path class="st17" d="M1619,592c-1-21.6,8.3-31.5,24.8-30.3c-14.9,0.3-19.6,12.5-19.2,30L1619,592z"/>
			<ellipse class="st18" cx="1617.1" cy="606.9" rx="11.2" ry="15.4"/>
			<path class="st15" d="M1608.9,606.8c0-8.1,4.6-14.7,10.3-15.3c0.3,0,3.4,0,3.7,0c6.2,0,8.3,6.9,8.3,15.4s-1,15.4-7.2,15.4
				c-0.2,0-4.4,0-4.7,0C1613.5,621.6,1608.9,615,1608.9,606.8z"/>
			<ellipse class="st13" cx="1623.6" cy="606.8" rx="11.2" ry="15.4"/>
			<path class="st13" d="M1636.6,549.2h7.3v5h-7.3V549.2z M1604.5,549.2h23.4v5h-23.4V549.2z"/>
			<polygon class="st13" points="1643.9,632.9 1677,632.9 1677,636.3 1643.9,636.3 1643.9,632.9 			"/>
			<path class="st21" d="M1693.3,600.2V593h5v7.3L1693.3,600.2z M1693.3,632.4V609h5v23.4L1693.3,632.4z"/>
			<ellipse class="st9" cx="995.1" cy="642" rx="20" ry="2.4"/>
			<polygon class="st22" points="993.8,573.4 996.2,565.2 998.5,573.4 996.2,581.5 993.8,573.4 			"/>
			<polygon class="st23" points="994,573.1 998.7,573.1 998.7,628.5 994,628.5 994,573.1 			"/>
			<polygon class="st24" points="995.3,568.6 996.3,565 997.4,568.6 			"/>
			<polygon class="st25" points="994,573.1 995.6,573.1 995.6,628.7 994,628.7 994,573.1 			"/>
			<polygon class="st22" points="980.1,575.2 980.8,566.8 984.7,574.3 983.9,582.7 980.1,575.2 			"/>
			<polygon class="st23" points="980,574.9 984.7,574 995.2,628.5 990.6,629.4 980,574.9 			"/>
			<polygon class="st24" points="980.8,570.1 981.1,566.3 982.8,569.7 			"/>
			<polygon class="st25" points="980,574.9 981.6,574.6 992.2,629.2 990.7,629.5 980,574.9 			"/>
			<polygon class="st22" points="1000,573.6 1002.3,565.5 1004.7,573.6 1002.3,581.8 1000,573.6 			"/>
			<polygon class="st23" points="1000.2,573.3 1004.9,573.3 1004.9,628.8 1000.2,628.8 1000.2,573.3 			"/>
			<polygon class="st24" points="1001.5,568.9 1002.5,565.2 1003.6,568.9 			"/>
			<polygon class="st25" points="1000.2,573.3 1001.8,573.3 1001.8,628.9 1000.2,628.9 1000.2,573.3 			"/>
			<path class="st26" d="M982.7,590.3h23.1v51.6c-7.6,1.5-15.5,1.5-23.1,0V590.3z"/>
			<path class="st27" d="M982.7,618.8c11.5,2.1,15.5-24.2,23-25.4v22.4c-3.7,15.2-11.4,23.7-23,25.4V618.8z"/>
			<path class="st13" d="M1259.5,745.8c-32.5,0.1-41-16-37.6-43.5c26.6-4.4-10.2-39.8,59.5-15.7l158.6,4.5c11,1.1,18.8,5,24.6,17.9
				l78.3,187l-17.6,7.4c-69.7-136.5-72.8-116.1-90-156.8C1434.5,745,1339.7,749,1259.5,745.8z"/>
			<path class="st13" d="M1218.1,735.5c-32.6,0.1-39.1-28.5-42-49.8c-3.9-29.4,30.8,14.2,56.7,12.2l132.4,0.9l17.9,200
				c-6.2,2.5-11.6,2.7-18.6,2.2c-15.3-105.5-34.6-94.1-34.6-157.5C1329.9,742.6,1285.6,734.5,1218.1,735.5z"/>
			<path class="st13" d="M1526.5,898.2c-1,0.1,1.1-0.6-0.5,4.3c2.4,7.8,4.2,10.3,5.4,11.2c4.2,1.5,5.3,1.3,20,1.3s21.8-0.8,21.4-2.5
				s-2.5-3.2-6-4.5c-3-1.1-16.8-4.4-17.5-4.7c-3-1.1-6.9-2.3-9.8-8.4C1525.7,890.1,1535.2,898.4,1526.5,898.2z"/>
			<path class="st13" d="M1367,896.1c-0.7,0.1,0.8-0.6-0.4,4.8c1.6,8.9,2.9,11.9,3.7,12.8c3,1.9,3.8,1.7,14.3,2.4s15.7,0.1,15.4-1.9
				s-1.7-3.8-4.3-5.4c-2.1-1.4-12-5.7-12.5-6.1c-2.2-1.4-2.3-3.2-4.2-10.1C1369.2,886.7,1373.2,896.7,1367,896.1z"/>
			<polygon class="st28" points="1445.7,525.1 1593.4,525 1595.6,529 1561.5,631.6 1410.7,631.6 			"/>
			<polygon class="st29" points="1442.7,525 1593.4,525 1558.6,629.6 1407.8,629.6 1442.7,525 			"/>
			<polygon class="st30" points="1446.4,528.9 1587.2,528.9 1555.9,623 1415,623 1446.4,528.9 			"/>
			<path class="st15" d="M1488.5,576.5c2-6,7.2-10.8,11.7-11.3c0.2,0,2.6,0,2.8,0c4.7,0,4.6,5.1,2.4,11.3s-4.7,11.3-9.3,11.3
				c-0.2,0-3.3,0-3.5,0C1488.2,587.4,1486.4,582.5,1488.5,576.5z"/>
			<path class="st16" d="M1495.5,544l1.6-2.1c-13.7-1.3-26.4,6.1-31.5,24.5l6.1,0.9C1476.6,551.5,1484,543.3,1495.5,544z"/>
			<path class="st16" d="M1491.8,543.9l0.8-2.1c11.7-1,23.3,4.2,14,25.2l-6.4,0.1C1506.1,551.4,1503.7,543.2,1491.8,543.9z"/>
			<path class="st17" d="M1501.3,563.7h6.6c-0.4,1-0.7,1.9-1,2.6h-6.5C1500.6,566,1500.9,565.1,1501.3,563.7z"/>
			<path class="st18" d="M1491.3,576.8c2.2-6.2,7.7-11.3,12.3-11.3s6.7,5.1,4.6,11.3s-7.7,11.3-12.3,11.3S1489.2,583,1491.3,576.8z"
				/>
			<path class="st31" d="M1496.7,576.7c1.3-3.7,4.5-6.7,7.3-6.7s4,3,2.7,6.7s-4.5,6.7-7.3,6.7S1495.4,580.4,1496.7,576.7z"/>
			<path class="st20" d="M1497.6,569.7c0.2-0.6,0.8-1,1.4-1c0.4,0,0.7,0.3,0.8,0.7c0,0.1,0,0.2-0.1,0.3c-0.2,0.6-0.8,1-1.4,1
				c-0.4,0-0.8-0.3-0.8-0.7C1497.5,569.9,1497.6,569.8,1497.6,569.7z"/>
			<path class="st17" d="M1467.9,566.2c4.7-15.9,14.2-23.2,26.4-22.2c-11.4,0.2-18,9.2-22.1,22.1L1467.9,566.2z"/>
			<path class="st18" d="M1453.7,577.4c2.2-6.2,7.7-11.3,12.3-11.3s6.7,5.1,4.6,11.3s-7.7,11.3-12.3,11.3S1451.5,583.7,1453.7,577.4
				z"/>
			<path class="st15" d="M1456.5,577.1c2-6,7.2-10.8,11.7-11.3c0.2,0,2.6,0,2.8,0c4.7,0,4.6,5.1,2.4,11.3s-4.7,11.3-9.3,11.3h-3.5
				C1456.2,588,1454.4,583.1,1456.5,577.1z"/>
			<path class="st13" d="M1458.6,577.4c2.1-6.2,7.7-11.3,12.3-11.3s6.7,5.1,4.6,11.3s-7.7,11.3-12.3,11.3S1456.5,583.6,1458.6,577.4
				z"/>
			<polygon class="st29" points="1358.9,628.9 1558,628.9 1558,637.7 1358.9,637.7 1358.9,628.9 			"/>
			<polygon class="st13" points="1358.9,628.1 1561.4,628.1 1561.4,631.3 1358.9,631.3 1358.9,628.1 			"/>
			<line class="st32" x1="1454" y1="537.2" x2="1465.3" y2="537.2"/>
			<line class="st32" x1="1453.3" y1="539.4" x2="1463.2" y2="539.4"/>
			<polygon class="st33" points="1452.2,534.7 1477.5,534.7 1475.2,541.7 1449.9,541.7 1452.2,534.7 			"/>
			<line class="st32" x1="1436.8" y1="596" x2="1448.1" y2="596"/>
			<line class="st32" x1="1436" y1="598.2" x2="1445.9" y2="598.2"/>
			<line class="st32" x1="1435.2" y1="600.5" x2="1440.5" y2="600.5"/>
			<polygon class="st33" points="1434.9,593.5 1451.2,593.5 1448,603 1431.8,603 1434.9,593.5 			"/>
			<line class="st32" x1="1522.2" y1="548.6" x2="1533.6" y2="548.6"/>
			<line class="st32" x1="1521.5" y1="550.8" x2="1531.4" y2="550.8"/>
			<line class="st32" x1="1520.7" y1="553.1" x2="1526" y2="553.1"/>
			<polygon class="st33" points="1520.4,546.1 1536.7,546.1 1533.5,555.6 1517.3,555.6 1520.4,546.1 			"/>
			<line class="st32" x1="1500.7" y1="597.1" x2="1512" y2="597.1"/>
			<line class="st32" x1="1499.9" y1="599.3" x2="1509.9" y2="599.3"/>
			<line class="st32" x1="1499.2" y1="601.5" x2="1504.5" y2="601.5"/>
			<polygon class="st33" points="1498.9,594.6 1515.1,594.6 1512,604 1495.7,604 1498.9,594.6 			"/>
			<line class="st34" x1="1449.8" y1="593.3" x2="1467.6" y2="577.8"/>
			<line class="st33" x1="1449.8" y1="593.3" x2="1467.6" y2="577.8"/>
			<line class="st34" x1="1499.2" y1="594.5" x2="1493.8" y2="588.3"/>
			<line class="st33" x1="1499.2" y1="594.5" x2="1493.8" y2="588.3"/>
			<line class="st34" x1="1518.9" y1="555.5" x2="1504.6" y2="568.4"/>
			<line class="st33" x1="1518.9" y1="555.5" x2="1504.6" y2="568.4"/>
			<line class="st34" x1="1476.2" y1="538" x2="1486.5" y2="542.1"/>
			<line class="st33" x1="1476.2" y1="538" x2="1486.5" y2="542.1"/>
			<path class="st20" d="M1484.6,542.3c0.3-0.9,1.2-1.5,2.1-1.6c0.6,0,1.1,0.4,1.2,1c0,0.2,0,0.4-0.1,0.6c-0.3,0.9-1.2,1.5-2.1,1.6
				c-0.6,0-1.1-0.4-1.2-1.1C1484.5,542.6,1484.5,542.4,1484.6,542.3z"/>
			<path class="st33" d="M1484.6,542.3c0.3-0.9,1.2-1.5,2.1-1.6c0.6,0,1.1,0.4,1.2,1c0,0.2,0,0.4-0.1,0.6c-0.3,0.9-1.2,1.5-2.1,1.6
				c-0.6,0-1.1-0.4-1.2-1.1C1484.5,542.6,1484.5,542.4,1484.6,542.3z"/>
			<path class="st20" d="M1465.8,577.7c0.4-1.1,1.4-1.8,2.5-1.9c0.7,0,1.3,0.5,1.4,1.2c0,0.2,0,0.4-0.1,0.6
				c-0.4,1.1-1.4,1.8-2.5,1.9c-0.7,0-1.3-0.5-1.4-1.2C1465.7,578.1,1465.7,577.9,1465.8,577.7z"/>
			<path class="st33" d="M1465.8,577.7c0.4-1.1,1.4-1.8,2.5-1.9c0.7,0,1.3,0.5,1.4,1.2c0,0.2,0,0.4-0.1,0.6
				c-0.4,1.1-1.4,1.8-2.5,1.9c-0.7,0-1.3-0.5-1.4-1.2C1465.7,578.1,1465.7,577.9,1465.8,577.7z"/>
			<path class="st20" d="M1491.8,588.1c0.3-1,1.2-1.6,2.2-1.7c0.6,0,1.2,0.5,1.2,1.1c0,0.2,0,0.4-0.1,0.6c-0.3,1-1.2,1.6-2.2,1.7
				c-0.6,0-1.2-0.5-1.2-1.1C1491.7,588.5,1491.8,588.3,1491.8,588.1z"/>
			<path class="st33" d="M1491.8,588.1c0.3-1,1.2-1.6,2.2-1.7c0.6,0,1.2,0.5,1.2,1.1c0,0.2,0,0.4-0.1,0.6c-0.3,1-1.2,1.6-2.2,1.7
				c-0.6,0-1.2-0.5-1.2-1.1C1491.7,588.5,1491.8,588.3,1491.8,588.1z"/>
			<path class="st20" d="M1501,570.3c0.4-1,1.3-1.8,2.4-1.8c0.7,0,1.3,0.5,1.3,1.2c0,0.2,0,0.4-0.1,0.6c-0.4,1-1.3,1.7-2.4,1.8
				c-0.7,0-1.3-0.5-1.3-1.2C1500.9,570.7,1500.9,570.5,1501,570.3z"/>
			<path class="st33" d="M1501,570.3c0.4-1,1.3-1.8,2.4-1.8c0.7,0,1.3,0.5,1.3,1.2c0,0.2,0,0.4-0.1,0.6c-0.4,1-1.3,1.7-2.4,1.8
				c-0.7,0-1.3-0.5-1.3-1.2C1500.9,570.7,1500.9,570.5,1501,570.3z"/>
			<polygon class="st30" points="1549.6,532.5 1580.9,532.5 1552.5,617.9 1521.1,617.9 1549.6,532.5 			"/>
			<polygon class="st33" points="1549.6,532.5 1580.9,532.5 1552.5,617.9 1521.1,617.9 1549.6,532.5 			"/>
			<polygon class="st30" points="1422.9,608.5 1524.2,608.5 1521.1,617.9 1419.8,617.9 1422.9,608.5 			"/>
			<polygon class="st33" points="1422.9,608.5 1524.2,608.5 1521.1,617.9 1419.8,617.9 1422.9,608.5 			"/>
			<line class="st32" x1="1552.8" y1="537.4" x2="1575.3" y2="537.4"/>
			<line class="st32" x1="1551.7" y1="541" x2="1574.2" y2="541"/>
			<line class="st32" x1="1550.6" y1="544.6" x2="1573.1" y2="544.6"/>
			<line class="st32" x1="1549.4" y1="548.3" x2="1571.9" y2="548.3"/>
			<line class="st32" x1="1548.3" y1="551.9" x2="1570.8" y2="551.9"/>
			<line class="st32" x1="1547.2" y1="555.5" x2="1569.7" y2="555.5"/>
			<line class="st32" x1="1545.5" y1="559.2" x2="1568" y2="559.2"/>
			<line class="st32" x1="1543.7" y1="562.8" x2="1566.2" y2="562.8"/>
			<line class="st32" x1="1542" y1="566.5" x2="1564.5" y2="566.5"/>
			<line class="st32" x1="1541.1" y1="570.1" x2="1563.6" y2="570.1"/>
			<line class="st32" x1="1539.7" y1="573.7" x2="1562.2" y2="573.7"/>
			<line class="st32" x1="1538.4" y1="577.4" x2="1560.9" y2="577.4"/>
			<line class="st32" x1="1537.4" y1="581" x2="1559.9" y2="581"/>
			<line class="st32" x1="1536.1" y1="584.7" x2="1558.6" y2="584.7"/>
			<line class="st32" x1="1534.5" y1="588.3" x2="1557" y2="588.3"/>
			<line class="st32" x1="1533.8" y1="591.9" x2="1556.3" y2="591.9"/>
			<line class="st32" x1="1533" y1="595.6" x2="1555.5" y2="595.6"/>
			<line class="st32" x1="1531.6" y1="599.2" x2="1554.1" y2="599.2"/>
			<line class="st32" x1="1530.3" y1="602.8" x2="1552.8" y2="602.8"/>
			<line class="st32" x1="1528.9" y1="606.5" x2="1551.4" y2="606.5"/>
			<line class="st32" x1="1527.5" y1="610.1" x2="1550" y2="610.1"/>
			<line class="st32" x1="1463" y1="611.8" x2="1515.8" y2="611.8"/>
			<line class="st32" x1="1462.2" y1="615.1" x2="1515" y2="615.1"/>
			<polygon class="st30" points="1550.3,534.5 1554.3,534.5 1527.4,615.2 1523.4,615.2 1550.3,534.5 			"/>
			<polygon class="st30" points="1574.4,535.2 1578,535.2 1551.1,616 1547.5,616 1574.4,535.2 			"/>
			<polygon class="st30" points="1515.8,609.8 1520.1,609.8 1517.7,617 1513.4,617 1515.8,609.8 			"/>
			<polygon class="st30" points="1460.5,609.7 1464.8,609.7 1462.4,616.9 1458.1,616.9 1460.5,609.7 			"/>
			<polygon class="st30" points="1556.1,576.8 1563.3,576.8 1550.8,614.3 1543.6,614.3 1556.1,576.8 			"/>
			<polygon class="st30" points="1544.1,561.1 1566.8,561.1 1564.4,568.1 1541.8,568.1 1544.1,561.1 			"/>
			<polygon class="st30" points="1562.3,550.7 1572.5,550.7 1570.4,557 1560.2,557 1562.3,550.7 			"/>
			<polygon class="st30" points="1568.2,539.6 1574.9,539.6 1573.8,543 1567.1,543 1568.2,539.6 			"/>
			<path class="st35" d="M1298.5,606.4c-0.4-1-4.7-91.8-4.7-91.8c-3.9-8.9-4.7-16-2.3-21.4l8.8-23.4c2.6,1.6,3.7,3.6,3.2,6.1
				l-3.6,12c-0.4,2.8-0.5,4.7,1.9,7.4l7.8-12.5l2.2-12.7c-2.5-3.5-5.5-6.7-8.9-9.3c-0.8-2.4-0.9-4.3-0.3-5.7
				c5.5,3.8,10.6,8,15.4,12.6c0.2-3.8-0.3-7.7-1.4-11.4c-0.3-2.5,1.3-4.2,3.3-5c2.2,5.3,3.6,13.1,5,25.2c0.3,2.4,0,4.7-1,6.9
				l-17.1,35.1l20.7,82.1C1329.5,618,1309.2,630.6,1298.5,606.4z"/>
			<path class="st36" d="M1338.3,692.7l-17.8-52.5c-10.1-49.3-13.4-94.8-10.3-134.9l-40-23.5l-53.2,2.5l-49.7,26.4
				c-11.5,17-12.3,38.2-2.3,63.7l34.8,92l10.4,26.2L1338.3,692.7z"/>
			<path class="st37" d="M1204.1,577.8l-30.4-38.7c-7.7-11.3-8-20.8-6.2-28.4c-10.1,10.9-13.7,36.2-5.2,57.4
				c20.1,55.9,38.1,99.8,54.2,131.6h26.8c-22.9-38.1-42.9-79.9-60-125.5l9.1,12.9L1204.1,577.8z"/>
			<path class="st17" d="M1298.6,397.8c1.4-28.2-10.8-41-32.3-39.5c19.5,0.4,25.5,16.4,25.1,39.2L1298.6,397.8z"/>
			<path class="st35" d="M1366.1,610.4l-29.7-46.9l-31.9,12.3l34.9,54.8C1350.1,645,1379,636.9,1366.1,610.4z"/>
			<polygon class="st36" points="1313.2,507.1 1348,575.4 1315.7,596 1303.3,575 1291,494 			"/>
			<path class="st35" d="M1270.6,481.8l3.8-14.3c9.3,0.4,18.3-1.2,20.5-7l4.3-24.1c3.6,1,6.6,0.6,8.9-1.4
				c-3.3-8.8-6.8-14.1-4.5-23.5l3.4-19.1c0.9-26.6-18.5-29.8-58-9.7c-6.1,33-8.6,51.4-7.8,55.2l-12.6,39.7l-15.5,8.9
				c10.8-2.2,37.7-0.5,74.3,5.4L1270.6,481.8z"/>
			<path class="st15" d="M1282.1,363c-33.3-17.8-53.6-0.4-56.5,15.6l5.8,2.5c23.8,3.1,42.4,5.2,55.6,6.2l-11-10.5L1282.1,363z"/>
			<path class="st38" d="M1240.6,439.9c1.3-24.6-21.7-37.1-9.3-59l55.5,6.4l-5.5,2.9l0.9,27.1l-8.3-2.1l-3.3-9.8
				c-8.4-8.1-16.4,10.4-5.4,22.9l-15.3,7.2"/>
			<path class="st15" d="M1300.6,436.8l-3.3-0.5c-11.9-1.8-15.9,4.1-15,16.2c3.6,4.5,6.6-1.2,9.6-5.5c1.5,1.2,7.1,1.3,8.2,1
				C1300.8,447.4,1303,441,1300.6,436.8z"/>
			<path class="st39" d="M1274.3,467.6c-16.8-1.7-29.5-17.5-33-30.5l-4.6,17.5c4.9,9.2,19.4,17.9,36.2,18.4L1274.3,467.6z"/>
			<path class="st40" d="M1454.4,613.9c0.9,0.7,1.6,1.6,2.3,2.4c1.5,1.9,2.3,3.6,2.2,5c-0.1,1.6-3.6,2.6-5.2,4.3
				c-0.8,0.9-8.3,1.9-9.1,2.4l-87.7,12.3c-23.5,1.3-21.9-26.8,4.8-31.6C1372.3,607,1435.7,611,1454.4,613.9z"/>
			<path class="st41" d="M1254.1,612.6l-32.7-49.4l-27.7,23.1l43.6,47.5C1250.7,645.8,1272.2,635.8,1254.1,612.6z"/>
			<path class="st15" d="M1308.1,387.3c16.4-10.1,20.7-57.4-16.9-50c-9.5,1.5-21.1,11.6-31.1-0.8c-0.8,9.3,12,22,17.7,25.7
				l-6.3,20.6c7.4-4.8,19.1-3.6,27.4,2.3C1304.1,389.3,1306,388.6,1308.1,387.3z"/>
			<path class="st42" d="M1298.2,338.5c27.5,0.7,20.6,40.1,7.9,47"/>
			<path class="st42" d="M1284.3,342.7c21.3-5.8,27.2,24.2,15.2,38.7"/>
			<path class="st42" d="M1277.3,350c12.4-2.3,16.2,14.5,12,27.8"/>
			<path class="st42" d="M1230.3,374.8c1.2-4.6,9.3-14.6,18.3-15.6"/>
			<path class="st38" d="M1193.7,586.3l43.7,47.6c7.8,8.2-38.6-51.5-38.6-51.5L1193.7,586.3z"/>
			<path class="st39" d="M1364.9,608.7c4.6,5.9,5,9.6,5.6,13.6c0.6-3.7,1.9-9.1-2.1-13.8L1364.9,608.7z"/>
			<path class="st38" d="M1247.3,602.6c-3.4,3.2-5,5-6.4,8.6c-0.5-4.1,1.3-6.6,5.2-10.6L1247.3,602.6z"/>
			<path class="st37" d="M1329.3,587.3l-36.6-65.2c-35.6-14-95.2-19.2-126.9-10c-6.8,5.5-9.7,18.3-8.6,38.3l36.7,144l125.7-1.7
				c-21.7-41.4-30.2-80.5-28.9-123.2l20.5,29.6L1329.3,587.3z"/>
			<path class="st35" d="M1444.9,616.4l19.8-16.3l21.3-4.7c0.2,1.6-0.7,2.8-2.8,3.9l-7.6,3.1l15.1-0.1c-0.4,1.8-2.1,2.9-4.5,3.2
				l-9.7,1.5l5.9,1.2l4.8,7.6c-1.9,0.7-3.4,0.7-4.3,0l-4.2-3.5l-5.1-0.6l-15.5,12.4c-3.2,2.3-7.3,3.3-11.2,2.8L1444.9,616.4z"/>
			<polygon class="st39" points="1345.2,577.2 1317.1,595.2 1339.5,630.5 1323.1,594.9 1346.6,579.5 			"/>
			<polygon class="st13" points="1012.8,539.4 1099.6,539.4 1099.6,636.8 1012.8,636.8 1012.8,539.4 			"/>
			<polygon class="st14" points="1033.7,539.4 1120.8,539.4 1120.8,637.1 1033.7,637.1 1033.7,539.4 			"/>
			<path class="st15" d="M1067.8,601.5c0-8.1-4.6-14.7-10.3-15.3c-0.3,0-3.4,0-3.7,0c-6.2,0-8.3,6.9-8.3,15.4s1,15.4,7.2,15.4
				c0.2,0,4.4,0,4.7,0C1063.2,616.3,1067.8,609.7,1067.8,601.5z"/>
			<path class="st16" d="M1073.3,557.3l-1.2-2.9c18.7-1.8,32.2,8.2,30.6,33.3l-8.5,1.2C1094.9,567.5,1088.8,556.3,1073.3,557.3z"/>
			<path class="st16" d="M1078.3,557.1l-0.1-2.8c-15.1-1.4-32.8,5.8-30.1,34.3l8.5,0.1C1055.9,567.4,1062.8,556.2,1078.3,557.1z"/>
			<path class="st17" d="M1056.6,584.2h-8.7c0,1.4,0.1,2.6,0.2,3.5h8.6C1056.5,587.2,1056.5,586,1056.6,584.2z"/>
			<ellipse class="st18" cx="1052.1" cy="601.5" rx="11.2" ry="15.4"/>
			<ellipse class="st19" cx="1049.6" cy="601.5" rx="6.6" ry="9.1"/>
			<circle class="st20" cx="1056.8" cy="591.9" r="1.4"/>
			<path class="st17" d="M1099.8,587.5c1-21.6-8.3-31.5-24.8-30.3c15,0.3,19.6,12.5,19.2,30L1099.8,587.5z"/>
			<ellipse class="st18" cx="1101.7" cy="602.4" rx="11.2" ry="15.4"/>
			<path class="st15" d="M1109.9,602.3c0-8.1-4.6-14.7-10.3-15.3c-0.3,0-3.4,0-3.7,0c-6.2,0-8.3,6.9-8.3,15.4s1,15.4,7.2,15.4
				c0.2,0,4.4,0,4.7,0C1105.3,617.2,1109.9,610.5,1109.9,602.3z"/>
			<ellipse class="st13" cx="1095.2" cy="602.3" rx="11.2" ry="15.4"/>
			<path class="st13" d="M1082.1,544.8h-7.3v5h7.3V544.8z M1114.3,544.8h-23.4v5h23.4V544.8z"/>
			<polygon class="st13" points="1041.8,628.4 1074.9,628.4 1074.9,631.8 1041.8,631.8 1041.8,628.4 			"/>
			<path class="st21" d="M1025.5,595.8v-7.3h-5v7.3H1025.5z M1025.5,627.9v-23.5h-5v23.5H1025.5z"/>
			<polygon class="st13" points="1023.8,442.6 1110.6,442.6 1110.6,540.1 1023.8,540.1 1023.8,442.6 			"/>
			<polygon class="st14" points="1044.9,442.6 1131.8,442.6 1131.8,540.3 1044.9,540.3 1044.9,442.6 			"/>
			<path class="st15" d="M1078.8,504.8c0-8.1-4.6-14.7-10.3-15.3c-0.3,0-3.4,0-3.7,0c-6.2,0-8.3,6.9-8.3,15.4s1,15.4,7.2,15.4
				c0.2,0,4.4,0,4.7,0C1074.2,519.6,1078.8,513,1078.8,504.8z"/>
			<path class="st16" d="M1084.4,460.6l-1.2-2.9c18.7-1.8,32.2,8.2,30.6,33.3l-8.5,1.2C1105.9,470.8,1099.8,459.6,1084.4,460.6z"/>
			<path class="st16" d="M1089.3,460.4l-0.1-2.8c-15.1-1.4-32.8,5.8-30.1,34.3l8.5,0.1C1067,470.7,1073.8,459.5,1089.3,460.4z"/>
			<path class="st17" d="M1067.6,487.4h-8.7c0,1.4,0.1,2.6,0.2,3.5h8.6C1067.6,490.4,1067.6,489.3,1067.6,487.4z"/>
			<ellipse class="st18" cx="1063.1" cy="504.8" rx="11.2" ry="15.4"/>
			<ellipse class="st19" cx="1060.7" cy="504.8" rx="6.6" ry="9.1"/>
			<path class="st20" d="M1066.4,495.1c0-0.8,0.6-1.4,1.4-1.4c0.8,0,1.4,0.6,1.4,1.4s-0.6,1.4-1.4,1.4c0,0,0,0,0,0
				C1067,496.6,1066.4,495.9,1066.4,495.1z"/>
			<path class="st17" d="M1110.8,490.8c1-21.6-8.3-31.5-24.8-30.3c15,0.3,19.6,12.5,19.2,30L1110.8,490.8z"/>
			<ellipse class="st18" cx="1112.7" cy="505.7" rx="11.2" ry="15.4"/>
			<path class="st15" d="M1120.9,505.6c0-8.1-4.6-14.7-10.3-15.3c-0.3,0-3.4,0-3.7,0c-6.2,0-8.3,6.9-8.3,15.4s1,15.4,7.2,15.4h4.7
				C1116.3,520.4,1120.9,513.8,1120.9,505.6z"/>
			<ellipse class="st13" cx="1106.2" cy="505.6" rx="11.2" ry="15.4"/>
			<path class="st13" d="M1093.2,448h-7.3v5h7.3V448z M1125.3,448h-23.4v5h23.4V448z"/>
			<polygon class="st13" points="1052.8,531.7 1085.9,531.7 1085.9,535.1 1052.8,535.1 1052.8,531.7 			"/>
			<path class="st21" d="M1036.5,499v-7.3h-5v7.3H1036.5z M1036.5,531.2v-23.5h-5v23.5L1036.5,531.2z"/>
			<polygon class="st13" points="1018.6,432.6 1110.3,432.6 1115.6,442.8 1023.9,442.8 1018.6,432.6 			"/>
			<polygon class="st43" points="1139.2,428.7 1052.3,428.7 1044.9,442.9 1131.8,442.9 1139.2,428.7 			"/>
			<polygon class="st43" points="1038.6,540.1 1120.8,540.1 1120.8,545.2 1038.6,545.2 1038.6,540.1 			"/>
			<polygon class="st13" points="1074.6,543 1161.4,543 1161.4,640.5 1074.6,640.5 1074.6,543 			"/>
			<polygon class="st14" points="1095.8,543 1182.6,543 1182.6,640.6 1095.8,640.6 1095.8,543 			"/>
			<path class="st15" d="M1129.7,605.2c0-8.1-4.6-14.7-10.3-15.3c-0.3,0-3.4,0-3.7,0c-6.2,0-8.3,6.9-8.3,15.4s1,15.4,7.2,15.4
				c0.2,0,4.4,0,4.7,0C1125,620,1129.7,613.3,1129.7,605.2z"/>
			<path class="st16" d="M1135.2,561l-1.2-2.9c18.7-1.8,32.2,8.2,30.6,33.3l-8.5,1.2C1156.7,571.1,1150.7,560,1135.2,561z"/>
			<path class="st16" d="M1140.1,560.8l-0.1-2.8c-15.1-1.4-32.8,5.8-30.1,34.3l8.5,0.1C1117.8,571.1,1124.7,559.9,1140.1,560.8z"/>
			<path class="st17" d="M1118.4,587.8h-8.7c0,1.4,0.1,2.6,0.2,3.5h8.6C1118.4,590.8,1118.4,589.7,1118.4,587.8z"/>
			<ellipse class="st18" cx="1113.9" cy="605.2" rx="11.2" ry="15.4"/>
			<ellipse class="st19" cx="1111.5" cy="605.1" rx="6.6" ry="9.1"/>
			<path class="st20" d="M1117.2,595.5c0-0.8,0.6-1.4,1.4-1.4c0.8,0,1.4,0.6,1.4,1.4c0,0.8-0.6,1.4-1.4,1.4c0,0,0,0,0,0
				C1117.8,597,1117.2,596.3,1117.2,595.5z"/>
			<path class="st17" d="M1161.6,591.2c1-21.6-8.3-31.5-24.8-30.3c15,0.3,19.6,12.5,19.2,30L1161.6,591.2z"/>
			<ellipse class="st18" cx="1163.5" cy="606.1" rx="11.2" ry="15.4"/>
			<path class="st15" d="M1171.7,606c0-8.1-4.6-14.7-10.3-15.3c-0.3,0-3.4,0-3.7,0c-6.2,0-8.3,6.9-8.3,15.4s1,15.4,7.2,15.4
				c0.2,0,4.4,0,4.7,0C1167.1,620.8,1171.7,614.2,1171.7,606z"/>
			<ellipse class="st13" cx="1157" cy="606" rx="11.2" ry="15.4"/>
			<path class="st13" d="M1144,548.4h-7.3v5h7.3V548.4z M1176.2,548.4h-23.5v5h23.5V548.4z"/>
			<polygon class="st13" points="1103.6,632.1 1136.7,632.1 1136.7,635.5 1103.6,635.5 1103.6,632.1 			"/>
			<path class="st21" d="M1087.3,599.4v-7.3h-5v7.3H1087.3z M1087.3,631.6v-23.4h-5v23.4H1087.3z"/>
			<path class="st44" d="M1209,769.4c0-4.7,3.8-8.5,8.5-8.5l0,0h90.6c4.7,0,8.5,3.8,8.5,8.5c0,0,0,0,0,0v11.7c0,4.7-3.8,8.5-8.5,8.5
				c0,0,0,0,0,0h-90.6c-4.7,0-8.5-3.8-8.5-8.5v0V769.4z"/>
			<polygon class="st44" points="1254.1,779.1 1277.7,779.1 1277.7,846.1 1254.1,846.1 1254.1,779.1 			"/>
			<polygon class="st45" points="1261.1,853.3 1272.3,853.3 1272.3,882.6 1261.1,882.6 1261.1,853.3 			"/>
			<polygon class="st46" points="1254.2,823.2 1277.7,806.1 1277.7,846.1 1254.2,846.1 			"/>
			<polygon class="st47" points="1261.1,846 1272.3,846 1272.3,854.5 1261.1,862.4 			"/>
			<circle class="st44" cx="1202.6" cy="912.6" r="10"/>
			<circle class="st44" cx="1267" cy="912.5" r="10"/>
			<circle class="st44" cx="1331.6" cy="912.5" r="10"/>
			<path class="st48" d="M1200.5,893.9c17-7,40.3-11.3,66-11.3c24.7,0,47.1,4,64,10.5"/>
			<path class="st46" d="M1131.4,594.8c-6.3-30.4,13.3-55.1,43.7-55.1h24.5c30.4,0,60.2,24.7,66.5,55.1
				c16.2,74.8,33,128.6,50.4,161.1c3.1,17.8-133.2,10.9-134.8,0C1161.7,716.8,1144.9,663.1,1131.4,594.8z"/>
			<path class="st47" d="M1106.7,595.6c-6.3-30.4,13.3-55.1,43.7-55.1h24.5c30.4,0,60.2,24.7,66.5,55.1
				c16.2,74.8,33,128.5,50.4,161.1c3.1,17.8-119.5,21.5-128,11.9C1142.1,729.4,1120.2,663.8,1106.7,595.6z"/>
			<path class="st44" d="M1163.1,755.9c0-5.3,4.3-9.7,9.7-9.7l0,0h197.7c5.3,0,9.7,4.3,9.7,9.7c0,0,0,0,0,0v8c0,5.3-4.3,9.7-9.7,9.7
				c0,0,0,0,0,0h-197.7c-5.3,0-9.7-4.3-9.7-9.7l0,0V755.9z"/>
			<path class="st44" d="M1162.6,755.9c0-5.3,4.3-9.7,9.6-9.7c0,0,0,0,0,0h93.7c5.3,0,9.7,4.3,9.7,9.6c0,0,0,0,0,0v8
				c0,5.3-4.3,9.7-9.7,9.7l0,0h-93.7c-5.3,0-9.7-4.3-9.7-9.7c0,0,0,0,0,0L1162.6,755.9L1162.6,755.9z"/>
			<line class="st49" x1="1355.2" y1="746.6" x2="1355.2" y2="701.8"/>
			<path class="st50" d="M1292.2,700.2c8.8-1.1,17.6-1.6,26.5-1.6c24.7,0,47.1,4,64,10.5"/>
			<line class="st49" x1="1218.8" y1="752.6" x2="1218.8" y2="701.3"/>
			<path class="st50" d="M1155.8,699.6c8.8-1.1,17.7-1.6,26.5-1.6c24.7,0,47.1,4,64,10.5"/>
			<path class="st51" d="M1715.3,529.2c1.6-2.1,3.5-3.8,5.6-5.3c2.8-2,5.9-3.8,9.1-5.2c3.9-1.8,8.2-2.7,12.6-2.6
				c1.5,0.1,3.1,0.3,4.6,0.5c-1.4,2.5-1,6.4,1.2,11.8c1.3-5.1,1-9-1.2-11.8c5.8,0.9,12.9,3,21.1,6.4c-2.3,4-4.7,10.1-7,18.2
				l-1.7,6.1c-0.8,3.3-2,6.6-3.6,9.6c-1.3-10.6-5.5-14.4-12.5-11.5c2.4,6.3,6.6,10.1,12.5,11.5c-2.9,5.5-6.9,8.8-11.9,10
				c-1.5,0.4-3,0.6-4.6,0.7c2.4-9.6-0.8-15.1-9.6-16.5c0.3,6.8,3.5,12.3,9.6,16.5c-5.3,0.5-10.6-0.9-15-3.9
				c-1.7-1.2-3.2-2.6-4.5-4.1v0c-3.2-3.7-5.7-8.5-7.3-14.6C1711.1,538.9,1711.9,533.7,1715.3,529.2L1715.3,529.2z M1715.3,529.2
				c0.7,9,4.2,15.2,10.7,18.7C1726.9,537.5,1723.3,531.3,1715.3,529.2L1715.3,529.2z M1730,518.7c-1.9,8.5,0.8,13.8,8.2,16
				C1739.7,526.2,1736.9,520.9,1730,518.7z M1752.7,534c2.4,4.9,5.2,7.3,8.5,7.3C1760.8,537.5,1757.9,535.1,1752.7,534z
				 M1648.3,501.9L1648.3,501.9c5.5-1.4,11.1-2.2,16.8-2.4c6-0.2,11.9,0.7,17.6,2.7c0.7,0.3,2,0.8,3.9,1.5
				c9.6,4.1,14.9,9.6,15.9,16.6c-7.8-1.3-13.3,2.7-16.4,12.1c7.5-1,13-5,16.4-12.1c0.1,0.8,0.2,1.7,0.2,2.5c0,9-2.7,16.7-8.2,23.1
				c-0.7,0.8-1.4,1.6-2.2,2.3l0,0c-5.2,4.9-11.7,7.6-19.7,8.2c-4.6,0.5-9.1-1-12.6-4c7.4-0.4,14.5-4.7,21.2-12.9
				c-13,0.5-20.1,4.8-21.2,12.9c-2.8-2.5-5-6.1-6.7-10.7c-0.3-0.8-0.7-2-1.2-3.4c5.4,0.6,10.8-3.1,16.2-11
				c-10.1,1.1-15.5,4.8-16.2,11c-1.9-5.6-3.2-11.4-3.8-17.3c3.1,1.1,7.2,0.2,12.2-2.8c-6.3-1.5-10.4-0.5-12.2,2.8
				c-0.2-2-0.3-4-0.2-6C1648.3,507.8,1648.4,503.4,1648.3,501.9L1648.3,501.9z M1686.6,503.7c-7.3,1.2-11.3,6.2-12.1,15
				C1682.8,515.5,1686.9,510.4,1686.6,503.7L1686.6,503.7z M1665.1,499.5c-2.2,2.1-1.9,6.4,1,12.9
				C1667.9,507,1667.6,502.7,1665.1,499.5L1665.1,499.5z"/>
			<path class="st51" d="M1693.8,547c8.4,14.8,12.4,36.4,12.4,64.6c0,1.9,0,3.8,0,5.7h-1.8l-1.8-0.2c1.4-24.1,6.7-43.7,15.8-58.7
				c0.4-0.8,1.4-1.1,2.2-0.7c0.1,0.1,0.2,0.1,0.3,0.2c0.8,0.8,1,2,0.4,2.9c-8.7,14.2-13.8,33.1-15.2,56.6c0,1-0.8,1.9-1.9,1.9
				c0,0,0,0,0,0c-1-0.1-1.8-1.1-1.7-2.1c0-1.9,0-3.8,0-5.6c0-27.8-4-48.5-11.8-62.3c-0.5-1-0.3-2.2,0.5-2.9c0.7-0.6,1.8-0.4,2.3,0.3
				C1693.7,546.9,1693.8,546.9,1693.8,547L1693.8,547z"/>
			<path class="st52" d="M1690.9,549.5c-14-20.5-28.5-35.7-43.5-45.8c-0.9-0.7-1.2-1.9-0.7-2.9c0.3-0.9,1.3-1.3,2.2-0.9
				c0.1,0,0.2,0.1,0.3,0.1c15.5,10.4,30.3,26,44.5,46.8c0.6,0.9,0.5,2.2-0.3,2.9c-0.7,0.6-1.7,0.6-2.3,0
				C1691,549.7,1691,549.6,1690.9,549.5L1690.9,549.5z M1718.6,558.3c13.3-18.8,29.7-31.3,49.2-37.3c1-0.2,1.9,0.4,2.2,1.3
				c0,0.1,0,0.1,0,0.2c0.3,1.1-0.3,2.1-1.3,2.5c-18.8,5.8-34.5,17.7-47.4,35.9c-0.5,0.8-1.5,1-2.2,0.5c-0.1-0.1-0.2-0.1-0.3-0.2
				C1718,560.4,1717.9,559.2,1718.6,558.3L1718.6,558.3z"/>
			<path class="st13" d="M1682.6,626.5c-0.3-3.9,0.8-7.7,3.2-10.8c5.1-0.8,10.4-1.3,15.6-1.2c9.9,0,15.8,0,16.6,0
				c2.7-0.1,5.3-0.3,7.9-0.7c1.2,1.6,2.2,3.3,2.8,5.2c-13.3,3-26.6,7.1-40.2,8.7L1682.6,626.5z"/>
			<path class="st29" d="M1682.6,626.5l5.6-0.7c13.6-1.6,27.1-3.9,40.4-6.9c2.1,6.8-1,14.5-9.4,22.9c-7.1,1.2-16.1,1.2-27.2,0
				C1686.3,636.7,1683.2,631.6,1682.6,626.5z M1719.3,606.9c-0.8,0.2-1.3,0.4-1.6,0.4c-18.3,1-18.6-0.4-24.3-1.1
				c4-7,2.2-13.3-5.3-19h35.6C1715,593.1,1713.5,599.6,1719.3,606.9z"/>
			<path class="st53" d="M1719.3,606.9c1.1,1.3,2.3,2.6,3.5,3.7c1.1,1,2.1,2.1,3,3.2c-2.6,0.4-5.3,0.6-7.9,0.7
				c-0.8,0.1-6.1,0.1-16,0.1c-5.4,0-10.8,0.3-16.1,1.1c0.9-1.3,1.9-2.5,3-3.5c1.8-1.8,3.4-3.8,4.7-6c8,1.1,16.2,1.5,24.2,1
				C1718.3,607.1,1718.8,607,1719.3,606.9z"/>
			<polygon class="st10" points="914.2,244.7 929,245.4 929,868.8 914.2,869.5 			"/>
			<polygon class="st54" points="914.2,616.3 929,616.3 929,621.8 914.2,628.5 			"/>
			<polygon class="st10" points="173.8,209.8 192,210.7 192,869.5 173.8,870.4 			"/>
			<polygon class="st54" points="173.8,621.6 192,621.6 192,628.3 173.8,636.6 			"/>
			<polygon class="st55" points="178.8,164.2 939.4,205.2 939.4,610.9 178.8,616.4 			"/>
			<polygon class="st56" points="178.8,164.2 939.4,205.2 939.4,610.9 178.8,616.4 			"/>
			<path class="st57" d="M491.3,380.2c-4.1-89.4,33.9-133.2,114-131.3c59.8-0.1,113.9,37.2,108.6,135.7c21.2,4,43.8,30.1,37.2,78.7
				c-4.1,22.9-16,37.7-35.7,44.4H685c-29.2-6.2-44.5-27.3-45.9-63.2c1.8-34.6,15.1-55,40.1-61.3c2.5-78.1-22.8-118.9-75.9-122.6
				c-37.5-0.7-61.7,23.2-72.4,71.9l-3.9,43c27,2.9,48,27.3,46.3,74.8c-5.2,37.8-24.2,55-57,51.7c-35,1.8-52-22.6-55-62.8
				C463,410.2,473,390.6,491.3,380.2z"/>
			<path class="st58" d="M511.4,501.7c1,0,18.4,0.1,19.4,0c24.1-1.8,43.1-28.8,43.1-62c0-33-18.7-60.5-42.5-63.5
				c-1.1-0.2-2.2-0.2-3.3-0.3"/>
			<path class="st58" d="M680.4,383.9c1-81-23.4-124-84-123"/>
			<path class="st58" d="M527.4,381.8c-1.4-84.3,27.3-127.1,89.1-120.7"/>
			<path class="st58" d="M555.4,439.5c0-34.6-20.6-63.3-46.3-63.9c-25.8-0.7-46.9,27.2-46.9,62.3s21.1,63.7,46.9,64
				C534.8,502.1,555.4,474.2,555.4,439.5z"/>
			<path class="st59" d="M526.3,438.8c0-20.6-12.3-37.5-27.5-37.9s-27.7,16.2-27.7,36.9s12.4,37.7,27.7,37.9
				C514.1,475.8,526.3,459.3,526.3,438.8z"/>
			<path class="st58" d="M702.1,383.9c3.4-84.7-33.5-125-99.1-123c59.7,3.9,78.2,52.9,77.1,122.2"/>
			<path class="st58" d="M683.1,506.9l26.5,0.2c24.2,0.2,43.7-26.9,43.7-60.6s-19.5-61.5-43.7-62.1l-28.5-1.1"/>
			<path class="st58" d="M682.3,506.5c0.9,0,17.6,0.1,18.5,0c23-1.8,41.1-28.1,41.1-60.6c0-32.2-17.8-59-40.5-61.9
				c-1.1-0.1-18.9-0.6-20-0.6"/>
			<path class="st58" d="M639.4,444.2c0-34.2,20-61.4,44.6-60.8c24.4,0.6,44,28.5,44,62.3s-19.6,61-44,60.8
				C659.5,506.4,639.4,478.5,639.4,444.2z"/>
			<path class="st58" d="M491.8,379c-7.5-104,54.5-133.2,111.4-130.5c68.4,0.9,115.9,43.2,110.8,135.8"/>
			<polygon class="st57" points="748.2,531.8 832,532.2 832,582 748.2,582.2 			"/>
			<polygon class="st60" points="748.2,531.8 832,532.2 832,582 748.2,582.2 			"/>
			<line class="st61" x1="760.5" y1="545.4" x2="819" y2="545.6"/>
			<line class="st61" x1="760.5" y1="557.4" x2="811.8" y2="557.4"/>
			<line class="st61" x1="760.5" y1="569.3" x2="787.8" y2="569.3"/>
			<polygon class="st57" points="742.2,217.1 826.2,221.4 826.2,271.2 742.2,267.5 			"/>
			<polygon class="st61" points="742.2,217.1 826.2,221.4 826.2,271.2 742.2,267.5 			"/>
			<line class="st61" x1="754.5" y1="231.3" x2="813.1" y2="234.1"/>
			<line class="st61" x1="754.5" y1="243.2" x2="805.9" y2="245.6"/>
			<line class="st61" x1="754.5" y1="255.2" x2="781.8" y2="256.4"/>
			<polygon class="st57" points="389.9,536.1 482.6,536.5 482.6,588.8 389.9,589.1 			"/>
			<polygon class="st61" points="389.9,536.1 482.6,536.5 482.6,588.8 389.9,589.1 			"/>
			<line class="st61" x1="403.5" y1="550.4" x2="468.2" y2="550.5"/>
			<line class="st61" x1="403.5" y1="563" x2="460.3" y2="563"/>
			<line class="st61" x1="403.5" y1="575.5" x2="433.7" y2="575.5"/>
			<line class="st34" x1="784.1" y1="531.8" x2="751" y2="447.5"/>
			<line class="st61" x1="784.1" y1="531.8" x2="751" y2="447.5"/>
			<line class="st34" x1="482.1" y1="536.6" x2="524.3" y2="502"/>
			<line class="st61" x1="482.1" y1="536.6" x2="524.3" y2="502"/>
			<line class="st34" x1="445.3" y1="328.7" x2="515.6" y2="371.9"/>
			<line class="st61" x1="445.3" y1="328.7" x2="515.6" y2="371.9"/>
			<line class="st34" x1="740.8" y1="238.7" x2="649.3" y2="252.9"/>
			<line class="st61" x1="740.8" y1="238.7" x2="649.3" y2="252.9"/>
			<path class="st57" d="M640.1,253.1c-0.1-4.5,3.6-8.3,8.1-8.3c0.2,0,0.4,0,0.5,0c4.8,0.3,8.6,4.2,8.6,9.1c0.1,4.5-3.6,8.2-8.1,8.3
				c-0.2,0-0.3,0-0.5,0C643.9,261.9,640.2,257.9,640.1,253.1z"/>
			<path class="st58" d="M640.1,253.1c-0.1-4.5,3.6-8.3,8.1-8.3c0.2,0,0.4,0,0.5,0c4.8,0.3,8.6,4.2,8.6,9.1c0.1,4.5-3.6,8.2-8.1,8.3
				c-0.2,0-0.3,0-0.5,0C643.9,261.9,640.2,257.9,640.1,253.1z"/>
			<path class="st57" d="M736.7,437.9c0-5.4,4.3-9.9,9.8-9.9c0.1,0,0.2,0,0.2,0c5.6,0.1,10,4.7,10,10.3c0,5.4-4.3,9.9-9.8,9.9
				c-0.1,0-0.2,0-0.2,0C741.1,448,736.7,443.5,736.7,437.9z"/>
			<path class="st58" d="M736.7,437.9c0-5.4,4.3-9.9,9.8-9.9c0.1,0,0.2,0,0.2,0c5.6,0.1,10,4.7,10,10.3c0,5.4-4.3,9.9-9.8,9.9
				c-0.1,0-0.2,0-0.2,0C741.1,448,736.7,443.5,736.7,437.9z"/>
			<path class="st57" d="M515.4,500.6c0-5.1,4.2-9.2,9.2-9.2c0,0,0.1,0,0.1,0c5.1,0,9.3,4.2,9.3,9.3c0,5.1-4.2,9.2-9.2,9.2
				c0,0-0.1,0-0.1,0C519.6,509.9,515.5,505.8,515.4,500.6z"/>
			<path class="st62" d="M515.4,500.6c0-5.1,4.2-9.2,9.2-9.2c0,0,0.1,0,0.1,0c5.1,0,9.3,4.2,9.3,9.3c0,5.1-4.2,9.2-9.2,9.2
				c0,0-0.1,0-0.1,0C519.6,509.9,515.5,505.8,515.4,500.6z"/>
			<path class="st57" d="M513.6,376.1c0-5.5,4.4-9.9,9.9-9.9c0.1,0,0.3,0,0.4,0c5.7,0.1,10.2,4.7,10.3,10.4c0,5.5-4.5,9.9-9.9,9.9
				c-0.1,0-0.2,0-0.3,0C518.3,386.3,513.7,381.8,513.6,376.1z"/>
			<path class="st58" d="M513.6,376.1c0-5.5,4.4-9.9,9.9-9.9c0.1,0,0.3,0,0.4,0c5.7,0.1,10.2,4.7,10.3,10.4c0,5.5-4.5,9.9-9.9,9.9
				c-0.1,0-0.2,0-0.3,0C518.3,386.3,513.7,381.8,513.6,376.1z"/>
			<polygon class="st57" points="217.3,190.2 447.4,201.9 447.4,241.6 217.3,231.2 			"/>
			<polygon class="st61" points="217.3,190.2 447.4,201.9 447.4,241.6 217.3,231.2 			"/>
			<line class="st61" x1="231.6" y1="205.5" x2="299.5" y2="208.8"/>
			<line class="st61" x1="231.6" y1="218.4" x2="291.2" y2="221.2"/>
			<polygon class="st57" points="365.1,272.7 458.5,276.4 458.5,329 365.1,325.9 			"/>
			<polygon class="st61" points="365.1,272.7 458.5,276.4 458.5,329 365.1,325.9 			"/>
			<line class="st60" x1="378.8" y1="287.5" x2="444" y2="290"/>
			<line class="st60" x1="378.8" y1="300.1" x2="436" y2="302.2"/>
			<line class="st60" x1="378.8" y1="312.8" x2="409.2" y2="313.8"/>
			<polygon class="st57" points="810.4,346.8 892.7,349.4 892.7,398.7 810.4,396.7 			"/>
			<polygon class="st61" points="810.4,346.8 892.7,349.4 892.7,398.7 810.4,396.7 			"/>
			<line class="st60" x1="822.4" y1="360.5" x2="879.9" y2="362.3"/>
			<line class="st60" x1="822.4" y1="372.4" x2="872.9" y2="373.8"/>
			<line class="st60" x1="822.4" y1="384.2" x2="849.2" y2="384.9"/>
			<polygon class="st57" points="263.4,395.4 359.4,397.6 359.4,450.8 263.4,449.3 			"/>
			<polygon class="st61" points="263.4,395.4 359.4,397.6 359.4,450.8 263.4,449.3 			"/>
			<line class="st61" x1="277.5" y1="410.2" x2="344.5" y2="411.6"/>
			<line class="st61" x1="277.5" y1="423" x2="336.3" y2="424.1"/>
			<line class="st61" x1="277.5" y1="435.8" x2="308.8" y2="436.3"/>
			<path class="st57" d="M456.2,437.8c0-5.5,4.5-10,10-10c0.1,0,0.3,0,0.4,0c5.7,0.1,10.3,4.7,10.4,10.3c0,5.5-4.5,10-10,10
				c-0.1,0-0.2,0-0.4,0C460.9,448.1,456.3,443.5,456.2,437.8z"/>
			<path class="st58" d="M456.2,437.8c0-5.5,4.5-10,10-10c0.1,0,0.3,0,0.4,0c5.7,0.1,10.3,4.7,10.4,10.3c0,5.5-4.5,10-10,10
				c-0.1,0-0.2,0-0.4,0C460.9,448.1,456.3,443.5,456.2,437.8z"/>
			<line class="st34" x1="359.5" y1="429.2" x2="456.6" y2="437"/>
			<line class="st61" x1="359.5" y1="429.2" x2="456.6" y2="437"/>
			<path class="st57" d="M689.8,413.9c-0.1-5.4,4.2-9.8,9.6-9.9c0.1,0,0.3,0,0.4,0c5.5,0.2,9.9,4.7,9.9,10.3
				c0.1,5.4-4.3,9.8-9.6,9.9c-0.1,0-0.2,0-0.3,0C694.2,424.1,689.8,419.5,689.8,413.9z"/>
			<path class="st58" d="M689.8,413.9c-0.1-5.4,4.2-9.8,9.6-9.9c0.1,0,0.3,0,0.4,0c5.5,0.2,9.9,4.7,9.9,10.3
				c0.1,5.4-4.3,9.8-9.6,9.9c-0.1,0-0.2,0-0.3,0C694.2,424.1,689.8,419.5,689.8,413.9z"/>
			<line class="st34" x1="811.1" y1="373.4" x2="709.6" y2="410.5"/>
			<line class="st61" x1="811.1" y1="373.4" x2="709.6" y2="410.5"/>
			<polygon class="st54" points="155.4,160.3 173.6,158.6 173.6,621.7 155.4,621.7 			"/>
			<path class="st63" d="M875.7,887v-11.9c0-3.6,2.9-6.6,6.6-6.6H960c3.6,0,6.6,2.9,6.6,6.6V887"/>
			<circle class="st44" cx="875.4" cy="900.5" r="8.8"/>
			<circle class="st44" cx="966.4" cy="900.6" r="8.8"/>
			<path class="st63" d="M135.3,887v-11.9c0-3.6,2.9-6.6,6.6-6.6h0h77.8c3.6,0,6.6,2.9,6.6,6.6l0,0V887"/>
			<circle class="st44" cx="135.1" cy="900.5" r="8.8"/>
			<circle class="st44" cx="226.1" cy="900.5" r="8.8"/>
			<path class="st46" d="M529.4,353.8l50.8-24.7c2.3-0.5,4.4,3.2,2.5,4.8l-51.5,25.2l-7.1,1.5l-0.5-1.4L529.4,353.8z"/>
			<path class="st64" d="M916.5,368.9l-32.7-49.4l-27.7,23.1l43.6,47.5C913.2,402,934.6,392.1,916.5,368.9z"/>
			<path class="st65" d="M897.8,386.5c0.5-0.5,0.9-1,1.4-1.5c6.3-8.1,19.3-10.5,23.5-5.3c4.2,4,1.4,14.7-0.8,17.9
				c-1.8,2.6-3.8,5.1-5.9,7.5c-0.3,0.3-0.6,0.7-0.9,1c-4.4,4.8-8.2,8.9-11.4,12.1s-8.5,8.6-15.8,15.9c-7.3,7.3-19.3,18.8-35.8,34.4
				c-2,2.2-5.2,2.7-7.8,1.2c-2.9-1.4-3.5-3.6-1.9-6.4l45.4-64.2c0.5-0.8,1.1-1.6,1.7-2.4c1.8-2.4,3.5-4.5,5.1-6.5
				C895.7,388.9,896.8,387.7,897.8,386.5z"/>
			<path class="st65" d="M837,477.2c0.2-2.1,0.6-4.2,1.2-6.2c0.8-2.8,2-5.4,3.5-7.9l0.9-1c0.8-0.7,1.8-1,2.8-1c1.1-0.1,2.2,0.3,3,1
				c0.5,0.5,0.9,1.1,1.3,1.8c0.1,0.2,0.9,3,2.4,8.6c0.7,2.6,1.2,4.7,1.7,6.4c0.5,2,0.8,3.3,1,4c0.3,1.4,0.5,2.8,0.5,4.2
				c0,0.2,0,0.4,0,0.5l-1,6.9c0,0.2-0.1,0.4-0.2,0.6l-0.7,1.4l-3.9,5.4c-0.2-0.2-0.4-0.4-0.6-0.5l-1.5,2.2c-0.2-0.1-0.5-0.5-1.1-1.1
				l-1.7,2.3c-0.9,0-1.6-0.8-1.6-1.6c0,0,0,0,0,0c0-0.4,0-0.9,0.1-1.3l-0.9,1.3c-0.7-0.6-1.3-1.3-1.6-2.2c-0.5-1.1,0-2.6,1.3-4.4
				c0.6-0.8,1-1.5,1.3-1.9c0.1-1.5,0.3-3.6,0.5-6.3c0-0.5-0.1-1-0.3-1.5c-1.4-2.8-2.3-2.2-2.6,1.9c-0.7,5.3-2.5,7.5-5.4,6.4
				l-0.1,0.1C835.5,492.1,836.1,486.2,837,477.2z"/>
			<path class="st13" d="M881.3,907.3l-0.1-0.2c1.4-2,2.6,1.6,3.6,10.7c0,0.4,0.1,0.9,0.1,1.3h-20c-0.1-0.4-0.2-0.9-0.2-1.3
				c-0.1-2.4,1.5-4.5,4.7-6.2c0,0,0-0.1,0-0.1c0.2-0.8,0.4-1.7,0.5-2.5c0.2-1.1,0.7-2.2,1.5-3.1c0.9-1.3,2.2-2.1,3.8-2.2
				c1.4,0,2.8,0.4,3.8,1.3C880,905.5,880.8,906.3,881.3,907.3z M741.2,906.4l-0.2,0.5c3-0.9,5.7-2.4,8.2-4.2c1.8-1.3,3.3,0.3,4.5,5
				c0.8,3.3,1.4,6.7,1.7,10.2c0,0.1,0,0.3,0,0.4c0,0.2,0,0.4,0,0.6l-41.9,0.6c0.1-0.4,0.2-0.8,0.3-1.2c0-0.1,0.1-0.3,0.2-0.4
				c1.8-4.2,7.7-6.2,17.5-5.9L741.2,906.4z"/>
			<path class="st13" d="M744.8,441.5c5.3-2.9,11.2-4.6,17.2-4.9l13.2,248c1.6,39.3,1.7,63.7,0.2,73.2c-1.5,9.4-2.4,15.2-2.8,17.3
				c-0.2,1.8-4.4,31.3-12.6,88.7c-1.9,13.1-3.9,27.6-6.2,43.6h-15.1l-3.8-224.8l-0.1-222.1C735.5,451,738.9,444.6,744.8,441.5z"/>
			<path class="st13" d="M762,436.6c23.4-2.8,49.1,24.4,48.9,51.1l-34.8,211.6C752.8,625.2,747.5,527.8,762,436.6z"/>
			<path class="st13" d="M734.9,464.2c-0.5-15.6,2.3-34.8,8.3-57.7l93.3,5.9c3,30.3,3.9,53.3,2.7,69.1c-0.9,15.9-19.7,21-56.5,15.2
				C753.1,491.9,737.2,481.1,734.9,464.2z M768.7,427.5l0.2,8.7L768.7,427.5z M767,449.4c0.1,6.4,0.3,11.2,0.5,14.4
				c0.4,8.3,2,16.5,4.9,24.3c-2.9-7.8-4.5-16-4.9-24.3C767.3,460.6,767.1,455.8,767,449.4z M754.1,430.8l-9.7,23.9L754.1,430.8z
				 M802.4,434l23.8,26L802.4,434z"/>
			<path class="st66" d="M768.7,427.5l0.2,8.7 M754.1,430.8l-9.7,23.9 M802.4,434l23.8,26"/>
			<path class="st13" d="M771.7,469.5c-0.6-7.3,0.2-12.8,2.5-16.5c4.1-7.2,11.7-11.9,22.6-14.1c3.3-0.7,6.8-1.1,10.2-1.1
				c6.5,0,22.2,18.5,26.9,21.5c7.1,4.5,12.7,37.4,8.9,69L866,702c1.7,13.6,5.5,32.6,11.3,57c0.1,1.3,0.3,2.8,0.5,4.4
				s0.4,3.4,0.6,5.3c1.5,16,2.8,42,3.9,78.2c0.2,5.8,0.3,11.5,0.5,17.1c0.4,15.4,0.8,30.1,1,44l-13.5-0.1L777,494.6
				C774,484.6,772.3,476.2,771.7,469.5z"/>
			<path class="st21" d="M819.3,261.1c1.1,0.5,2.2,1,3.2,1.5c34.7,16.5,49.7,32.2,45,47.1c-15.3,49.6-24.6,100.9-27.7,152.7
				c-5.9,0-104.8,0.8-105.5-0.1c-2.6-30.8-6.9-69.2-8.6-95s-7.8-58-7-74.3c3.7-7.7,13-16.7,18.2-19.7c5.8-3.1,28.9-14.4,33.9-17
				l3-0.9c7.9,5,1.6,7.1,4.7,8.9c1.4,0.8,2.2,1.3,2.6,1.5c0,0,0,0,0.1-0.1v0.1l0,0v-0.1c13.5-5.6,11.8-6.4,19.6-12.8L819.3,261.1z
				 M779.3,269.1c-0.2,0.2-0.4,0.5-0.6,0.7l-8,10.2l-9.1-17.5l0,0l9.1,17.4l8-10.2C778.9,269.5,779.1,269.3,779.3,269.1l0.6-0.8l0,0
				l1-1.3v0.1l0,0v-0.1l9.5,13.3l25.9-17.5l-25.9,17.5l-9.4-13.4l-1,1.3l0,0L779.3,269.1z"/>
			<path class="st67" d="M780.9,267.1L780.9,267.1L780.9,267.1z M813.2,247.5c-0.2,0-0.2,0-0.1-0.2L813.2,247.5z"/>
			<polygon class="st68" points="780.9,267 780.9,267.1 780.9,267.1 			"/>
			<path class="st45" d="M659.3,318.3c-0.1,0-0.1-0.1-0.2-0.1l0.1,0.2L659.3,318.3z"/>
			<path class="st45" d="M842.2,499L842.2,499L842.2,499C842.3,499.1,842.3,499.1,842.2,499L842.2,499z M839.9,500.1
				C839.9,500.1,839.9,500.1,839.9,500.1L839.9,500.1L839.9,500.1z"/>
			<path class="st69" d="M875,390.8c0,0.9-0.2,1.7-0.5,2.5C874.6,392.5,874.8,391.6,875,390.8z"/>
			<path class="st70" d="M864.9,290.3c20.1,22.5,27.8,36.8,32.6,43.1c-2.9,2.3-27.7,23.6-29.8,25.2c-16.2-19.8-21.4-27.7-24.9-32.6
				c-1-1.4-3.7-6.1-8.2-14s-5-15-1.6-21.3c3.4-6.3,12-11.4,18.1-11.3C856.3,282.3,860.9,286,864.9,290.3z"/>
			<path class="st71" d="M779.5,147c-5.3-0.1-10.5,0.9-15.4,2.9C769,147.9,774.2,146.9,779.5,147c10.5,0,19.4,3.3,26.8,10
				c4.5,3.9,7.9,8.9,9.7,14.6c-1.8-5.7-5.2-10.7-9.7-14.6C798.9,150.3,790,147,779.5,147z"/>
			<path class="st72" d="M816,171.6c-1.8-5.7-5.2-10.7-9.7-14.6c-7.4-6.7-16.3-10-26.8-10c-5.3-0.1-10.5,0.9-15.4,2.9"/>
			<path class="st64" d="M796.3,206c4.8,31.1,5.4,37,8,48.1l14.2,6.7c1.8,10.2-51.6,14-63.1,2.6l13-5.6l-1.1-27.9L796.3,206z"/>
			<path class="st65" d="M753.8,140.9c-8.3,2.8-14.9,9.4-15.8,19.2c-1.3,13.5-2.7,21.1-1.1,33c-0.6,5.9-1.9,11.7-3.9,17.3
				c-4.3,2.6-1.7,8,5.4,6.7c1.9,4.6,3.5,9.2,6.5,14.9c5.7,11,10,12.7,16.8,13c14.3,0.5,28-14.9,30.9-22.5
				c3.8-10.1-1.2-28.4,8.1-53.6c6-16.3-2.2-27-15.9-29.5C774.5,137.1,763.8,137.6,753.8,140.9z"/>
			<path class="st65" d="M776.3,208.7c12.8-13.6,1.8-28.1-7-16.8h-0.2l-1.6,19.1l0.5,0.1C770.5,212.4,774.9,210.2,776.3,208.7z"/>
			<path class="st73" d="M741.4,202.5c-0.8,1.2-2,2-3.4,2.1c-3.3,0.3-6.3-3.6-6.8-8.7s1.8-9.5,5.1-9.7"/>
			<path class="st74" d="M795.6,202.4l-13.2-5.2c0.5,26-4.2,44.1-15,46.7l0.8,7.3c9.7-1.7,22.2-10.8,26-22.1l5.2,40.4
				c11.1-1,19.4-4.5,19.3-8.6l-14.2-6.6L795.6,202.4z"/>
			<path class="st46" d="M781.7,206.5c3.8,3.3,18.6,13.9,17,13.9c14.4-21.9,20.2-79.4,0.6-86.4c-3.9-1.4-8-2.4-12.1-3
				c-6.7-0.9-12.8,0-18.6,1.2c-17,3.5-29.6,14.2-30.5,29c0.1,5.3,5.9,6.9,16.2,7.1c8.7-2.7,8.6,11.3,4.7,22.1
				c-3,11.1,6.5,12,6.8,12.9c0.2-0.5,0.2-10.3,0.2-10.3C768.1,184,783.8,181.6,781.7,206.5z"/>
			<path class="st46" d="M766,132.1c-7.5,1.8-20.9,5.3-27,3.6c0.5,2.6,2.9,5.2,5.1,6.6c-4.3,0-8.6-1-12.4-3.1
				c-1.1,6.2,2.7,9.6,6.6,11.6c-2.8,0.8-6.3,0.2-10.2-2.6c0.4,13.5,10.4,23.9,33.5,20.5L766,132.1z"/>
			<path class="st46" d="M764.9,132.4c48.4-12.9,64.8,21.6,54,44.9c-8.5,25.4,10.4,31.7-0.6,47.5c-3.8,6.3-5.7,16.4,3.3,19.7
				c-3.8,12.2-21.5,10-26.2,6.5c-11.7-4.7-14.8-20.8-13.6-44.6l20.5-43.8l-37-29.3L764.9,132.4z"/>
			<path class="st47" d="M820.8,153.5c2.2,8.3,1.1,16-2.2,24.6c-2.4,6.9-2.6,14.4-0.4,22.7c5.7,12.6,4.8,18.8-3.2,29.2
				c6.3-15.4,3.5-21.2,0.4-28c-3-7.4-2.7-16.7,0.7-25.1C819.8,168.1,820.8,162.9,820.8,153.5z"/>
			<path class="st75" d="M761.2,462.7l0.5-171.9c15.7-2.5,65.4-9.4,98.5-4.9c3.7,3.5,7.2,7.2,10.5,11.1l-30.1,165.8H761.2z"/>
			<path class="st64" d="M681.3,356.7l-22.4,32.6l-74.7-30.3l-15-21l-12.5-2.1l-14.2,8.7l-4.4,15.2c0.5,0.9,1.5,1.1,3.1,0.6l7.2-5
				l4.8,0.1l10.8,15.9c4,3,7.9,4.6,11.2,4.3l65.3,43c12.1,8.2,24.9,11.2,34.4-1.2l31.6-38L681.3,356.7z"/>
			<path class="st76" d="M723.4,285.8l-49.8,72.9l35.4,29.3l49-58.6C754.2,297.5,738.5,287.2,723.4,285.8z"/>
			<path class="st16" d="M759.3,169c14.5-1.8,25.1,8,23.4,24.2c-0.1-9.3-15.8-13.5-18.1-1.1c-0.1,6.5,0.1,9.4,0.1,10.4
				c-5.8-1.8-7.5-6.6-5.8-12.9C762.7,177.1,761.5,172.4,759.3,169z"/>
			<line class="st77" x1="731.7" y1="197.5" x2="764.5" y2="192.6"/>
			<path class="st75" d="M690.5,372.6l42.8-57.8c11-14.9,20.6-22.9,28.7-24l28.1,29.9l-25.8,5.5l-55.3,62L690.5,372.6z"/>
			<polygon class="st78" points="869.4,357.4 894.4,335.8 896.8,339.6 876.8,357.8 904.7,389.8 891.5,393.8 897.1,387.2 			"/>
			<path class="st78" d="M677.6,361.9l25.8,21.6l-27.8,33.4c-9.8,13.4-22.7,10.7-34.5,2.6c12.8,5.2,22.5,5.8,31.9-4.9l23.7-30.1
				l-21.5-19.1L677.6,361.9z"/>
			<path class="st79" d="M548,341.6l-13.2,5.5c-0.1,1.8,1.1,2.6,3.4,2.4l3.3-1.2l1-3L548,341.6z"/>
			<polygon class="st78" points="658.9,389.4 652.9,398.1 653.3,387.2 			"/>
			<path class="st75" d="M524.4,360.5c-21.5,5.3-21.6,44.4,6.8,36.2c20.4-8.2,15.1-30.8-1.4-31.5l0.4-1.4c19.3,0.1,25.5,27,1.9,35.5
				c-32.5,9.5-36.4-33.2-8.2-40.1L524.4,360.5z"/>
		</g>
	</g>
</g>
<line class="st0" x1="1249.9" y1="435.5" x2="1240.6" y2="439.9"/>
<path class="st38" d="M1212.7,486.7"/>
<path class="st38" d="M1249.9,435.5l-9.3,4.4c1.3-24.6-21.7-37.1-9.3-59l55.5,6.4l-5.5,2.9l0.9,27.1l-8.3-2.1l-3.3-9.8
	c-8.4-8.1-16.4,10.4-5.4,22.9L1249.9,435.5"/>
</svg>
