<?xml version="1.0" encoding="UTF-8"?>
<svg xmlns="http://www.w3.org/2000/svg" xmlns:xlink="http://www.w3.org/1999/xlink" viewBox="0 0 1920 1920">
  <defs>
    <style>
      .cls-1, .cls-2, .cls-3, .cls-4, .cls-5, .cls-6 {
        fill: none;
      }

      .cls-7, .cls-8 {
        opacity: .07;
      }

      .cls-7, .cls-9 {
        fill: #181919;
      }

      .cls-10 {
        clip-path: url(#clippath);
      }

      .cls-11 {
        letter-spacing: -.02em;
      }

      .cls-12 {
        opacity: .05;
      }

      .cls-13, .cls-2 {
        opacity: .1;
      }

      .cls-14 {
        fill: #00464f;
      }

      .cls-15 {
        fill: #008296;
      }

      .cls-16 {
        fill: #ebf8fa;
      }

      .cls-17 {
        fill: #eaeded;
      }

      .cls-18 {
        fill: #f4f4f4;
      }

      .cls-19, .cls-20 {
        fill: #fff;
      }

      .cls-21 {
        fill: #f5c09e;
      }

      .cls-22 {
        fill: #fff5e8;
      }

      .cls-23 {
        fill: #f2d381;
      }

      .cls-24 {
        fill: #feebb7;
      }

      .cls-25 {
        fill: #e6bf9c;
      }

      .cls-26 {
        fill: #edca74;
      }

      .cls-27 {
        fill: #fce9b5;
      }

      .cls-28 {
        fill: #f0d283;
      }

      .cls-29 {
        fill: #f0d0b3;
      }

      .cls-30 {
        fill: #6c7778;
      }

      .cls-31 {
        fill: #97c4c9;
      }

      .cls-32 {
        fill: #9f916d;
      }

      .cls-33 {
        fill: #874c2b;
      }

      .cls-34 {
        fill: #cead2d;
      }

      .cls-35 {
        fill: #cdd3d3;
      }

      .cls-36 {
        fill: #abb6b8;
      }

      .cls-37 {
        fill: #ddaa8e;
      }

      .cls-38 {
        fill: #c49f7e;
      }

      .cls-39 {
        fill: #e0a614;
      }

      .cls-40 {
        fill: #dbb288;
      }

      .cls-41 {
        fill: #e0e2e2;
      }

      .cls-42 {
        fill: #d5dbdb;
      }

      .cls-43, .cls-44 {
        fill: #244952;
      }

      .cls-45 {
        fill: #0e2e36;
      }

      .cls-46, .cls-47, .cls-48 {
        fill: #0e2e35;
      }

      .cls-49 {
        fill: #3f4646;
      }

      .cls-50, .cls-51 {
        fill: #86bfc5;
      }

      .cls-52 {
        fill: #2d2d2d;
      }

      .cls-53 {
        fill: #377d89;
      }

      .cls-54 {
        fill: #311c0f;
      }

      .cls-55 {
        fill: #82d8e3;
      }

      .cls-56 {
        fill: #77412a;
      }

      .cls-57 {
        fill: #798687;
      }

      .cls-58 {
        fill: rgba(101, 109, 114, .5);
      }

      .cls-59 {
        fill: rgba(172, 182, 184, .38);
      }

      .cls-60 {
        fill: rgba(172, 182, 184, .3);
      }

      .cls-61 {
        fill: rgba(108, 119, 120, .25);
      }

      .cls-62 {
        letter-spacing: .04em;
      }

      .cls-44 {
        font-family: AmazonEmber-Bold, 'Amazon Ember';
        font-size: 35.18px;
        opacity: .75;
      }

      .cls-2 {
        stroke-width: 35px;
      }

      .cls-2, .cls-3 {
        stroke-linecap: round;
        stroke-linejoin: round;
      }

      .cls-2, .cls-5 {
        stroke: #fff;
      }

      .cls-3 {
        stroke: #0f2e35;
        stroke-width: 1px;
      }

      .cls-4 {
        stroke: #eaeaea;
      }

      .cls-4, .cls-5, .cls-6 {
        stroke-miterlimit: 10;
      }

      .cls-63 {
        opacity: .15;
      }

      .cls-64 {
        opacity: .28;
      }

      .cls-65 {
        opacity: .4;
      }

      .cls-66 {
        opacity: .54;
      }

      .cls-67, .cls-47 {
        opacity: .5;
      }

      .cls-20 {
        fill-rule: evenodd;
      }

      .cls-68 {
        letter-spacing: 0em;
      }

      .cls-6 {
        stroke: #cdd3d3;
        stroke-width: 9px;
      }

      .cls-51 {
        opacity: .68;
      }

      .cls-48 {
        opacity: .25;
      }
    </style>
    <clipPath id="clippath">
      <circle class="cls-1" cx="1490.88" cy="588.94" r="11.83"/>
    </clipPath>
  </defs>
  <g id="Layer_7" data-name="Layer 7" class="cls-64">
    <path class="cls-51" d="M170,810.75c-99.42,403.09,320.36,505.01,763.79,613.86,443.43,108.85,742.86,6.27,812.64-252.45,102.38-379.56-194.17-983.12-858.28-741.97-361.93,131.43-638.09,55.92-718.16,380.56Z"/>
  </g>
  <g id="Layer_41" data-name="Layer 41">
    <g>
      <polygon class="cls-35" points="1129.13 1484.95 1115.19 1484.95 1021.84 683.92 1035.78 683.92 1129.13 1484.95"/>
      <polygon class="cls-35" points="1262.75 1484.93 1248.81 1484.93 1155.46 683.9 1169.4 683.9 1262.75 1484.93"/>
      <polygon points="1131.12 1484.95 1113.2 1484.95 1111.73 1472.38 1129.66 1472.37 1131.12 1484.95"/>
      <polygon points="1264.74 1484.93 1246.81 1484.93 1245.35 1472.36 1263.28 1472.36 1264.74 1484.93"/>
      <polygon class="cls-35" points="1243.9 1428.88 1122.75 1428.9 1121.58 1418.86 1242.73 1418.84 1243.9 1428.88"/>
      <polygon class="cls-35" points="1235.53 1357.04 1114.38 1357.06 1113.21 1347.02 1234.36 1347 1235.53 1357.04"/>
      <polygon class="cls-35" points="1227.27 1286.21 1106.13 1286.22 1104.96 1276.18 1226.1 1276.17 1227.27 1286.21"/>
      <polygon class="cls-35" points="1218.79 1213.36 1097.64 1213.38 1096.47 1203.34 1217.62 1203.32 1218.79 1213.36"/>
      <polygon class="cls-35" points="1210.41 1141.52 1089.26 1141.54 1088.09 1131.5 1209.24 1131.48 1210.41 1141.52"/>
      <polygon class="cls-35" points="1202.16 1070.68 1081.01 1070.7 1079.84 1060.66 1200.99 1060.64 1202.16 1070.68"/>
      <polygon class="cls-35" points="1194.09 1001.43 1072.94 1001.45 1071.77 991.41 1192.92 991.39 1194.09 1001.43"/>
      <polygon class="cls-35" points="1185.72 929.59 1064.57 929.61 1063.4 919.57 1184.55 919.55 1185.72 929.59"/>
      <polygon class="cls-35" points="1177.46 858.75 1056.31 858.77 1055.14 848.73 1176.29 848.71 1177.46 858.75"/>
      <polygon class="cls-35" points="1168.97 785.91 1047.82 785.92 1046.65 775.88 1167.8 775.87 1168.97 785.91"/>
      <polygon class="cls-35" points="1160.6 714.07 1039.45 714.08 1038.28 704.04 1159.43 704.03 1160.6 714.07"/>
    </g>
    <g class="cls-8">
      <polygon class="cls-9" points="1129.23 1484.44 1115.29 1484.44 1076.01 1512.18 1089.95 1512.18 1129.23 1484.44"/>
      <polygon class="cls-9" points="1262.85 1484.44 1248.91 1484.44 1208.66 1512.69 1222.6 1512.69 1262.85 1484.44"/>
      <polygon class="cls-9" points="1131.22 1484.44 1113.3 1484.44 1110.89 1486.06 1128.82 1486.06 1131.22 1484.44"/>
      <polygon class="cls-9" points="1264.84 1484.44 1246.91 1484.44 1244.51 1486.06 1262.44 1486.06 1264.84 1484.44"/>
      <polygon class="cls-9" points="1239.82 1491.67 1118.67 1491.66 1110.39 1496.95 1231.54 1496.95 1239.82 1491.67"/>
      <polygon class="cls-9" points="1222.29 1503.77 1101.14 1503.77 1093.15 1508.64 1214.3 1508.65 1222.29 1503.77"/>
    </g>
  </g>
  <g id="Layer_29" data-name="Layer 29">
    <g id="Layer2_0_MEMBER_0_MEMBER_0_MEMBER_0_FILL" data-name="Layer2 0 MEMBER 0 MEMBER 0 MEMBER 0 FILL">
      <path class="cls-39" d="M1068.21,358.27c5.15-16.38-.73-28.1-17.65-35.18-.5-16.29-33.36-21.83-56.14-12.13-15.99,7.27-36.83,28.11-24.72,52.34,9.42,15.03,.83,26.57-14.62,40.88-15.45,14.28-18.14,25.58-8.07,33.88,10.05,8.33,6.98,21-9.22,38.02-16.19,17.05-18.34,32.37-6.47,45.95,11.89,13.61,29.58,20.72,53.07,21.33,23.51,.64,45.44-4.76,65.79-16.18,20.36-11.41,46.72-26.99,39.72-67.43-2.91-17.45-22.29-24.23-11.74-36.52,6.37-7.32,7.18-14.3,2.43-20.93-4.81-6.71-8.98-12.84-12.51-18.39-3.59-5.61-3.55-14.15,.13-25.63Z"/>
    </g>
    <g id="Layer2_3_MEMBER_0_MEMBER_0_MEMBER_1_FILL" data-name="Layer2 3 MEMBER 0 MEMBER 0 MEMBER 1 FILL">
      <path class="cls-21" d="M949.19,534.96c-5.56-4.02-2.96-15.07,1.39-19.88,54.31-72.3,71.59-67.21,75.78-66.96,1.71-.04,15.89,13.87,16.79,14.59l-58.06,50.5-17.01,16.68c-7.02,7.13-14.58,8.05-18.89,5.07Z"/>
    </g>
    <g id="Layer2_5_MEMBER_0_MEMBER_0_MEMBER_1_FILL" data-name="Layer2 5 MEMBER 0 MEMBER 0 MEMBER 1 FILL">
      <path class="cls-19" d="M1093.61,491.8h0c-8.95,51.84-.73,53.42,.26,84.81-26.45,5.6-51.23,4.52-74.37-3.25l-4.74-38.63c-42.75-7.41-26.57-33.02-16.81-56.2,7.41-17.59,11.72-26.23,11.72-26.23,0,0,8.19-2.51,21.91-12.96,1.3,.08,3.88-3.77,5.33-3.89,4.4,1.16-4.3-2.42-.17-1.38,22.75,13.69,51.21,13.15,57.79,22.86,3.79,6.89,5.55,15.43-.93,34.87Z"/>
    </g>
    <g id="Layer2_6_MEMBER_0_MEMBER_0_MEMBER_0_FILL" data-name="Layer2 6 MEMBER 0 MEMBER 0 MEMBER 0 FILL">
      <path class="cls-21" d="M1025.12,443.97c.37-4.48,4.75-51.3,4.94-56.17,7.16-11.76,13.3-18.92,20.46-10.74,1.66,7.05-3.58,46.54,.84,63.78,23.44,56.5-87.68,76.85-26.23,3.12Z"/>
    </g>
    <g class="cls-66">
      <g id="Layer2_6_MEMBER_0_MEMBER_0_MEMBER_0_FILL-2" data-name="Layer2 6 MEMBER 0 MEMBER 0 MEMBER 0 FILL">
        <path class="cls-37" d="M1026.47,429.04c1.42-15.59,3.46-37.95,3.59-41.23,7.16-11.76,13.3-18.92,20.46-10.74,.81,3.44-.43,26.33-.58,27.15-4,22.77-23.47,24.82-23.47,24.82Z"/>
      </g>
    </g>
    <g id="Layer2_7_MEMBER_0_MEMBER_0_MEMBER_0_FILL" data-name="Layer2 7 MEMBER 0 MEMBER 0 MEMBER 0 FILL">
      <path class="cls-21" d="M985.92,338.11c6.19-13.27,18.79-17.45,37.81-12.53,19.03,4.92,28.84,14.58,29.42,28.95,.56,14.43,.03,25.79-1.58,34.1-1.65,8.38-6.37,15.65-14.18,21.82-7.85,6.19-14.79,8.71-20.85,7.54-6.05-1.17-12.76-4.33-20.14-9.46-7.4-5.14-12.54-14.84-15.4-29.09-2.9-14.24-1.26-28.02,4.92-41.33Z"/>
    </g>
    <g id="Layer2_8_MEMBER_0_MEMBER_0_MEMBER_0_FILL" data-name="Layer2 8 MEMBER 0 MEMBER 0 MEMBER 0 FILL">
      <path class="cls-39" d="M1030.33,311.25c-19.84-3.19-35.24,.57-46.21,11.3-10.53,7.14-12.16,29.43-6.18,54.81,21.81-6.3,32.74-22.88,41.2-38.29,2.91,22.78,26.17,27.14,39.26,43.14-3.09-22.68-8.37-67.79-28.07-70.96Z"/>
    </g>
    <g id="Layer2_4_MEMBER_0_MEMBER_0_MEMBER_0_FILL" data-name="Layer2 4 MEMBER 0 MEMBER 0 MEMBER 0 FILL">
      <path class="cls-21" d="M950.7,533.82c-2.73,.26-6.31,.57-10.72,.92-5.61,.42-14.6,.59-26.98,.52-12.18-.16-28.5-.62-48.95-1.38-9.57-.33-14.89-2.51-15.96-6.54-.03-3.92,7.14-6.49,21.51-7.7,7.98-.68,16.23-1.57,24.75-2.66,12.33-1.61,30.35-4.08,33.57-4.48,19.12-2.03,32.98,.66,38.54,10.48,2.26,4.37-2.14,8.35-15.76,10.82Z"/>
    </g>
    <g id="Layer14_0_MEMBER_0_MEMBER_0_MEMBER_0_FILL" data-name="Layer14 0 MEMBER 0 MEMBER 0 MEMBER 0 FILL">
      <path class="cls-21" d="M847.68,534.74c-10.04,2.56-25.77-1.36-25.77-1.36-3.14,5.12-6.43,7.58-9.88,7.38l1.29-3.43c-.77,1.58-2.28,2.11-4.53,1.59l8.43-15.03,20.39-7.54,8.29,1.92c15.71,4.29,14.76,7.04,12.03,10.19-3.1,3.61-9.38,5.9-10.26,6.28Z"/>
    </g>
  </g>
  <g id="Layer_4" data-name="Layer 4">
    <polygon class="cls-7" points="385.9 1525.15 349.91 1510.57 1566.62 1516.24 1552.23 1527.58 385.9 1525.15"/>
    <polygon class="cls-7" points="568.06 1568.8 488.17 1608.19 730.3 1605.8 792.63 1568.8 568.06 1568.8"/>
    <path class="cls-7" d="M1412.14,1584.58c-1.72,12.68,111.93,10.96,184.18,11.27,99.64,.43,130.7-20.26,72.29-25.35-5.08-.44-79.22-5.63-151.47-5.63s-103.28,7.04-105,19.72Z"/>
  </g>
  <g id="Layer_44" data-name="Layer 44">
    <g id="Layer19_1_MEMBER_0_MEMBER_0_MEMBER_0_FILL" data-name="Layer19 1 MEMBER 0 MEMBER 0 MEMBER 0 FILL">
      <path class="cls-19" d="M1571.87,1353.16V562.26c0-9.57-7.76-17.34-17.34-17.34H356.44c-9.57,0-17.34,7.76-17.34,17.34v790.9c0,9.57,7.76,17.34,17.34,17.34H1554.53c9.57,0,17.34-7.76,17.34-17.34Z"/>
    </g>
    <path class="cls-59" d="M1556.22,747.88H368.76v-1.28H1556.22v1.28Z"/>
    <g class="cls-65">
      <path class="cls-43" d="M778.89,728.32h-107.4c-1.48,0-2.68-1.2-2.68-2.68h0c0-1.48,1.2-2.68,2.68-2.68h107.4c1.48,0,2.68,1.2,2.68,2.68h0c0,1.48-1.2,2.68-2.68,2.68Zm-128.05,0h-69.81c-1.48,0-2.68-1.2-2.68-2.68h0c0-1.48,1.2-2.68,2.68-2.68h69.81c1.48,0,2.68,1.2,2.68,2.68h0c0,1.48-1.2,2.68-2.68,2.68Zm-94.28,0h-55.16c-1.48,0-2.68-1.2-2.68-2.68h0c0-1.48,1.2-2.68,2.68-2.68h55.16c1.48,0,2.68,1.2,2.68,2.68h0c0,1.48-1.2,2.68-2.68,2.68Zm-73.26,0h-55.16c-1.48,0-2.68-1.2-2.68-2.68h0c0-1.48,1.2-2.68,2.68-2.68h55.16c1.48,0,2.68,1.2,2.68,2.68h0c0,1.48-1.2,2.68-2.68,2.68Z"/>
      <path class="cls-43" d="M408.77,728.32h-36.68c-1.48,0-2.68-1.2-2.68-2.68h0c0-1.48,1.2-2.68,2.68-2.68h36.68c1.48,0,2.68,1.2,2.68,2.68h0c0,1.48-1.2,2.68-2.68,2.68Z"/>
    </g>
    <text class="cls-44" transform="translate(369.84 688.33)"><tspan x="0" y="0">I</tspan><tspan class="cls-11" x="11.19" y="0">n</tspan><tspan class="cls-68" x="32.01" y="0">v</tspan><tspan x="50.44" y="0">ento</tspan><tspan class="cls-62" x="125.75" y="0">r</tspan><tspan x="141.41" y="0">y</tspan></text>
    <g id="Layer19_1_MEMBER_0_MEMBER_0_MEMBER_0_FILL-2" data-name="Layer19 1 MEMBER 0 MEMBER 0 MEMBER 0 FILL">
      <path class="cls-46" d="M1571.87,632.26v-70c0-9.57-7.76-17.34-17.34-17.34H356.44c-9.57,0-17.34,7.76-17.34,17.34v70H1571.87Z"/>
    </g>
    <g id="b">
      <g id="c">
        <g>
          <path class="cls-20" d="M444.77,601.73c-6.15,2.61-12.84,3.87-18.92,3.87-9.02,0-17.75-2.48-24.8-6.58-.62-.36-1.07,.27-.56,.74,6.54,5.91,15.19,9.46,24.79,9.46,6.85,0,14.81-2.15,20.29-6.2,.91-.67,.13-1.67-.8-1.28Z"/>
          <path class="cls-20" d="M441.31,599.46c-.48,.34-.4,.81,.13,.74,1.77-.21,5.71-.68,6.41,.21s-.78,4.6-1.44,6.26c-.2,.5,.23,.7,.68,.33,2.95-2.46,3.7-7.62,3.1-8.37-.6-.74-5.75-1.37-8.88,.83h0Z"/>
          <path class="cls-20" d="M452.05,593.19c-1.68-.94-3.64-1.22-5.48-1.18l4.98-7.1c.46-.64,.72-1.04,.72-1.35v-1.84c0-.32-.25-.54-.56-.54h-9.61c-.29,0-.54,.22-.55,.55v2.14c0,.32,.25,.54,.56,.54h5.02l-5.77,8.28c-.35,.53-.36,1.12-.36,1.48v2.18c0,.32,.35,.67,.68,.5,3.27-1.74,7.2-1.57,10.15-.02,.36,.19,.71-.18,.71-.49v-2.29c-.03-.31-.13-.63-.51-.83h0Z"/>
          <path class="cls-20" d="M460.55,580.9c-4.23,0-6.58,3.63-6.58,8.3s2.32,8.37,6.58,8.37,6.68-3.63,6.68-8.21-2.35-8.46-6.68-8.46h0Zm0,13.58c-2.29,0-2.27-3.91-2.27-5.75s.13-4.77,2.29-4.77c.93,0,1.58,.41,1.91,1.45,.38,1.2,.44,2.72,.44,3.98,0,1.92-.11,5.08-2.37,5.08Z"/>
          <path class="cls-20" d="M428.41,588.13c-1.83,.79-3.12,2.41-3.12,4.78,0,3.04,1.91,4.55,4.37,4.55,2.08,0,3.21-.49,4.82-2.13,0,0,.68,1.18,1.67,1.95,.14,.11,.5,.11,.69-.07,0,0,1.65-1.43,2.25-1.94,.24-.19,.2-.51,.01-.78-.53-.74-1.1-1.34-1.1-2.71v-4.55c0-1.93,.13-3.7-1.28-5.03-1.12-1.07-2.98-1.45-4.4-1.45-2.78,0-5.89,1.04-6.54,4.47-.07,.36,.22,.59,.44,.61l2.8,.3c.25,.03,.49-.25,.55-.57,.21-1.13,1.26-1.73,2.34-1.72,.6,0,1.26,.24,1.64,.76,.5,.67,.35,2.5,.35,2.5-1.69,.19-3.91,.32-5.5,1.02h0Zm4.95,5.07c-.47,.82-1.2,1.33-2.03,1.33-1.12,0-1.78-.86-1.78-2.12,0-2.49,2.23-2.94,4.35-2.94v.63c0,1.14,.03,2.09-.55,3.1h0Z"/>
          <path class="cls-20" d="M400.79,594.51c-.53-.74-1.1-1.34-1.1-2.71v-4.55c0-1.93,.13-3.7-1.28-5.03-1.12-1.07-2.98-1.45-4.4-1.45-2.78,0-5.89,1.04-6.54,4.47-.07,.36,.22,.59,.44,.61l2.8,.3c.25,.03,.49-.25,.55-.57,.21-1.13,1.26-1.73,2.34-1.72,.6,0,1.26,.24,1.64,.76,.5,.67,.35,2.5,.35,2.5-1.69,.19-3.91,.32-5.5,1.02-1.83,.79-3.12,2.41-3.12,4.78,0,3.04,1.91,4.55,4.37,4.55,2.08,0,3.21-.49,4.82-2.13,0,0,.68,1.18,1.67,1.95,.14,.11,.5,.11,.69-.07,0,0,1.65-1.43,2.25-1.94,.24-.19,.2-.51,.01-.78h0Zm-5.75-1.31c-.47,.82-1.2,1.33-2.03,1.33-1.12,0-1.77-.86-1.77-2.12,0-2.49,2.23-2.94,4.35-2.94v.63c0,1.14,.03,2.09-.55,3.1Z"/>
          <path class="cls-20" d="M403.62,597.26h2.92c.3,0,.55-.25,.55-.55v-7.95c0-1.74-.08-4.14,2.02-4.14s1.8,2.46,1.8,4.14v7.95c0,.29,.24,.52,.53,.54h2.92c.31,0,.56-.24,.56-.54v-7.95c0-.86-.03-2.12,.27-2.87,.3-.76,1.04-1.23,1.75-1.23,.84,0,1.5,.28,1.72,1.29,.14,.6,.08,2.18,.08,2.81v7.95c0,.29,.23,.52,.52,.54h2.92c.31,0,.56-.24,.56-.54v-9.47c0-1.61,.19-3.44-.73-4.7-.82-1.14-2.15-1.64-3.38-1.64-1.72,0-3.33,.88-4.04,2.78-.82-1.89-1.97-2.78-3.8-2.78s-3.14,.88-3.85,2.78h-.05v-1.91c0-.3-.25-.55-.55-.55h-2.73c-.3,0-.55,.25-.55,.55v14.95c0,.3,.25,.55,.55,.55h0Z"/>
          <path class="cls-20" d="M480.66,582.67c-.82-1.29-2.1-1.77-3.41-1.77-2.02,0-3.16,.98-3.98,3.03h-.06v-2.29c0-.17-.23-.43-.55-.43h-2.7c-.3,0-.55,.25-.55,.55v14.95c0,.3,.25,.55,.55,.55h2.92c.3,0,.55-.25,.55-.55v-8.07c0-1.01,.06-1.95,.48-2.87,.27-.57,.9-1.18,1.68-1.18,.67,0,1.83,.09,1.83,3.12v9.07c.03,.26,.25,.45,.51,.47h2.93c.29,0,.53-.21,.56-.47v-9.44c0-1.45,0-3.47-.76-4.67Z"/>
        </g>
        <g>
          <path class="cls-19" d="M493.83,597.73c-1.77,0-3.36-.29-4.77-.89-.25-.11-.43-.22-.52-.35s-.14-.33-.14-.6v-.89c0-.38,.13-.57,.38-.57,.15,0,.41,.06,.79,.19,1.39,.44,2.83,.66,4.33,.66,1.03,0,1.82-.2,2.36-.6,.54-.4,.81-.98,.81-1.74,0-.51-.17-.92-.49-1.23s-.92-.63-1.79-.95l-2.69-1.01c-2.34-.87-3.51-2.34-3.51-4.43,0-1.37,.53-2.48,1.6-3.32,1.06-.84,2.46-1.27,4.19-1.27,1.37,0,2.71,.24,4.01,.73,.25,.09,.43,.2,.54,.33,.11,.14,.16,.34,.16,.61v.86c0,.38-.14,.57-.41,.57-.15,0-.39-.05-.73-.16-1.12-.34-2.26-.51-3.42-.51-2.03,0-3.04,.68-3.04,2.05,0,.55,.17,.98,.51,1.3,.34,.32,1,.66,1.99,1.04l2.46,.95c1.25,.49,2.14,1.06,2.69,1.72s.82,1.52,.82,2.58c0,1.5-.56,2.69-1.68,3.57-1.12,.89-2.6,1.33-4.46,1.33v.02Z"/>
          <path class="cls-19" d="M509.84,597.73c-2.57,0-4.52-.71-5.83-2.13-1.32-1.42-1.98-3.54-1.98-6.37,0-2.68,.67-4.76,2.03-6.24,1.35-1.49,3.24-2.23,5.69-2.23,1.85,0,3.3,.43,4.35,1.29,1.04,.87,1.57,2.07,1.57,3.6s-.57,2.68-1.71,3.48-2.79,1.2-4.93,1.2c-1.5,0-2.81-.2-3.95-.6,.04,1.94,.48,3.34,1.32,4.21,.83,.87,2.14,1.3,3.93,1.3,1.25,0,2.48-.21,3.7-.63,.25-.09,.44-.13,.57-.13,.27,0,.41,.19,.41,.57v.89c0,.27-.04,.47-.11,.58-.07,.12-.25,.24-.52,.36-.59,.27-1.29,.49-2.08,.63-.8,.15-1.61,.22-2.43,.22h0Zm-1.11-9.59c1.35,0,2.34-.2,2.96-.6s.94-1.03,.94-1.9-.27-1.45-.81-1.88c-.54-.43-1.3-.65-2.29-.65-2.68,0-4.15,1.49-4.43,4.46,1.14,.38,2.35,.57,3.64,.57h0Z"/>
          <path class="cls-19" d="M521.94,597.41c-1.12,0-1.97-.32-2.56-.96-.59-.64-.89-1.57-.89-2.77v-19.2c0-.42,.21-.63,.63-.63h1.87c.42,0,.63,.21,.63,.63v19c0,.49,.1,.84,.3,1.06s.53,.33,.99,.33c.13,0,.26-.01,.4-.03,.14-.02,.26-.03,.36-.03,.21,0,.35,.05,.43,.16,.07,.11,.11,.26,.11,.48v1.01c0,.21-.05,.37-.14,.49-.1,.12-.26,.2-.49,.27-.53,.13-1.07,.19-1.65,.19h.01Z"/>
          <path class="cls-19" d="M529.97,597.41c-1.12,0-1.97-.32-2.56-.96s-.89-1.57-.89-2.77v-19.2c0-.42,.21-.63,.63-.63h1.87c.42,0,.63,.21,.63,.63v19c0,.49,.1,.84,.3,1.06s.53,.33,.99,.33c.13,0,.26-.01,.4-.03,.14-.02,.26-.03,.36-.03,.21,0,.35,.05,.43,.16,.07,.11,.11,.26,.11,.48v1.01c0,.21-.05,.37-.14,.49-.1,.12-.26,.2-.49,.27-.53,.13-1.07,.19-1.65,.19h.01Z"/>
          <path class="cls-19" d="M541.62,597.73c-2.57,0-4.52-.71-5.83-2.13-1.32-1.42-1.98-3.54-1.98-6.37,0-2.68,.67-4.76,2.03-6.24,1.35-1.49,3.24-2.23,5.69-2.23,1.85,0,3.3,.43,4.35,1.29,1.04,.87,1.57,2.07,1.57,3.6s-.57,2.68-1.71,3.48-2.79,1.2-4.93,1.2c-1.5,0-2.81-.2-3.95-.6,.04,1.94,.48,3.34,1.32,4.21s2.14,1.3,3.93,1.3c1.25,0,2.48-.21,3.7-.63,.25-.09,.44-.13,.57-.13,.27,0,.41,.19,.41,.57v.89c0,.27-.04,.47-.11,.58-.07,.12-.25,.24-.52,.36-.59,.27-1.29,.49-2.08,.63-.8,.15-1.61,.22-2.43,.22h0Zm-1.11-9.59c1.35,0,2.34-.2,2.96-.6s.94-1.03,.94-1.9-.27-1.45-.81-1.88c-.54-.43-1.3-.65-2.29-.65-2.68,0-4.15,1.49-4.43,4.46,1.14,.38,2.35,.57,3.64,.57h0Z"/>
          <path class="cls-19" d="M550.97,597.25c-.42,0-.63-.21-.63-.63v-14.77c0-.42,.21-.63,.63-.63h1.39c.21,0,.37,.04,.49,.13s.19,.24,.24,.48l.22,1.77c.57-.61,1.11-1.1,1.61-1.45,.51-.36,1.03-.62,1.57-.79,.54-.17,1.11-.25,1.72-.25,.25,0,.51,.01,.76,.03,.36,.04,.54,.23,.54,.57v1.71c0,.38-.19,.57-.57,.57-.19,0-.37-.01-.56-.03-.18-.02-.37-.03-.58-.03-1.69,0-3.13,.51-4.33,1.52v11.19c0,.42-.21,.63-.63,.63h-1.87Z"/>
        </g>
        <g>
          <path class="cls-19" d="M574.31,597.61c-2.49,0-4.39-.71-5.71-2.13s-1.98-3.49-1.98-6.18,.68-4.75,2.04-6.21c1.36-1.46,3.28-2.2,5.77-2.2,1.14,0,2.26,.2,3.35,.6,.23,.09,.4,.19,.49,.32,.1,.13,.14,.34,.14,.63v.86c0,.42-.14,.63-.41,.63-.11,0-.27-.03-.51-.1-.87-.25-1.74-.38-2.62-.38-1.77,0-3.05,.45-3.83,1.34-.78,.9-1.17,2.33-1.17,4.29v.41c0,1.92,.4,3.33,1.19,4.22s2.04,1.34,3.75,1.34c.89,0,1.83-.15,2.84-.44,.23-.06,.39-.1,.48-.1,.27,0,.41,.21,.41,.63v.86c0,.27-.04,.48-.13,.6-.09,.13-.25,.24-.51,.35-1.03,.44-2.23,.66-3.6,.66h0Z"/>
          <path class="cls-19" d="M588.08,597.73c-2.57,0-4.52-.71-5.83-2.13-1.32-1.42-1.98-3.54-1.98-6.37,0-2.68,.67-4.76,2.03-6.24,1.35-1.49,3.24-2.23,5.69-2.23,1.85,0,3.3,.43,4.35,1.3,1.04,.87,1.57,2.07,1.57,3.6s-.57,2.68-1.71,3.48-2.79,1.2-4.93,1.2c-1.5,0-2.81-.2-3.95-.6,.04,1.94,.48,3.34,1.32,4.21s2.14,1.3,3.93,1.3c1.25,0,2.48-.21,3.7-.63,.25-.09,.44-.13,.57-.13,.27,0,.41,.19,.41,.57v.89c0,.27-.04,.47-.11,.58-.07,.12-.25,.24-.52,.36-.59,.27-1.29,.49-2.08,.63-.8,.15-1.61,.22-2.43,.22h0Zm-1.11-9.59c1.35,0,2.34-.2,2.96-.6s.94-1.03,.94-1.9-.27-1.45-.81-1.88c-.54-.43-1.3-.65-2.29-.65-2.68,0-4.15,1.49-4.43,4.46,1.14,.38,2.35,.57,3.64,.57h0Z"/>
          <path class="cls-19" d="M597.44,597.25c-.42,0-.63-.21-.63-.63v-14.77c0-.42,.21-.63,.63-.63h1.39c.21,0,.37,.04,.49,.13s.19,.24,.24,.48l.19,1.17c2-1.5,4.11-2.25,6.32-2.25,1.54,0,2.71,.41,3.51,1.22,.8,.81,1.2,1.99,1.2,3.53v11.13c0,.42-.21,.63-.63,.63h-1.87c-.42,0-.63-.21-.63-.63v-10.1c0-1.12-.22-1.94-.68-2.46-.45-.53-1.17-.79-2.13-.79-1.67,0-3.3,.54-4.9,1.61v11.73c0,.42-.21,.63-.63,.63h-1.87Z"/>
          <path class="cls-19" d="M620.18,597.48c-2.99,0-4.49-1.5-4.49-4.49v-9.3h-2.28c-.42,0-.63-.21-.63-.63v-.79c0-.21,.05-.37,.14-.48,.1-.11,.28-.18,.56-.22l2.31-.28,.41-3.92c.04-.42,.26-.63,.66-.63h1.33c.42,0,.63,.21,.63,.63v3.86h4.11c.42,0,.63,.21,.63,.63v1.2c0,.42-.21,.63-.63,.63h-4.11v9.14c0,.78,.18,1.33,.52,1.65,.35,.32,.94,.48,1.79,.48,.4,0,.9-.05,1.49-.16,.32-.06,.53-.1,.63-.1,.17,0,.28,.05,.35,.14s.1,.25,.1,.46v.86c0,.27-.04,.48-.13,.61-.09,.14-.25,.25-.51,.33-.82,.25-1.78,.38-2.88,.38h0Z"/>
          <path class="cls-19" d="M626.59,597.25c-.42,0-.63-.21-.63-.63v-14.77c0-.42,.21-.63,.63-.63h1.39c.21,0,.37,.04,.49,.13s.19,.24,.24,.48l.22,1.77c.57-.61,1.11-1.1,1.61-1.45,.51-.36,1.03-.62,1.57-.79,.54-.17,1.11-.25,1.72-.25,.25,0,.51,.01,.76,.03,.36,.04,.54,.23,.54,.57v1.71c0,.38-.19,.57-.57,.57-.19,0-.37-.01-.56-.03-.18-.02-.37-.03-.58-.03-1.69,0-3.13,.51-4.33,1.52v11.19c0,.42-.21,.63-.63,.63h-1.87Z"/>
          <path class="cls-19" d="M641.07,597.67c-1.5,0-2.69-.43-3.59-1.28-.9-.86-1.34-2-1.34-3.43,0-1.54,.55-2.77,1.65-3.68,1.1-.92,2.57-1.37,4.43-1.37,1.18,0,2.51,.18,3.98,.54v-2.08c0-1.14-.26-1.94-.78-2.41-.52-.47-1.4-.69-2.64-.69-1.45,0-2.88,.21-4.27,.63-.49,.15-.79,.22-.92,.22-.25,0-.38-.19-.38-.57v-.86c0-.27,.04-.48,.13-.6,.09-.13,.25-.24,.51-.35,.65-.29,1.48-.53,2.48-.71,1-.18,2-.27,2.99-.27,2,0,3.48,.42,4.43,1.25s1.42,2.1,1.42,3.81v10.81c0,.42-.21,.63-.63,.63h-1.36c-.4,0-.63-.2-.69-.6l-.16-1.04c-.76,.65-1.6,1.16-2.51,1.52-.92,.36-1.83,.54-2.74,.54h0Zm.76-2.38c.69,0,1.42-.14,2.18-.41,.76-.27,1.49-.67,2.18-1.2v-3.22c-1.14-.27-2.26-.41-3.35-.41-2.38,0-3.57,.92-3.57,2.75,0,.8,.22,1.42,.66,1.85,.44,.43,1.07,.65,1.9,.65h0Z"/>
          <path class="cls-19" d="M656.31,597.41c-1.12,0-1.97-.32-2.56-.96s-.89-1.57-.89-2.77v-19.2c0-.42,.21-.63,.63-.63h1.87c.42,0,.63,.21,.63,.63v19c0,.49,.1,.84,.3,1.06s.53,.33,.99,.33c.13,0,.26-.01,.4-.03,.14-.02,.26-.03,.36-.03,.21,0,.35,.05,.43,.16,.07,.11,.11,.26,.11,.48v1.01c0,.21-.05,.37-.14,.49-.1,.12-.26,.2-.49,.27-.53,.13-1.07,.19-1.65,.19h.01Z"/>
        </g>
      </g>
    </g>
    <line class="cls-2" x1="730.03" y1="588.2" x2="1385.58" y2="588.2"/>
    <g class="cls-67">
      <circle class="cls-5" cx="1379.33" cy="586.43" r="5.52"/>
      <line class="cls-5" x1="1389.12" y1="595.6" x2="1383.29" y2="589.76"/>
    </g>
    <g>
      <circle class="cls-19" cx="1453.19" cy="588.21" r="12.91"/>
      <g>
        <polygon class="cls-46" points="1462.79 589.74 1479 597.48 1478.44 578.46 1462.71 587.15 1462.79 589.74"/>
        <polygon class="cls-46" points="1443.85 587.71 1427.64 579.97 1428.2 598.99 1443.92 590.3 1443.85 587.71"/>
        <polygon class="cls-46" points="1459.31 581.32 1474.6 571.89 1458.32 562.06 1457.09 579.97 1459.31 581.32"/>
        <polygon class="cls-46" points="1447.33 596.13 1432.04 605.56 1448.32 615.39 1449.55 597.48 1447.33 596.13"/>
        <polygon class="cls-46" points="1449.52 579.99 1448.23 562.08 1431.98 571.96 1447.3 581.34 1449.52 579.99"/>
        <polygon class="cls-46" points="1457.12 597.46 1458.41 615.37 1474.65 605.48 1459.34 596.11 1457.12 597.46"/>
      </g>
      <circle class="cls-46" cx="1453.19" cy="588.21" r="4.08"/>
    </g>
    <g>
      <g class="cls-10">
        <g>
          <circle class="cls-19" cx="1490.88" cy="585.18" r="4.54"/>
          <circle class="cls-19" cx="1490.88" cy="601.26" r="9.1"/>
        </g>
      </g>
      <circle class="cls-5" cx="1490.88" cy="588.94" r="11.83"/>
    </g>
  </g>
  <g id="Layer_49" data-name="Layer 49">
    <path class="cls-4" d="M339.07,1224.32v130.69c0,9.16,7.43,16.59,16.59,16.59h364.87"/>
  </g>
  <g id="Layer_43" data-name="Layer 43">
    <g class="cls-12">
      <g id="Layer15_0_FILL" data-name="Layer15 0 FILL">
        <path class="cls-43" d="M1546.95,760.5H592.51c-7.19,0-13.02,5.83-13.02,13.02v571.89c0,7.19,5.83,13.02,13.02,13.02h954.45c7.19,0,13.02-5.83,13.02-13.02V773.52c0-7.19-5.83-13.02-13.02-13.02Z"/>
      </g>
    </g>
    <g class="cls-12">
      <g id="Layer15_0_FILL-2" data-name="Layer15 0 FILL">
        <path class="cls-43" d="M558.33,759.5h-176.58c-7.19,0-13.02,5.83-13.02,13.02v319.69c0,7.19,5.83,13.02,13.02,13.02h176.58c7.19,0,13.02-5.83,13.02-13.02v-319.69c0-7.19-5.83-13.02-13.02-13.02Z"/>
      </g>
    </g>
    <g class="cls-65">
      <path class="cls-43" d="M436.76,1075.8h-35.41c-1.06,0-1.92-.86-1.92-1.92h0c0-1.06,.86-1.92,1.92-1.92h35.41c1.06,0,1.92,.86,1.92,1.92h0c0,1.06-.86,1.92-1.92,1.92Zm55.74-9.81h-91.15c-1.06,0-1.92-.86-1.92-1.92h0c0-1.06,.86-1.92,1.92-1.92h91.15c1.06,0,1.92,.86,1.92,1.92h0c0,1.06-.86,1.92-1.92,1.92Zm-58-35.32h-33.15c-1.06,0-1.92-.86-1.92-1.92h0c0-1.06,.86-1.92,1.92-1.92h33.15c1.06,0,1.92,.86,1.92,1.92h0c0,1.06-.86,1.92-1.92,1.92Zm16.56-10.89h-49.71c-1.06,0-1.92-.86-1.92-1.92h0c0-1.06,.86-1.92,1.92-1.92h49.71c1.06,0,1.92,.86,1.92,1.92h0c0,1.06-.86,1.92-1.92,1.92Zm0-11.05h-49.71c-1.06,0-1.92-.86-1.92-1.92h0c0-1.06,.86-1.92,1.92-1.92h49.71c1.06,0,1.92,.86,1.92,1.92h0c0,1.06-.86,1.92-1.92,1.92Zm14.02-10.29h-63.72c-1.06,0-1.92-.86-1.92-1.92h0c0-1.06,.86-1.92,1.92-1.92h63.72c1.06,0,1.92,.86,1.92,1.92h0c0,1.06-.86,1.92-1.92,1.92Zm5.1-35.87h-68.82c-1.06,0-1.92-.86-1.92-1.92h0c0-1.06,.86-1.92,1.92-1.92h68.82c1.06,0,1.92,.86,1.92,1.92h0c0,1.06-.86,1.92-1.92,1.92Zm0-18.47h-68.82c-1.06,0-1.92-.86-1.92-1.92h0c0-1.06,.86-1.92,1.92-1.92h68.82c1.06,0,1.92,.86,1.92,1.92h0c0,1.06-.86,1.92-1.92,1.92Zm0-21.66h-68.82c-1.06,0-1.92-.86-1.92-1.92h0c0-1.06,.86-1.92,1.92-1.92h68.82c1.06,0,1.92,.86,1.92,1.92h0c0,1.06-.86,1.92-1.92,1.92Zm67.37-18.32h-136.19c-1.06,0-1.92-.86-1.92-1.92h0c0-1.06,.86-1.92,1.92-1.92h136.19c1.06,0,1.92,.86,1.92,1.92h0c0,1.06-.86,1.92-1.92,1.92Zm-81.38-20.32h-54.81c-1.06,0-1.92-.86-1.92-1.92h0c0-1.06,.86-1.92,1.92-1.92h54.81c1.06,0,1.92,.86,1.92,1.92h0c0,1.06-.86,1.92-1.92,1.92Zm43.86-20.32h-98.67c-1.06,0-1.92-.86-1.92-1.92h0c0-1.06,.86-1.92,1.92-1.92h98.67c1.06,0,1.92,.86,1.92,1.92h0c0,1.06-.86,1.92-1.92,1.92Zm-72.91-20.35h-25.76c-1.06,0-1.92-.86-1.92-1.92h0c0-1.06,.86-1.92,1.92-1.92h25.76c1.06,0,1.92,.86,1.92,1.92h0c0,1.06-.86,1.92-1.92,1.92Zm21.44-17.3h-47.19c-1.06,0-1.92-.86-1.92-1.92h0c0-1.06,.86-1.92,1.92-1.92h47.19c1.06,0,1.92,.86,1.92,1.92h0c0,1.06-.86,1.92-1.92,1.92Zm16.09-18.06h-63.28c-1.06,0-1.92-.86-1.92-1.92h0c0-1.06,.86-1.92,1.92-1.92h63.28c1.06,0,1.92,.86,1.92,1.92h0c0,1.06-.86,1.92-1.92,1.92Z"/>
      <rect class="cls-43" x="399.44" y="782.14" width="39.53" height="5.11" rx="1.92" ry="1.92"/>
    </g>
  </g>
  <g id="Layer_45" data-name="Layer 45">
    <g>
      <rect class="cls-19" x="589.69" y="875.54" width="951.25" height="108.81" rx="8.95" ry="8.95"/>
      <g>
        <g id="Layer3_0_FILL" data-name="Layer3 0 FILL">
          <path class="cls-58" d="M610.06,896.14v-7.01h-6.88v7.01h6.88Z"/>
          <path class="cls-48" d="M1430.38,918.79h83.37c2.72,0,4.93-2.25,4.93-5.02v-3.37c0-2.77-2.21-5.02-4.93-5.02h-83.37c-2.72,0-4.93,2.25-4.93,5.02v3.37c0,2.77,2.21,5.02,4.93,5.02Zm-4.93-26.54v3.37c0,2.77,2.21,5.02,4.93,5.02h83.37c2.72,0,4.93-2.25,4.93-5.02v-3.37c0-2.77-2.21-5.02-4.93-5.02h-83.37c-2.72,0-4.93,2.25-4.93,5.02Z"/>
          <path class="cls-18" d="M1429.89,955.1h84.35c2.45,0,4.44-2.03,4.44-4.52v-4.36c0-2.5-1.99-4.52-4.44-4.52h-84.35c-2.45,0-4.44,2.03-4.44,4.52v4.36c0,2.5,1.99,4.52,4.44,4.52Zm-4.44-27.04v4.36c0,2.5,1.99,4.52,4.44,4.52h84.35c2.45,0,4.44-2.03,4.44-4.52v-4.36c0-2.5-1.99-4.52-4.44-4.52h-84.35c-2.45,0-4.44,2.03-4.44,4.52Z"/>
        </g>
        <path class="cls-60" d="M1515.09,973.89h-86.05c-2.33,0-4.22-1.92-4.22-4.3v-6.1c0-2.37,1.89-4.3,4.22-4.3h86.05c2.33,0,4.22,1.92,4.22,4.3v6.1c0,2.37-1.89,4.3-4.22,4.3Zm-84.8-1.28h83.54c2.33,0,4.22-1.92,4.22-4.3v-3.54c0-2.37-1.89-4.3-4.22-4.3h-83.54c-2.33,0-4.22,1.92-4.22,4.3v3.54c0,2.37,1.89,4.3,4.22,4.3Z"/>
        <path class="cls-47" d="M1170.1,894.24h-28.15c-1.04,0-1.88-.86-1.88-1.92h0c0-1.06,.84-1.92,1.88-1.92h28.15c1.04,0,1.88,.86,1.88,1.92h0c0,1.06-.84,1.92-1.88,1.92Zm-517.5,0h-35.03c-1.04,0-1.88-.86-1.88-1.92h0c0-1.06,.84-1.92,1.88-1.92h35.03c1.04,0,1.88,.86,1.88,1.92h0c0,1.06-.84,1.92-1.88,1.92Z"/>
        <path class="cls-36" d="M940.46,953.16v-1.92s72.27-.32,72.27-.32v1.92s-72.27,.32-72.27,.32Zm-248.42-12.1v-1.92s88.54-.32,88.54-.32v1.92s-88.54,.32-88.54,.32Zm248.43-.64l-.02-1.92,35.35-.32,.02,1.92-35.35,.32Zm0-10.19v-1.92s84.16-.32,84.16-.32v1.92s-84.16,.32-84.16,.32Zm-248.42-1.91v-1.92s80.4-.32,80.4-.32v1.92s-80.4,.32-80.4,.32Zm248.42-10.83v-1.92s64.76-.32,64.76-.32v1.92s-64.76,.32-64.76,.32Zm199.64-.32v-1.92s142.92-.32,142.92-.32v1.92s-142.92,.32-142.92,.32Zm-484.99-1.59h-38.8v-1.92h38.8v1.92Zm75.72-10.19h-38.8v-1.92h38.8v1.92Zm-75.72,0h-38.8v-1.92h38.8v1.92Zm616.05-.96h-131.06v-1.92h131.06v1.92Z"/>
        <path class="cls-47" d="M1080.77,906.98h-139.06c-1.04,0-1.88-.86-1.88-1.92h0c0-1.06,.84-1.92,1.88-1.92h139.06c1.04,0,1.88,.86,1.88,1.92h0c0,1.06-.84,1.92-1.88,1.92Zm43.02-12.74h-182.08c-1.04,0-1.88-.86-1.88-1.92h0c0-1.06,.84-1.92,1.88-1.92h182.08c1.04,0,1.88,.86,1.88,1.92h0c0,1.06-.84,1.92-1.88,1.92Zm-359.18,0h-71.32c-1.04,0-1.88-.86-1.88-1.92h0c0-1.06,.84-1.92,1.88-1.92h71.32c1.04,0,1.88,.86,1.88,1.92h0c0,1.06-.84,1.92-1.88,1.92Z"/>
        <rect class="cls-47" x="692.03" y="913.34" width="18.87" height="2.56"/>
      </g>
    </g>
    <g>
      <rect class="cls-19" x="589.69" y="996.91" width="951.25" height="108.81" rx="8.95" ry="8.95"/>
      <g>
        <g id="Layer3_0_FILL-2" data-name="Layer3 0 FILL">
          <path class="cls-58" d="M610.06,1017.51v-7.01h-6.88v7.01h6.88Z"/>
          <path class="cls-48" d="M1430.38,1040.16h83.37c2.72,0,4.93-2.25,4.93-5.02v-3.37c0-2.77-2.21-5.02-4.93-5.02h-83.37c-2.72,0-4.93,2.25-4.93,5.02v3.37c0,2.77,2.21,5.02,4.93,5.02Zm-4.93-26.54v3.37c0,2.77,2.21,5.02,4.93,5.02h83.37c2.72,0,4.93-2.25,4.93-5.02v-3.37c0-2.77-2.21-5.02-4.93-5.02h-83.37c-2.72,0-4.93,2.25-4.93,5.02Z"/>
          <path class="cls-18" d="M1429.89,1076.47h84.35c2.45,0,4.44-2.03,4.44-4.52v-4.36c0-2.5-1.99-4.52-4.44-4.52h-84.35c-2.45,0-4.44,2.03-4.44,4.52v4.36c0,2.5,1.99,4.52,4.44,4.52Zm-4.44-27.04v4.36c0,2.5,1.99,4.52,4.44,4.52h84.35c2.45,0,4.44-2.03,4.44-4.52v-4.36c0-2.5-1.99-4.52-4.44-4.52h-84.35c-2.45,0-4.44,2.03-4.44,4.52Z"/>
        </g>
        <path class="cls-60" d="M1515.09,1095.26h-86.05c-2.33,0-4.22-1.92-4.22-4.3v-6.1c0-2.37,1.89-4.3,4.22-4.3h86.05c2.33,0,4.22,1.92,4.22,4.3v6.1c0,2.37-1.89,4.3-4.22,4.3Zm-84.8-1.28h83.54c2.33,0,4.22-1.92,4.22-4.3v-3.54c0-2.37-1.89-4.3-4.22-4.3h-83.54c-2.33,0-4.22,1.92-4.22,4.3v3.54c0,2.37,1.89,4.3,4.22,4.3Z"/>
        <path class="cls-47" d="M1170.1,1015.61h-28.15c-1.04,0-1.88-.86-1.88-1.92h0c0-1.06,.84-1.92,1.88-1.92h28.15c1.04,0,1.88,.86,1.88,1.92h0c0,1.06-.84,1.92-1.88,1.92Zm-517.5,0h-35.03c-1.04,0-1.88-.86-1.88-1.92h0c0-1.06,.84-1.92,1.88-1.92h35.03c1.04,0,1.88,.86,1.88,1.92h0c0,1.06-.84,1.92-1.88,1.92Z"/>
        <path class="cls-36" d="M940.46,1074.53v-1.92s72.27-.32,72.27-.32v1.92s-72.27,.32-72.27,.32Zm-248.42-12.1v-1.92s88.54-.32,88.54-.32v1.92s-88.54,.32-88.54,.32Zm248.43-.64l-.02-1.92,35.35-.32,.02,1.92-35.35,.32Zm0-10.19v-1.92s84.16-.32,84.16-.32v1.92s-84.16,.32-84.16,.32Zm-248.42-1.91v-1.92s80.4-.32,80.4-.32v1.92s-80.4,.32-80.4,.32Zm248.42-10.83v-1.92s64.76-.32,64.76-.32v1.92s-64.76,.32-64.76,.32Zm199.64-.32v-1.92s142.92-.32,142.92-.32v1.92s-142.92,.32-142.92,.32Zm-484.99-1.59h-38.8v-1.92h38.8v1.92Zm75.72-10.19h-38.8v-1.92h38.8v1.92Zm-75.72,0h-38.8v-1.92h38.8v1.92Zm616.05-.96h-131.06v-1.92h131.06v1.92Z"/>
        <path class="cls-47" d="M1080.77,1028.35h-139.06c-1.04,0-1.88-.86-1.88-1.92h0c0-1.06,.84-1.92,1.88-1.92h139.06c1.04,0,1.88,.86,1.88,1.92h0c0,1.06-.84,1.92-1.88,1.92Zm43.02-12.74h-182.08c-1.04,0-1.88-.86-1.88-1.92h0c0-1.06,.84-1.92,1.88-1.92h182.08c1.04,0,1.88,.86,1.88,1.92h0c0,1.06-.84,1.92-1.88,1.92Zm-359.18,0h-71.32c-1.04,0-1.88-.86-1.88-1.92h0c0-1.06,.84-1.92,1.88-1.92h71.32c1.04,0,1.88,.86,1.88,1.92h0c0,1.06-.84,1.92-1.88,1.92Z"/>
        <rect class="cls-47" x="692.03" y="1034.71" width="18.87" height="2.56"/>
      </g>
    </g>
    <g>
      <rect class="cls-19" x="589.69" y="1118.28" width="951.25" height="108.81" rx="8.95" ry="8.95"/>
      <g>
        <g id="Layer3_0_FILL-3" data-name="Layer3 0 FILL">
          <path class="cls-58" d="M610.06,1138.88v-7.01h-6.88v7.01h6.88Z"/>
          <path class="cls-48" d="M1430.38,1161.53h83.37c2.72,0,4.93-2.25,4.93-5.02v-3.37c0-2.77-2.21-5.02-4.93-5.02h-83.37c-2.72,0-4.93,2.25-4.93,5.02v3.37c0,2.77,2.21,5.02,4.93,5.02Zm-4.93-26.54v3.37c0,2.77,2.21,5.02,4.93,5.02h83.37c2.72,0,4.93-2.25,4.93-5.02v-3.37c0-2.77-2.21-5.02-4.93-5.02h-83.37c-2.72,0-4.93,2.25-4.93,5.02Z"/>
          <path class="cls-18" d="M1429.89,1197.84h84.35c2.45,0,4.44-2.03,4.44-4.52v-4.36c0-2.5-1.99-4.52-4.44-4.52h-84.35c-2.45,0-4.44,2.03-4.44,4.52v4.36c0,2.5,1.99,4.52,4.44,4.52Zm-4.44-27.04v4.36c0,2.5,1.99,4.52,4.44,4.52h84.35c2.45,0,4.44-2.03,4.44-4.52v-4.36c0-2.5-1.99-4.52-4.44-4.52h-84.35c-2.45,0-4.44,2.03-4.44,4.52Z"/>
        </g>
        <path class="cls-60" d="M1515.09,1216.63h-86.05c-2.33,0-4.22-1.92-4.22-4.3v-6.1c0-2.37,1.89-4.3,4.22-4.3h86.05c2.33,0,4.22,1.92,4.22,4.3v6.1c0,2.37-1.89,4.3-4.22,4.3Zm-84.8-1.28h83.54c2.33,0,4.22-1.92,4.22-4.3v-3.54c0-2.37-1.89-4.3-4.22-4.3h-83.54c-2.33,0-4.22,1.92-4.22,4.3v3.54c0,2.37,1.89,4.3,4.22,4.3Z"/>
        <path class="cls-47" d="M1170.1,1136.98h-28.15c-1.04,0-1.88-.86-1.88-1.92h0c0-1.06,.84-1.92,1.88-1.92h28.15c1.04,0,1.88,.86,1.88,1.92h0c0,1.06-.84,1.92-1.88,1.92Zm-517.5,0h-35.03c-1.04,0-1.88-.86-1.88-1.92h0c0-1.06,.84-1.92,1.88-1.92h35.03c1.04,0,1.88,.86,1.88,1.92h0c0,1.06-.84,1.92-1.88,1.92Z"/>
        <path class="cls-36" d="M940.46,1195.9v-1.92s72.27-.32,72.27-.32v1.92s-72.27,.32-72.27,.32Zm-248.42-12.1v-1.92s88.54-.32,88.54-.32v1.92s-88.54,.32-88.54,.32Zm248.43-.64l-.02-1.92,35.35-.32,.02,1.92-35.35,.32Zm0-10.19v-1.92s84.16-.32,84.16-.32v1.92s-84.16,.32-84.16,.32Zm-248.42-1.91v-1.92s80.4-.32,80.4-.32v1.92s-80.4,.32-80.4,.32Zm248.42-10.83v-1.92s64.76-.32,64.76-.32v1.92s-64.76,.32-64.76,.32Zm199.64-.32v-1.92s142.92-.32,142.92-.32v1.92s-142.92,.32-142.92,.32Zm-484.99-1.59h-38.8v-1.92h38.8v1.92Zm75.72-10.19h-38.8v-1.92h38.8v1.92Zm-75.72,0h-38.8v-1.92h38.8v1.92Zm616.05-.96h-131.06v-1.92h131.06v1.92Z"/>
        <path class="cls-47" d="M1080.77,1149.72h-139.06c-1.04,0-1.88-.86-1.88-1.92h0c0-1.06,.84-1.92,1.88-1.92h139.06c1.04,0,1.88,.86,1.88,1.92h0c0,1.06-.84,1.92-1.88,1.92Zm43.02-12.74h-182.08c-1.04,0-1.88-.86-1.88-1.92h0c0-1.06,.84-1.92,1.88-1.92h182.08c1.04,0,1.88,.86,1.88,1.92h0c0,1.06-.84,1.92-1.88,1.92Zm-359.18,0h-71.32c-1.04,0-1.88-.86-1.88-1.92h0c0-1.06,.84-1.92,1.88-1.92h71.32c1.04,0,1.88,.86,1.88,1.92h0c0,1.06-.84,1.92-1.88,1.92Z"/>
        <rect class="cls-47" x="692.03" y="1156.08" width="18.87" height="2.56"/>
      </g>
    </g>
    <g>
      <rect class="cls-19" x="589.69" y="1239.65" width="951.25" height="108.81" rx="8.95" ry="8.95"/>
      <g>
        <g id="Layer3_0_FILL-4" data-name="Layer3 0 FILL">
          <path class="cls-58" d="M610.06,1260.25v-7.01h-6.88v7.01h6.88Z"/>
          <path class="cls-48" d="M1430.38,1282.9h83.37c2.72,0,4.93-2.25,4.93-5.02v-3.37c0-2.77-2.21-5.02-4.93-5.02h-83.37c-2.72,0-4.93,2.25-4.93,5.02v3.37c0,2.77,2.21,5.02,4.93,5.02Zm-4.93-26.54v3.37c0,2.77,2.21,5.02,4.93,5.02h83.37c2.72,0,4.93-2.25,4.93-5.02v-3.37c0-2.77-2.21-5.02-4.93-5.02h-83.37c-2.72,0-4.93,2.25-4.93,5.02Z"/>
          <path class="cls-18" d="M1429.89,1319.21h84.35c2.45,0,4.44-2.03,4.44-4.52v-4.36c0-2.5-1.99-4.52-4.44-4.52h-84.35c-2.45,0-4.44,2.03-4.44,4.52v4.36c0,2.5,1.99,4.52,4.44,4.52Zm-4.44-27.04v4.36c0,2.5,1.99,4.52,4.44,4.52h84.35c2.45,0,4.44-2.03,4.44-4.52v-4.36c0-2.5-1.99-4.52-4.44-4.52h-84.35c-2.45,0-4.44,2.03-4.44,4.52Z"/>
        </g>
        <path class="cls-60" d="M1515.09,1338h-86.05c-2.33,0-4.22-1.92-4.22-4.3v-6.1c0-2.37,1.89-4.3,4.22-4.3h86.05c2.33,0,4.22,1.92,4.22,4.3v6.1c0,2.37-1.89,4.3-4.22,4.3Zm-84.8-1.28h83.54c2.33,0,4.22-1.92,4.22-4.3v-3.54c0-2.37-1.89-4.3-4.22-4.3h-83.54c-2.33,0-4.22,1.92-4.22,4.3v3.54c0,2.37,1.89,4.3,4.22,4.3Z"/>
        <path class="cls-47" d="M1170.1,1258.35h-28.15c-1.04,0-1.88-.86-1.88-1.92h0c0-1.06,.84-1.92,1.88-1.92h28.15c1.04,0,1.88,.86,1.88,1.92h0c0,1.06-.84,1.92-1.88,1.92Zm-517.5,0h-35.03c-1.04,0-1.88-.86-1.88-1.92h0c0-1.06,.84-1.92,1.88-1.92h35.03c1.04,0,1.88,.86,1.88,1.92h0c0,1.06-.84,1.92-1.88,1.92Z"/>
        <path class="cls-36" d="M940.46,1317.27v-1.92s72.27-.32,72.27-.32v1.92s-72.27,.32-72.27,.32Zm-248.42-12.1v-1.92s88.54-.32,88.54-.32v1.92s-88.54,.32-88.54,.32Zm248.43-.64l-.02-1.92,35.35-.32,.02,1.92-35.35,.32Zm0-10.19v-1.92s84.16-.32,84.16-.32v1.92s-84.16,.32-84.16,.32Zm-248.42-1.91v-1.92s80.4-.32,80.4-.32v1.92s-80.4,.32-80.4,.32Zm248.42-10.83v-1.92s64.76-.32,64.76-.32v1.92s-64.76,.32-64.76,.32Zm199.64-.32v-1.92s142.92-.32,142.92-.32v1.92s-142.92,.32-142.92,.32Zm-484.99-1.59h-38.8v-1.92h38.8v1.92Zm75.72-10.19h-38.8v-1.92h38.8v1.92Zm-75.72,0h-38.8v-1.92h38.8v1.92Zm616.05-.96h-131.06v-1.92h131.06v1.92Z"/>
        <path class="cls-47" d="M1080.77,1271.09h-139.06c-1.04,0-1.88-.86-1.88-1.92h0c0-1.06,.84-1.92,1.88-1.92h139.06c1.04,0,1.88,.86,1.88,1.92h0c0,1.06-.84,1.92-1.88,1.92Zm43.02-12.74h-182.08c-1.04,0-1.88-.86-1.88-1.92h0c0-1.06,.84-1.92,1.88-1.92h182.08c1.04,0,1.88,.86,1.88,1.92h0c0,1.06-.84,1.92-1.88,1.92Zm-359.18,0h-71.32c-1.04,0-1.88-.86-1.88-1.92h0c0-1.06,.84-1.92,1.88-1.92h71.32c1.04,0,1.88,.86,1.88,1.92h0c0,1.06-.84,1.92-1.88,1.92Z"/>
        <rect class="cls-47" x="692.03" y="1277.45" width="18.87" height="2.56"/>
      </g>
    </g>
  </g>
  <g id="Layer_5" data-name="Layer 5">
    <g class="cls-67">
      <path class="cls-46" d="M755.11,783.11h-153.96c-2.49,0-4.5-2.01-4.5-4.5h0c0-2.49,2.01-4.5,4.5-4.5h153.96c2.49,0,4.5,2.01,4.5,4.5h0c0,2.49-2.01,4.5-4.5,4.5Z"/>
    </g>
  </g>
  <g id="Layer_46" data-name="Layer 46">
    <g>
      <g id="Layer5_0_FILL" data-name="Layer5 0 FILL">
        <path class="cls-19" d="M834.51,1290c0,4.58,2.09,8.49,6.26,11.73,4.18,3.26,9.23,4.89,15.15,4.89s10.97-1.63,15.15-4.89c4.18-3.24,6.26-7.15,6.26-11.73s-2.09-8.5-6.26-11.76c-4.18-3.24-9.23-4.86-15.15-4.86s-10.97,1.62-15.15,4.86c-4.18,3.26-6.26,7.18-6.26,11.76Z"/>
      </g>
      <g id="Layer5_1_MEMBER_0_MEMBER_0_MEMBER_0_FILL" data-name="Layer5 1 MEMBER 0 MEMBER 0 MEMBER 0 FILL">
        <path class="cls-29" d="M829.3,1310.88l.04-.05,60.87-6.43-8.33-37.38-58.89,11.44,6.31,32.42m10.2-12.38c-2.78-3.27-3.06-6.74-.84-10.41,2.21-3.67,5.37-6.9,9.48-9.67,4.1-2.77,8.08-4.07,11.95-3.91,3.87,.15,7.12,1.76,9.76,4.84,2.66,3.07,2.94,6.54,.84,10.4-2.08,3.86-5.45,7.11-10.11,9.75-4.63,2.62-8.61,3.93-11.93,3.93s-6.39-1.64-9.15-4.92Z"/>
      </g>
      <g id="Layer5_1_MEMBER_0_MEMBER_0_MEMBER_1_FILL" data-name="Layer5 1 MEMBER 0 MEMBER 0 MEMBER 1 FILL">
        <path class="cls-25" d="M888.88,1275.62l-7.01-8.61,6.3,32.42-58.84,11.39-.04,.05,12.87,4.07,53.03-10-6.3-29.34Z"/>
      </g>
      <g id="Layer5_1_MEMBER_2_MEMBER_0_MEMBER_0_FILL" data-name="Layer5 1 MEMBER 2 MEMBER 0 MEMBER 0 FILL">
        <path class="cls-25" d="M880.32,1298.81s-.04,.09-.04,.16l.24,1.27c.03,.08,.06,.13,.09,.15,.06,.04,.11,.04,.16,.02,.07,0,.12-.03,.15-.08,.04-.05,.05-.11,.03-.16l-.24-1.29c0-.05-.04-.09-.09-.13-.05-.03-.11-.04-.16-.04-.07,.02-.11,.05-.14,.1m-.37-2.65c-.05,0-.1,.04-.14,.1-.02,.05-.03,.11-.02,.16l.26,1.27c0,.06,.04,.11,.09,.14,.06,.04,.11,.04,.16,.02,.06,0,.11-.03,.14-.08,.04-.06,.04-.11,.02-.16l-.25-1.29c0-.05-.04-.1-.1-.14-.05-.02-.11-.03-.16-.02m-.63-2.47s-.04,.1-.03,.16l.25,1.27c.02,.07,.06,.11,.11,.14,.04,.04,.1,.04,.16,.02,.05,0,.09-.03,.13-.08,.04-.05,.05-.11,.03-.16l-.27-1.28c0-.05-.03-.1-.08-.15l-.16-.03c-.07,.02-.11,.06-.14,.11m-.36-2.66c-.05,0-.1,.04-.15,.09l-.03,.16,.27,1.29c.01,.06,.04,.1,.09,.12,.05,.04,.11,.06,.16,.04,.07,0,.11-.04,.13-.1,.04-.04,.05-.1,.03-.16l-.25-1.28s-.04-.09-.09-.14c-.06-.02-.11-.03-.16-.02m-1.65-7.61c-.02,.05-.03,.11-.02,.16l.24,1.27c.01,.08,.04,.13,.09,.14,.04,.04,.1,.05,.16,.03,.07,0,.11-.03,.13-.09,.04-.04,.05-.1,.03-.16l-.23-1.28c0-.05-.04-.09-.1-.13-.04-.03-.1-.04-.16-.03-.06,.01-.11,.04-.14,.09m-.35-2.66c-.07,.02-.11,.05-.14,.09-.03,.06-.04,.11-.03,.16l.23,1.29c.03,.07,.06,.12,.1,.14,.04,.04,.1,.04,.16,.02,.06,0,.11-.03,.14-.08,.04-.05,.05-.11,.03-.16l-.25-1.28c0-.05-.03-.1-.08-.15l-.16-.03m1.46,6.76c.04-.05,.05-.11,.03-.16l-.24-1.29s-.04-.09-.09-.14l-.16-.03c-.07,.02-.11,.05-.14,.09-.03,.05-.04,.11-.04,.16l.24,1.28c.03,.08,.06,.13,.09,.15,.06,.04,.11,.05,.16,.03,.07,0,.12-.04,.15-.09m-.1,1.03c-.03,.06-.04,.11-.03,.16l.25,1.28c.02,.07,.06,.11,.11,.13,.04,.04,.1,.05,.16,.03,.05,0,.09-.03,.13-.09,.04-.04,.05-.1,.03-.16l-.27-1.27c0-.06-.03-.11-.09-.14-.04-.03-.09-.04-.16-.04-.05,.02-.09,.05-.13,.1m-42.95,20.63c.06,.04,.11,.04,.16,.02,.07,0,.12-.03,.15-.08,.04-.06,.04-.11,.02-.16l-.07-.37c0-.05-.03-.1-.08-.15-.06-.02-.11-.03-.16-.02-.07,.01-.11,.04-.14,.08-.03,.05-.04,.11-.04,.16l.08,.37c.01,.07,.04,.12,.08,.15m-.61-3.25c-.03,.05-.04,.11-.04,.16l.25,1.29c.01,.07,.04,.11,.08,.13,.05,.04,.11,.06,.16,.04,.07-.01,.12-.05,.15-.1,.04-.04,.04-.1,.02-.16l-.23-1.27c0-.06-.04-.11-.1-.15-.04-.02-.1-.03-.16-.03-.07,.02-.11,.05-.13,.09m.12-1.2l-.23-1.28c0-.05-.04-.09-.1-.13-.04-.03-.09-.04-.16-.04-.07,.03-.11,.06-.13,.1-.03,.04-.04,.1-.03,.16l.23,1.27c.03,.08,.06,.13,.1,.14,.04,.04,.1,.06,.16,.04,.07-.01,.11-.05,.14-.1,.04-.04,.04-.1,.02-.16m-.83-2.34s.1,.04,.16,.02c.07,0,.11-.03,.13-.08,.04-.05,.06-.11,.04-.16l-.24-1.29c0-.05-.04-.09-.09-.13-.05-.03-.11-.04-.16-.04-.07,.02-.12,.05-.15,.1-.02,.05-.03,.11-.02,.16l.23,1.27c.03,.08,.06,.13,.1,.15m-.42-4.07c0-.05-.04-.1-.1-.14-.05-.02-.11-.03-.16-.02-.05,.01-.09,.05-.13,.1-.03,.04-.04,.09-.04,.16l.27,1.27c0,.06,.04,.11,.1,.14,.04,.04,.1,.04,.16,.02,.06,0,.1-.03,.12-.08,.04-.05,.06-.11,.04-.16l-.26-1.29m-.89-2.63s-.05,.09-.03,.15l.26,1.28c.01,.07,.05,.11,.1,.13,.04,.04,.1,.05,.16,.03,.05,0,.09-.03,.13-.09,.04-.04,.05-.1,.03-.16l-.26-1.27c0-.06-.04-.11-.1-.15-.04-.02-.1-.03-.16-.03-.06,.02-.1,.06-.13,.11m-.11-2.5s-.04-.09-.09-.14c-.06-.02-.11-.03-.16-.02-.05,0-.1,.04-.15,.09-.02,.06-.03,.11-.02,.16l.26,1.29c.01,.06,.04,.1,.09,.12,.05,.04,.11,.06,.16,.04,.06,0,.11-.04,.14-.1,.04-.04,.04-.1,.02-.16l-.25-1.28m-.25-1.28l-.26-1.27c0-.06-.03-.11-.08-.14-.05-.03-.11-.04-.16-.04-.05,.02-.1,.05-.15,.1-.02,.06-.03,.11-.02,.16l.25,1.28c.02,.07,.05,.11,.1,.13,.06,.04,.11,.05,.16,.03,.06,0,.11-.03,.14-.09,.04-.04,.04-.1,.02-.16m-1.14-3.91s-.04,.09-.04,.16l.26,1.28c.02,.06,.06,.1,.11,.13,.04,.04,.1,.05,.16,.03,.06-.01,.1-.04,.12-.09,.04-.05,.06-.11,.04-.16l-.27-1.29s-.03-.09-.08-.14l-.16-.03c-.07,.02-.11,.06-.14,.11m-.11-2.5c0-.05-.04-.09-.1-.13-.04-.03-.1-.04-.16-.03-.05,0-.09,.04-.13,.09-.03,.05-.04,.11-.04,.16l.27,1.28c.01,.07,.05,.11,.1,.13,.04,.04,.1,.05,.16,.03,.06,0,.1-.03,.12-.09,.04-.04,.06-.1,.04-.16l-.26-1.28m-.73-2.74c-.07,.02-.11,.05-.14,.09-.03,.05-.04,.11-.04,.16l.25,1.29c.01,.07,.04,.11,.08,.14,.06,.04,.11,.04,.16,.02,.07,0,.12-.03,.15-.08,.04-.05,.05-.11,.03-.16l-.25-1.28c0-.05-.03-.1-.08-.15l-.16-.03m-.24-2.39s-.03-.09-.08-.14c-.06-.02-.11-.03-.16-.02-.06,0-.11,.03-.15,.08-.02,.06-.03,.11-.02,.16l.24,1.28c.01,.08,.04,.13,.09,.14,.04,.04,.1,.06,.16,.04s.11-.05,.13-.1c.04-.04,.06-.1,.04-.16l-.25-1.28m-.72-2.74c-.07,.02-.12,.05-.15,.1-.02,.05-.03,.11-.02,.16l.23,1.28c.03,.07,.06,.12,.1,.13,.04,.04,.1,.05,.16,.03,.07,0,.11-.03,.13-.09,.04-.04,.06-.1,.04-.16l-.24-1.27c0-.06-.04-.11-.09-.14-.05-.03-.11-.04-.16-.04m46.86,.64l-.03,.16,.25,1.28c.01,.07,.04,.12,.08,.14,.05,.04,.11,.06,.16,.04,.07-.01,.12-.05,.14-.1,.04-.04,.06-.1,.04-.16l-.24-1.28s-.04-.09-.09-.14c-.06-.02-.11-.03-.16-.02-.06,0-.11,.03-.15,.08m-.11-2.47c0-.06-.03-.11-.09-.14-.04-.03-.09-.04-.16-.04-.07,.03-.11,.06-.13,.1-.03,.04-.04,.1-.03,.16l.24,1.28c.01,.07,.04,.12,.09,.13,.04,.04,.1,.05,.16,.03,.06,0,.11-.03,.14-.09,.04-.04,.04-.1,.02-.16l-.24-1.27m-.58-2.72l-.16-.03c-.07,.02-.11,.05-.14,.09-.03,.05-.04,.11-.04,.16l.24,1.28c.03,.08,.06,.13,.09,.15,.06,.04,.11,.05,.16,.03,.07,0,.12-.04,.15-.09,.04-.05,.05-.11,.03-.16l-.24-1.29s-.04-.09-.09-.14m-.67-2.59c-.06,.01-.11,.04-.14,.09-.02,.05-.03,.11-.02,.16l.24,1.27c.01,.08,.04,.13,.09,.14,.04,.04,.1,.05,.16,.03,.07,0,.11-.03,.13-.09,.04-.04,.05-.1,.03-.16l-.23-1.28c0-.05-.04-.09-.1-.13-.04-.03-.1-.04-.16-.03m-.33-1.63c-.06,.01-.11,.04-.14,.09-.02,.05-.03,.11-.02,.16l.05,.35c.03,.07,.06,.12,.1,.14,.04,.04,.1,.04,.16,.02,.06,0,.11-.03,.14-.08,.04-.05,.05-.11,.03-.16l-.07-.36c0-.05-.04-.09-.1-.13-.04-.03-.1-.04-.16-.03Z"/>
      </g>
      <g id="Layer5_1_MEMBER_3_MEMBER_0_MEMBER_0_FILL" data-name="Layer5 1 MEMBER 3 MEMBER 0 MEMBER 0 FILL">
        <path class="cls-29" d="M871.5,1305.61c0-.06-.04-.1-.11-.12-.04-.03-.09-.04-.16-.02l-1.25,.38-.13,.1c-.02,.07-.02,.12,0,.16,0,.06,.04,.11,.1,.14,.07,.03,.12,.03,.16,.01,.52-.14,.94-.27,1.26-.38,.05,0,.09-.04,.11-.11,.04-.04,.04-.1,.02-.16m2.47-.66c.02-.05,.03-.11,.01-.16-.02-.05-.06-.09-.12-.13-.05-.02-.11-.03-.16-.01-.47,.17-.88,.32-1.24,.42-.05,.02-.09,.06-.11,.11-.03,.07-.03,.12-.01,.16,0,.07,.04,.11,.11,.13,.04,.03,.1,.04,.16,.02l1.23-.42c.05-.02,.09-.06,.13-.12m.81-.47c.02,.07,.06,.11,.12,.12,.06,.04,.11,.04,.16,0,.43-.16,.83-.32,1.2-.49,.06,0,.09-.05,.11-.12,.04-.04,.04-.1,0-.16,0-.04-.04-.08-.11-.12-.05,0-.11,0-.16,0-.37,.17-.77,.33-1.2,.49-.07,.04-.11,.08-.12,.12-.02,.07-.02,.12,0,.16m3.98-1.71c-.02-.07-.06-.1-.11-.11-.07-.02-.12-.02-.17,.01l-1.18,.53c-.05,.02-.09,.06-.11,.12-.02,.07-.02,.12,0,.16,.03,.07,.07,.1,.13,.11,.06,.04,.11,.04,.16,0,.33-.14,.72-.33,1.17-.54,.07-.02,.11-.06,.13-.11,.01-.07,0-.13-.02-.17m2.14-1.29c-.06-.01-.11-.01-.16,.01-.48,.28-.84,.47-1.09,.6-.07,.04-.1,.08-.11,.14-.02,.06-.02,.11,0,.16,.04,.06,.09,.09,.14,.11,.07,.01,.12,0,.16-.02,.46-.24,.83-.44,1.11-.61,.05-.02,.09-.06,.11-.12,0-.06,0-.11-.02-.16-.03-.05-.08-.09-.14-.11m-22.09,6.91c-.05-.03-.11-.04-.16-.04l-1.27,.2c-.06,0-.11,.04-.14,.1-.04,.04-.06,.1-.04,.16,0,.05,.03,.09,.08,.13,.05,.04,.11,.06,.16,.04,.04,0,.46-.07,1.28-.2,.05,0,.09-.03,.13-.08,.04-.04,.05-.1,.05-.16,0-.05-.04-.1-.09-.15m-3.96,.96l1.3-.18c.05,0,.1-.03,.15-.08,.04-.05,.05-.11,.03-.16,0-.05-.03-.1-.08-.15-.05-.03-.11-.04-.16-.04l-1.3,.18s-.09,.03-.14,.08c-.03,.05-.04,.1-.03,.15,0,.07,.03,.12,.09,.16,.04,.03,.08,.04,.14,.04m-1.17-.24c-.05-.03-.11-.04-.16-.03l-1.3,.14c-.06,.01-.1,.04-.13,.09-.04,.04-.05,.09-.05,.16,.01,.07,.04,.11,.08,.13,.06,.04,.11,.06,.16,.05l1.3-.14c.07-.01,.11-.05,.14-.1,.04-.05,.05-.11,.05-.16,0-.04-.04-.09-.09-.14m15.18-2.48c.06-.02,.1-.05,.12-.1,.04-.06,.04-.12,.02-.17,0-.04-.04-.09-.09-.14-.07-.03-.13-.03-.18-.01-.66,.18-1.08,.29-1.25,.33-.04,.02-.09,.06-.13,.11l-.03,.16c.02,.06,.06,.1,.11,.13,.06,.04,.11,.05,.16,.03,.53-.13,.95-.24,1.27-.34m-7.46,1.63c.04-.05,.05-.11,.03-.16,0-.06-.03-.11-.09-.15-.04-.02-.1-.03-.16-.03l-1.27,.24c-.05,.01-.1,.04-.14,.08-.03,.06-.04,.11-.03,.16,0,.07,.04,.12,.09,.15,.04,.04,.1,.04,.16,.02,.42-.07,.85-.14,1.28-.23,.07,0,.11-.03,.13-.08m2.42-.42c.05,0,.09-.03,.13-.09,.04-.04,.05-.1,.03-.16,0-.05-.04-.09-.09-.13-.05-.03-.11-.04-.16-.04l-1.27,.26c-.07,.02-.11,.06-.14,.11-.03,.04-.04,.1-.03,.16,.01,.06,.04,.1,.09,.12,.05,.04,.11,.06,.16,.04l1.28-.27m1.03-.6c-.03,.06-.04,.11-.03,.16,.01,.07,.04,.12,.09,.15,.07,.03,.12,.03,.16,.01l1.27-.28c.06,0,.11-.04,.14-.1,.02-.06,.03-.11,.02-.16,0-.07-.04-.11-.11-.14-.05-.02-.11-.03-.16-.02l-1.25,.28c-.07,.02-.11,.05-.13,.1m-25.74,3.06c0,.07,.02,.12,.07,.15,.04,.05,.09,.07,.15,.07l1.29-.03c.07-.01,.11-.04,.14-.09,.05-.03,.08-.08,.08-.15-.01-.06-.04-.11-.09-.14-.04-.04-.09-.06-.15-.05l-1.28,.03c-.06,0-.11,.03-.15,.08-.04,.04-.06,.09-.05,.14m-2.53,.24c.06,.04,.11,.07,.15,.07l1.3-.04c.06,0,.11-.02,.15-.07,.04-.04,.07-.1,.07-.16,0-.05-.03-.1-.08-.15-.05-.04-.1-.05-.15-.05l-1.29,.04c-.05,0-.11,.02-.16,.05-.04,.06-.05,.11-.05,.16,.01,.06,.04,.11,.07,.15m12.87-.85c.01,.07,.04,.12,.09,.15,.04,.04,.09,.06,.15,.05l1.3-.11c.05,0,.1-.04,.14-.1,.04-.04,.05-.09,.05-.15-.01-.06-.04-.11-.09-.14-.04-.04-.09-.06-.15-.04l-1.3,.11c-.05,.01-.1,.04-.14,.08-.04,.04-.05,.09-.05,.15m-2.58,.21c0,.07,.03,.12,.08,.16,.05,.04,.1,.05,.14,.05l1.3-.11c.06,0,.11-.02,.15-.07,.04-.06,.05-.11,.05-.16,0-.06-.03-.11-.08-.15-.04-.04-.1-.05-.16-.05l-1.3,.11c-.05,0-.09,.02-.13,.07-.04,.06-.06,.11-.05,.15m-3.46,.23c0-.06-.03-.11-.08-.15-.04-.04-.08-.05-.14-.05-.58,.03-1.01,.05-1.3,.08-.06,0-.11,.02-.15,.07-.04,.05-.05,.11-.05,.16,.01,.07,.04,.12,.08,.15,.05,.04,.11,.05,.16,.05,.29-.02,.72-.05,1.29-.08,.07,0,.11-.03,.14-.08,.05-.04,.07-.09,.05-.15m1.06-.28c-.07,.01-.11,.04-.14,.08-.04,.06-.06,.11-.05,.15,0,.07,.03,.12,.08,.15,.04,.04,.09,.06,.14,.05l1.3-.09c.07,0,.11-.03,.14-.08,.04-.04,.06-.1,.05-.16,0-.05-.02-.1-.07-.14-.06-.04-.11-.05-.16-.05l-1.29,.09Z"/>
      </g>
    </g>
  </g>
  <g id="Layer_47" data-name="Layer 47">
    <g>
      <g id="Layer12_1_MEMBER_0_MEMBER_0_MEMBER_0_FILL" data-name="Layer12 1 MEMBER 0 MEMBER 0 MEMBER 0 FILL">
        <path class="cls-49" d="M863.75,1137.77c-.22,.04-.44,.11-.65,.2l-35.83,15.11c-.54,.23-.93,.56-1.19,1-.05,.08-.11,.19-.17,.33-.24,.61-.19,1.2,.13,1.77l28.04,49.71c.1,.19,.23,.35,.37,.5,.3,.31,.69,.53,1.16,.67,.16,.04,.29,.07,.4,.09,.56,.09,1.11,.03,1.64-.2l35.83-15.11c.67-.28,1.12-.72,1.36-1.32,.24-.6,.2-1.19-.12-1.77l-28.04-49.71c-.33-.58-.84-.97-1.54-1.17-.47-.14-.93-.17-1.39-.09m-17.25,10.62c-.18-.05-.31-.16-.4-.31-.08-.14-.09-.29-.03-.46,.07-.15,.18-.26,.36-.34s.34-.08,.52-.03c.18,.06,.32,.16,.4,.3,.08,.15,.1,.3,.03,.46-.06,.15-.18,.26-.35,.34s-.35,.09-.53,.03m27.67,44.66c.64,.19,1.11,.55,1.41,1.08,.3,.53,.34,1.07,.11,1.63-.22,.56-.64,.96-1.25,1.22-.61,.26-1.24,.29-1.88,.1-.64-.18-1.11-.54-1.41-1.08-.3-.53-.34-1.07-.12-1.62,.22-.56,.64-.96,1.25-1.22,.61-.26,1.24-.29,1.88-.1m-44.58-34.49l36.88-15.55,22.74,40.31-36.88,15.55-22.74-40.31Z"/>
      </g>
      <g id="Layer12_1_MEMBER_0_MEMBER_0_MEMBER_1_FILL" data-name="Layer12 1 MEMBER 0 MEMBER 0 MEMBER 1 FILL">
        <path class="cls-52" d="M865.01,1193.53l24.21-10.21-11.81-20.93-12.4,31.13m9.17-.48c-.64-.19-1.27-.16-1.88,.1-.61,.26-1.03,.67-1.25,1.22-.22,.55-.18,1.09,.12,1.62,.3,.54,.77,.89,1.41,1.08,.64,.19,1.27,.16,1.88-.1,.61-.26,1.02-.66,1.25-1.22,.22-.55,.19-1.09-.11-1.63-.3-.53-.77-.89-1.41-1.08m-44.58-34.49l15.57,27.6,16.35-41.06-31.92,13.46m16.84-11.27c-.17,.07-.29,.19-.36,.34-.06,.16-.05,.31,.03,.46,.08,.15,.22,.25,.4,.31,.18,.05,.35,.04,.53-.03s.29-.18,.35-.34c.06-.16,.05-.31-.03-.46-.08-.14-.21-.24-.4-.3-.17-.05-.35-.04-.52,.03Z"/>
      </g>
      <g id="Layer12_1_MEMBER_0_MEMBER_0_MEMBER_2_FILL" data-name="Layer12 1 MEMBER 0 MEMBER 0 MEMBER 2 FILL">
        <path class="cls-30" d="M866.47,1143.01l-4.95,2.09-16.35,41.06,7.17,12.71,12.67-5.34,12.4-31.13-10.94-19.39Z"/>
      </g>
    </g>
  </g>
  <g id="Layer_48" data-name="Layer 48">
    <g>
      <g id="Layer15_0_MEMBER_0_MEMBER_0_MEMBER_0_FILL" data-name="Layer15 0 MEMBER 0 MEMBER 0 MEMBER 0 FILL">
        <path class="cls-55" d="M849.14,1030.95l-2.79,2.39c.12,1.99,.37,3.99,.74,5.99,1.08,5.88,3.27,11.79,6.57,17.73l2.76-1.62-1.94,3.05c1.39,2.37,2.97,4.75,4.73,7.17l1.66-.15-11.98-51.32c-1.88,5.39-2.77,10.94-2.67,16.65l2.91,.11Z"/>
      </g>
      <g id="Layer15_0_MEMBER_0_MEMBER_0_MEMBER_1_FILL" data-name="Layer15 0 MEMBER 0 MEMBER 0 MEMBER 1 FILL">
        <path class="cls-15" d="M857.32,1019.66l-2.82,2.39,1.57-3.58c-2.07-1.82-4.46-3.24-7.17-4.26l11.98,51.32,2.73-.27c.49-2.97,.88-5.75,1.18-8.35l-3.17-1.27,3.4-.93c.11-1.09,.22-2.43,.34-4.03l-3.89-.91,4.03-2.29c.07-2.12,.06-4.2-.02-6.26-.23-4.72-.95-8.66-2.15-11.83-1.49-3.92-3.5-7.15-6.02-9.71Z"/>
      </g>
      <g id="Layer15_1_MEMBER_0_MEMBER_0_MEMBER_0_FILL" data-name="Layer15 1 MEMBER 0 MEMBER 0 MEMBER 0 FILL">
        <path class="cls-15" d="M878.39,1029.05h-3.03l2.62-1.61c-.72-2.56-1.83-5.02-3.33-7.4l-12.97,43.77,2.08,1.48c1.57-1.78,3.02-3.52,4.35-5.23l-1.74-2.82,2.83,1.41c.82-1.11,1.46-2,1.92-2.67l-2.39-3.01,3.84,.82c.97-1.52,1.84-3.01,2.61-4.46,1.82-3.53,2.96-6.78,3.43-9.75,.57-3.67,.5-7.18-.22-10.54Z"/>
      </g>
      <g id="Layer15_1_MEMBER_0_MEMBER_0_MEMBER_1_FILL" data-name="Layer15 1 MEMBER 0 MEMBER 0 MEMBER 1 FILL">
        <path class="cls-55" d="M860.44,1062.91l1.24,.9,12.97-43.77c-3.61,2.7-6.57,6.11-8.89,10.23l2.02,1.85h-3c-.73,1.49-1.39,3.06-1.99,4.72-1.7,4.83-2.61,10.37-2.74,16.61l2.67,.51-2.67,1c0,2.58,.12,5.23,.37,7.96Z"/>
      </g>
      <g id="Layer15_2_MEMBER_0_MEMBER_0_MEMBER_0_FILL" data-name="Layer15 2 MEMBER 0 MEMBER 0 MEMBER 0 FILL">
        <path class="cls-55" d="M850.04,1061.34c1.59,1.04,3.33,2.01,5.22,2.93l1.23-.68-20.47-28.74c-.27,4.13,.26,8.01,1.59,11.64l2.27-.95-1.64,2.51c.54,1.24,1.17,2.44,1.89,3.58,2.11,3.41,5.1,6.44,8.96,9.09l1.77-2.03-.83,2.65Z"/>
      </g>
      <g id="Layer15_2_MEMBER_0_MEMBER_0_MEMBER_1_FILL" data-name="Layer15 2 MEMBER 0 MEMBER 0 MEMBER 1 FILL">
        <path class="cls-15" d="M842.48,1035.07c-2-.43-4.15-.51-6.46-.22l20.47,28.74,2.05-1.13c-.25-1.95-.56-3.87-.91-5.78l-2.73,.31,2.42-1.81c-.15-.74-.36-1.64-.62-2.69l-3.19,.77,2.61-2.88c-.44-1.5-.91-2.84-1.39-4.01-1.21-2.96-2.63-5.24-4.26-6.86-1.99-1.98-4.24-3.35-6.74-4.12l-1.65,2.54,.4-2.87Z"/>
      </g>
      <g id="Layer15_3_MEMBER_0_MEMBER_0_MEMBER_0_FILL" data-name="Layer15 3 MEMBER 0 MEMBER 0 MEMBER 0 FILL">
        <path class="cls-42" d="M867.15,1078.39c-.23-.09-.35-.13-.37-.13-.37,0-.7,.17-.97,.52-.08,.1-.3,.48-.66,1.14-.28,.53-.56,.9-.85,1.13-.43,.35-.95,.52-1.56,.52-.17,0-.4-.14-.69-.42-.09-.09-.29-.32-.6-.69-.31-.36-.73-.65-1.26-.89-.53-.22-1.14,.13-1.83,1.04-.69,.92-1.35,1.43-1.98,1.53-.63,.09-1.04,.06-1.25-.08-.2-.16-.42-.33-.65-.49-.64-.48-1.24-.72-1.8-.72-.65,0-1.16,.21-1.51,.64,.65,2.92,1.49,5.9,2.52,8.94h10.54c1.25-4.07,2.22-8.09,2.92-12.05m-1.68-11.38c.54-.43,.97-.73,1.28-.9,.49-.27,.94-.41,1.34-.41l.34,.11v-.47c.04-1.22,.04-2.43,.01-3.63l-.03-.67h-18.9c-.16,2.33-.19,4.69-.09,7.1,.17-.04,.35-.06,.54-.06,.49,0,.89,.09,1.19,.26,.19,.11,.38,.3,.57,.57,.24,.3,.43,.49,.57,.57,.27,.17,.64,.26,1.1,.26,.62,0,1.15-.15,1.6-.44,.28-.17,.65-.49,1.1-.97,.45-.48,.84-.81,1.15-.99,.5-.29,.93-.33,1.28-.13l1.88,1.12c.89,.54,1.65,.67,2.27,.39,.61-.26,1.14-.53,1.58-.81,.2-.12,.6-.42,1.21-.9Z"/>
      </g>
      <g id="Layer15_3_MEMBER_0_MEMBER_0_MEMBER_1_FILL" data-name="Layer15 3 MEMBER 0 MEMBER 0 MEMBER 1 FILL">
        <path class="cls-17" d="M864.26,1067.91c-.44,.28-.97,.55-1.58,.81-.62,.27-1.38,.14-2.27-.39l-1.88-1.12c-.35-.21-.77-.16-1.28,.13-.31,.18-.69,.51-1.15,.99-.45,.47-.82,.8-1.1,.97-.45,.3-.98,.44-1.6,.44-.46,0-.82-.09-1.1-.26-.14-.09-.33-.28-.57-.57-.2-.27-.39-.46-.57-.57-.3-.17-.7-.26-1.19-.26-.2,0-.38,.02-.54,.06,.16,4.38,.74,8.83,1.76,13.36,.35-.43,.86-.64,1.51-.64,.56,0,1.16,.24,1.8,.72,.23,.17,.44,.33,.65,.49,.21,.14,.63,.16,1.25,.08,.63-.1,1.29-.61,1.98-1.53,.7-.91,1.31-1.26,1.83-1.04,.53,.23,.95,.53,1.26,.89,.31,.37,.51,.6,.6,.69,.29,.28,.52,.42,.69,.42,.61,0,1.13-.17,1.56-.52,.28-.23,.56-.61,.85-1.13,.36-.66,.58-1.04,.66-1.14,.27-.35,.59-.52,.97-.52,.02,0,.14,.04,.37,.13,.74-4.28,1.16-8.47,1.28-12.57l-.34-.11c-.4,0-.85,.14-1.34,.41-.31,.17-.73,.47-1.28,.9-.61,.48-1.02,.78-1.21,.9Z"/>
      </g>
    </g>
  </g>
  <g id="Layer_42" data-name="Layer 42">
    <g>
      <g id="Layer11_0_MEMBER_0_MEMBER_0_MEMBER_0_FILL" data-name="Layer11 0 MEMBER 0 MEMBER 0 MEMBER 0 FILL">
        <path class="cls-61" d="M893.77,964.89l-11.86-11.48-60.32,2.53,8.95,14.75,63.23-5.8Z"/>
      </g>
      <g id="Layer11_1_MEMBER_0_MEMBER_0_MEMBER_0_FILL" data-name="Layer11 1 MEMBER 0 MEMBER 0 MEMBER 0 FILL">
        <path class="cls-50" d="M834.73,914.75l7.45,45.25,45.77-2.94-7.58-45.05-45.63,2.74Z"/>
      </g>
      <g id="Layer11_2_MEMBER_0_MEMBER_0_MEMBER_0_FILL" data-name="Layer11 2 MEMBER 0 MEMBER 0 MEMBER 0 FILL">
        <path class="cls-30" d="M826.33,959.46l7.28-.74-3.2-20.61-4.08,21.35Z"/>
      </g>
      <g id="Layer11_2_MEMBER_0_MEMBER_0_MEMBER_1_FILL" data-name="Layer11 2 MEMBER 0 MEMBER 0 MEMBER 1 FILL">
        <path class="cls-28" d="M827.11,907.57l-1.31,.78,9.22,59.54,58.74-3.68,1.31-.79-58.74,3.69-9.22-59.54Z"/>
      </g>
      <g id="Layer11_2_MEMBER_0_MEMBER_0_MEMBER_2_FILL" data-name="Layer11 2 MEMBER 0 MEMBER 0 MEMBER 2 FILL">
        <path class="cls-23" d="M879.73,950.14l.47-.03-5.14-32.27-32.25,2.38,.09,.5,31.77-2.35,5.06,31.77Z"/>
      </g>
      <g id="Layer11_2_MEMBER_0_MEMBER_0_MEMBER_3_FILL" data-name="Layer11 2 MEMBER 0 MEMBER 0 MEMBER 3 FILL">
        <path class="cls-22" d="M843.44,925.45c-.69,.44-1.35,.91-1.98,1.4-1.27,.98-2.11,1.93-2.52,2.84-.22,.48-.37,1.07-.46,1.74-.04,.28-.09,.92-.15,1.9-.13,1.75-.44,3.17-.95,4.26-.73,1.65-1.94,3.07-3.62,4.27-.39,.28-.79,.54-1.21,.77l3.79,24.48,39.67-2.49c.07-.27,.1-.5,.1-.69,0-1.2-.39-3.05-1.18-5.56-.45-1.43-.73-2.31-.82-2.64-.24-.9-.37-1.58-.37-2.06,0-.67,.33-1.42,.98-2.27,.25-.33,.54-.66,.87-.98l-27.39,1.73-4.5-26.69h-.26m23.9-17.12c-.1,.96-.53,2.06-1.31,3.32-.79,1.25-2.37,2.15-4.73,2.73-2.37,.57-2.97,2.12-1.82,4.63l15.59-1.16,4.75,29.82c.71-1.82,2.01-3.85,3.91-6.1,2.09-2.49,4.46-4.73,7.13-6.74,.04-.04,.09-.07,.15-.11l-4.35-30.58-20.16,1.17c.67,1.05,.95,2.06,.85,3.02Z"/>
      </g>
      <g id="Layer11_2_MEMBER_0_MEMBER_0_MEMBER_4_FILL" data-name="Layer11 2 MEMBER 0 MEMBER 0 MEMBER 4 FILL">
        <path class="cls-24" d="M891,934.71c-.06,.03-.11,.07-.15,.11-2.67,2.01-5.05,4.25-7.13,6.74-1.89,2.24-3.2,4.28-3.91,6.1l.39,2.45-4.61,.3c-.33,.32-.62,.65-.87,.98-.65,.85-.98,1.61-.98,2.27,0,.48,.12,1.16,.37,2.06,.09,.34,.37,1.22,.82,2.64,.79,2.51,1.18,4.36,1.18,5.56,0,.19-.03,.42-.1,.69l19.07-1.2-4.08-28.69m-24.97-23.07c.78-1.26,1.22-2.36,1.31-3.32,.1-.96-.18-1.97-.85-3.02l-39.38,2.26,5.43,35.06c.42-.23,.82-.49,1.21-.77,1.68-1.2,2.88-2.62,3.62-4.27,.51-1.08,.82-2.5,.95-4.26,.07-.98,.12-1.62,.15-1.9,.09-.68,.25-1.26,.46-1.74,.42-.91,1.26-1.85,2.52-2.84,.63-.49,1.29-.96,1.98-1.4h.26l-.88-5.22,16.66-1.22c-1.15-2.51-.55-4.06,1.82-4.63,2.37-.57,3.94-1.48,4.73-2.73Z"/>
      </g>
    </g>
  </g>
  <g id="Layer_14" data-name="Layer 14">
    <g id="Layer44_0_MEMBER_0_MEMBER_0_MEMBER_0_FILL" data-name="Layer44 0 MEMBER 0 MEMBER 0 MEMBER 0 FILL">
      <path class="cls-53" d="M1467.03,852.16l-12.14-.69c-1.87,.64-3.35,2.86-4.44,6.67-.19,1.1-.25,2.35-.19,3.76,0,1.62,.03,2.87,.07,3.74l.08,.37,.41,.23c1.75,.94,3.14,.13,4.17-2.43,.64-1.62,1.18-3.77,1.62-6.44l.03,.16,.03,.07c.05,.2,.78,.46,2.21,.78,1.4,.3,2.45,.29,3.16-.03,0,.8,.02,1.74,.09,2.8,.01,2.64,1,4.47,2.96,5.49,2.59,.95,4.34,.39,5.24-1.66-.09-8.12-1.19-12.4-3.31-12.83Z"/>
    </g>
    <g id="Layer44_1_MEMBER_0_MEMBER_0_MEMBER_0_FILL" data-name="Layer44 1 MEMBER 0 MEMBER 0 MEMBER 0 FILL">
      <path class="cls-53" d="M1470.72,847.2l-11.95-6.18c-2.18-.2-4.73,1.39-7.63,4.77-.66,1.01-1.3,2.25-1.94,3.7-.98,2.29-1.51,3.56-1.61,3.81-.06,.18-.09,.31-.09,.4,.06,.18,.15,.32,.28,.43,1.28,1.74,3.05,1.54,5.33-.59,1.45-1.38,2.99-3.31,4.62-5.79v.24s.06,.03,.06,.03c-.07,.23,.52,.81,1.79,1.76,1.3,.98,2.39,1.45,3.28,1.43-.39,.82-.81,1.77-1.25,2.86-1.22,2.71-1.08,5.04,.43,6.97,2.18,2.09,4.19,2.3,6.02,.62,3.72-8.24,4.61-13.06,2.67-14.46Z"/>
    </g>
    <g id="Layer44_2_MEMBER_0_MEMBER_0_MEMBER_0_FILL" data-name="Layer44 2 MEMBER 0 MEMBER 0 MEMBER 0 FILL">
      <path class="cls-38" d="M1462.27,849.75c-.16,1.54-.37,3.65-.62,5.28-.65,4.62,.8,7.23,.39,8.8-.53,1.7-.54,2.96-.02,3.8,.1,.13,.2,.24,.29,.32,1.98,3.05,4.53,4.33,7.65,3.85,.81-.13,2.14-.65,3.98-1.56,1.84-.93,2.52-4.13,2.04-9.62,.69-6,.6-10.73-.26-14.21l-3.2-2.37c-.2-.17-.51-.39-.94-.67-5.84-4.18-9.81-6.15-11.9-5.89-4.21,1.49-7.13,2.67-8.75,3.54-1.29,.63-2.63,1.33-4.02,2.11l-.41,.28c-.06,.15-.08,.34-.06,.58-.17,2.29,1.46,3.27,4.88,2.95,1.99-.2,4.65-.81,7.98-1.84l-.17,.16-.04-.02c1.06,.81,1.93,1.46,2.61,1.95,.2,.1-.29-.26,0,0,.7,.76,.06,1.94,.58,2.56Z"/>
    </g>
    <g id="Layer44_3_MEMBER_0_MEMBER_0_MEMBER_0_FILL" data-name="Layer44 3 MEMBER 0 MEMBER 0 MEMBER 0 FILL">
      <path class="cls-40" d="M1455.84,830.44c-.81,1.48,.06,3,2.6,4.56l.42,.3c1.79,1.06,3.9,2.2,6.82,3.23h0c.24,.92,.98,7.08,1.35,8.19,.6,2.08-.21-1.16,0,0,.17,1.19-2.25,8.42-3.16,11.32-.93,2.91-2.1,.89,0,0-2.91,4.11,.48,4.18,.99,5.05l.26,.37c2.06,3.16,8.84,6.79,11.99-5-.68-14.08-.64-22.54-3.28-24.15l-2.99-1.56c-3.6-1.15-6.2-1.92-7.82-2.31l-1.28-.31c-1.57-.25-3.31-.62-5.22-1.09,.28,.2,.34,.28,.17,.25-.12,.1-.23,.26-.34,.47-.2,.19-.37,.42-.51,.7Z"/>
    </g>
    <g id="Layer44_4_MEMBER_0_MEMBER_0_MEMBER_0_FILL" data-name="Layer44 4 MEMBER 0 MEMBER 0 MEMBER 0 FILL">
      <path class="cls-40" d="M1469.71,852c-4.83,9.23-9.69,2.67-11.77,7.95-2.08,5.23-3.49,9.23-4.21,12-.72,2.71-.82,5.59-.3,8.63,.53,3.03,2.71,6.93,6.53,11.7,3.83,4.8,7.87,6.31,12.11,4.52,4.23-1.81,6.63-5.36,7.19-10.66,.59-5.34,.74-9.13,.45-11.37-.32-2.51-.9-6.52-1.76-12.03-.91-5.8-2-9.3-3.26-10.5-1.28-1.17-2.95-1.25-5-.24Z"/>
    </g>
    <path class="cls-16" d="M1519.81,1001.79c-8.83,10.62-20.69,7.89-35.57-8.2-20.53-32.27-18.88-71.18-26.76-101.9,5.39-8.51,13.16-12.51,23.32-12.02l42.99,92.51c5.76,4.77,2.51,22.59-3.99,29.61Z"/>
  </g>
  <g id="Layer_11" data-name="Layer 11" class="cls-63">
    <path class="cls-46" d="M1458.68,962.3l-835.54-31.23c-4.26-.1-7.63-3.64-7.52-7.9l2.23-91.74c.1-4.26,3.64-7.63,7.9-7.52l832.93,1.07c4.26,.1,10.9,15.63,10.79,19.88l-2.89,109.9c-.1,4.26-3.64,7.63-7.9,7.52Z"/>
  </g>
  <g id="Layer_36" data-name="Layer 36">
    <g id="Layer44_3_MEMBER_0_MEMBER_0_MEMBER_0_FILL-2" data-name="Layer44 3 MEMBER 0 MEMBER 0 MEMBER 0 FILL">
      <path class="cls-40" d="M1234.13,902.66c1.37-.78,2.99,0,4.85,2.33l.35,.39c1.28,1.64,2.68,3.6,4.06,6.29h0c.95,.2,2,.46,3.14,.78,2.14,.52,3.8,.87,4.98,1.05,1.21,.14,3.2-.24,5.97-1.14,2.78-.92,5.69-4.71,5.07-2.74,3.73-2.79,4.22,.37,5.14,.83l.4,.24c3.4,1.86,7.85,8.1-3.48,11.26-10.13,.76-21.61-2.42-23.54-4.84h0c-3.56-3.56-5.49-6.27-6.07-7.77l-.46-1.19c-.45-1.46-1.03-3.07-1.74-4.84,.23,.26,.32,.31,.27,.16,.09-.11,.23-.22,.43-.33,.16-.19,.37-.35,.63-.49Z"/>
    </g>
    <g id="Layer44_4_MEMBER_0_MEMBER_0_MEMBER_0_FILL-2" data-name="Layer44 4 MEMBER 0 MEMBER 0 MEMBER 0 FILL">
      <path class="cls-40" d="M1257.28,916.87c11.8-8.82,7.46-8.91,2.59-12.68,3.97-3.32,7.08-5.68,9.34-7.1,2.2-1.4,4.8-2.3,7.8-2.68,2.99-.38,7.44,.46,13.36,2.52,5.95,2.06,8.95,5.22,9,9.49,.04,4.26-2.27,7.39-6.91,9.37-4.67,2.02-8.09,3.21-10.26,3.59-2.43,.42-6.35,1.03-11.76,1.82-5.7,.82-9.35,.83-10.95,.05-1.59-.81-2.33-2.27-2.22-4.37Z"/>
    </g>
    <g id="Layer44_0_MEMBER_0_MEMBER_0_MEMBER_0_FILL-2" data-name="Layer44 0 MEMBER 0 MEMBER 0 MEMBER 0 FILL">
      <path class="cls-53" d="M1256.35,914.45l-5.49-10.59c-.16-1.85,1.29-3.78,4.35-5.81,.93-.48,2.06-.88,3.38-1.22,1.49-.45,2.64-.78,3.46-.99l.37-.03,.38,.3c1.57,1.29,1.38,2.75-.57,4.38-1.23,1.03-2.99,2.11-5.27,3.25l.16-.02h.08c.21,0,.74,.57,1.6,1.75,.83,1.16,1.25,2.09,1.24,2.82,.74-.23,1.61-.47,2.61-.71,2.43-.73,4.5-.36,6.23,1.09,1.91,2.04,2.1,3.74,.58,5.12-7.5,2.2-11.87,2.42-13.11,.66Z"/>
    </g>
    <g id="Layer44_1_MEMBER_0_MEMBER_0_MEMBER_0_FILL-2" data-name="Layer44 1 MEMBER 0 MEMBER 0 MEMBER 0 FILL">
      <path class="cls-40" d="M1252.65,916.21l-7.64-11.01c-.47-2.03,.79-4.43,3.79-7.19,.93-.63,2.07-1.25,3.43-1.87,2.16-.95,3.35-1.48,3.58-1.57,.17-.06,.3-.09,.38-.09,.18,.05,.34,.13,.47,.25,1.89,1.16,1.91,2.81,.08,4.97-1.19,1.38-2.92,2.85-5.18,4.41h.24s.04,.05,.04,.05c.22-.07,.87,.47,1.97,1.63,1.14,1.19,1.74,2.2,1.83,3.03,.76-.38,1.66-.79,2.69-1.22,2.54-1.19,4.87-1.1,6.99,.27,2.35,1.99,2.81,3.86,1.37,5.6-7.72,3.62-12.4,4.53-14.04,2.75Z"/>
    </g>
    <g id="Layer44_2_MEMBER_0_MEMBER_0_MEMBER_0_FILL-2" data-name="Layer44 2 MEMBER 0 MEMBER 0 MEMBER 0 FILL">
      <path class="cls-40" d="M1254.43,910.14c1.51-.17,3.06-.39,4.65-.66,4.51-.69,7.52-1.24,9.02-1.65,1.62-.53,2.88-.56,3.78-.09,.14,.09,.26,.18,.35,.26,3.28,1.79,4.87,4.14,4.78,7.06-.03,.76-.38,2-1.05,3.74-.69,1.73-3.79,2.42-9.31,2.07-5.87,.75-10.59,.75-14.16,.02l-2.76-2.93c-.19-.18-.45-.47-.78-.87-4.89-5.37-7.34-9.03-7.34-10.98,.95-3.95,1.76-6.69,2.42-8.22,.47-1.21,1-2.47,1.59-3.78l.23-.39c.14-.06,.33-.08,.57-.07,2.25-.2,3.44,1.3,3.54,4.49,.05,1.86-.22,4.34-.83,7.46l.14-.16-.03-.04c.94,.97,1.7,1.77,2.26,2.39,.13,.19,.34,.41,.63,.67,.84,.64,1.61,1.19,2.29,1.66Z"/>
    </g>
  </g>
  <g id="Layer_9" data-name="Layer 9">
    <rect class="cls-19" x="609.43" y="795.92" width="854.55" height="107.19" rx="7.71" ry="7.71" transform="translate(34.26 -40.17) rotate(2.26)"/>
    <g id="Layer3_0_FILL-5" data-name="Layer3 0 FILL">
      <path class="cls-32" d="M835.09,807.89l44.49,5.56,2.98,3.6-45.06-5.63-4.67,47.69-2.54-3.07,4.79-48.15Z"/>
      <path class="cls-27" d="M882.56,817.05l.02,.03-4.67,47.74-45.08-5.67v-.05s4.67-47.69,4.67-47.69l45.06,5.63m-7.55,10.42l.64-6.53-32.92-4.13-.65,6.56,32.93,4.11m-7.87,8.44l6.74,.83,.59-6.03-6.72-.82-.62,6.02m-.2,1.73l-.56,6.01,6.74,.85,.56-6.01-6.74-.85m6,8.67l-6.74-.85-.59,6,6.71,.85,.62-5.99m-17.21-3.99l.56-6.01-6.74-.83-.56,6.01,6.74,.83m8.5,2.9l-6.74-.85-.59,6,6.74,.85,.59-6m.77-7.81l-6.74-.83-.59,6,6.74,.85,.59-6.03m.2-1.73l.59-6.03-6.74-.85-.59,6.03,6.74,.85m-8.74-1.1l.6-6.05-6.69-.79-.62,6.02,6.72,.82m-14.83-7.97l-.59,6.03,6.74,.85,.59-6.03-6.74-.85m5.38,14.64l.59-6-6.74-.85-.59,6,6.74,.85m25.16,12.8l-6.74-.85-.59,6.03,6.74,.85,.59-6.03m-16.02,4.11l6.71,.85,.62-6.02-6.74-.85-.59,6.03m-1.23-8.04l.62-5.99-6.74-.83-.59,6,6.72,.82m-.76,7.76l.59-6.03-6.72-.82-.59,6.03,6.72,.82m-7.33-14.85l-6.74-.85-1.61,13.59,.25,.2,6.74,.85,1.36-13.79Z"/>
      <path class="cls-57" d="M840.1,842.17l6.74,.85-1.36,13.79-6.74-.85-.25-.2,1.61-13.59m14.66,9.68l-.59,6.03-6.72-.82,.59-6.03,6.72,.82m.79-7.73l-.62,5.99-6.72-.82,.59-6,6.74,.83m7.33,14.88l-6.71-.85,.59-6.03,6.74,.85-.62,6.02m2.56-5.81l6.74,.85-.59,6.03-6.74-.85,.59-6.03m-17.83-17.95l-.59,6-6.74-.85,.59-6,6.74,.85m-6.57-2.61l.59-6.03,6.74,.85-.59,6.03-6.74-.85m16.02-4.11l-.6,6.05-6.72-.82,.62-6.02,6.69,.79m8.73,1.13l-.59,6.03-6.74-.85,.59-6.03,6.74,.85m-7.53,6.93l6.74,.83-.59,6.03-6.74-.85,.59-6m-.77,7.79l6.74,.85-.59,6-6.74-.85,.59-6m-1.2-8.05l-.56,6.01-6.74-.83,.56-6.01,6.74,.83m9.91,9.15l6.74,.85-.62,5.99-6.71-.85,.59-6m.18-1.81l.56-6.01,6.74,.85-.56,6.01-6.74-.85m7.5-6.91l-6.74-.83,.62-6.02,6.72,.82-.59,6.03Z"/>
      <path class="cls-45" d="M875.65,820.94l-.64,6.53-32.93-4.11,.65-6.56,32.92,4.13Z"/>
    </g>
  </g>
  <g id="Layer_10" data-name="Layer 10">
    <g>
      <g id="Layer4_0_FILL" data-name="Layer4 0 FILL">
        <path class="cls-58" d="M604.12,792.29l-6.42-.25-.27,6.83,6.42,.25,.27-6.83Z"/>
        <path class="cls-18" d="M1445.96,876.76l-78.73-3.1c-2.29-.09-4.22,1.81-4.32,4.24l-.17,4.26c-.1,2.43,1.68,4.48,3.97,4.57l78.73,3.1c2.29,.09,4.22-1.81,4.32-4.24l.17-4.26c.1-2.43-1.68-4.48-3.97-4.57Zm4.5-8.86l.17-4.26c.1-2.43-1.68-4.48-3.97-4.57l-78.73-3.1c-2.29-.09-4.22,1.81-4.32,4.24l-.17,4.26c-.1,2.43,1.68,4.48,3.97,4.57l78.73,3.1c2.29,.09,4.22-1.81,4.32-4.24Z"/>
        <path class="cls-15" d="M1447.22,823.65l-77.06-3.04c-2.75-.11-5.07,2.17-5.19,5.1l-.1,2.48c-.12,2.92,2.02,5.38,4.77,5.49l77.06,3.04c2.75,.11,5.07-2.17,5.19-5.1l.1-2.48c.12-2.92-2.02-5.38-4.77-5.49Zm3.97,25.66l.1-2.48c.12-2.92-2.02-5.38-4.77-5.49l-77.06-3.04c-2.75-.11-5.07,2.17-5.19,5.1l-.1,2.48c-.12,2.92,2.02,5.38,4.77,5.49l77.06,3.04c2.75,.11,5.07-2.17,5.19-5.1Z"/>
      </g>
      <path class="cls-48" d="M1445.96,908.19l-81.2-3.2c-1.93-.08-3.43-1.8-3.35-3.85l.27-6.89c.08-2.05,1.71-3.65,3.64-3.57l81.2,3.2c1.93,.08,3.43,1.8,3.35,3.85l-.27,6.89c-.08,2.05-1.71,3.65-3.64,3.57Zm-81.02-4.44l80.93,3.19c1.36,.05,2.51-1.07,2.56-2.52l.26-6.59c.06-1.44-1-2.66-2.36-2.71l-80.93-3.19c-1.36-.05-2.51,1.07-2.56,2.52l-.26,6.59c-.06,1.44,1,2.66,2.36,2.71Z"/>
      <path class="cls-46" d="M1126.6,817.86l-26.27-1.04c-.97-.04-1.73-.91-1.68-1.94h0c.04-1.03,.86-1.84,1.83-1.8l26.27,1.04c.97,.04,1.73,.91,1.68,1.94h0c-.04,1.03-.86,1.84-1.83,1.8Zm-482.97-19.03l-32.69-1.29c-.97-.04-1.73-.91-1.68-1.94h0c.04-1.03,.86-1.84,1.83-1.8l32.69,1.29c.97,.04,1.73,.91,1.68,1.94h0c-.04,1.03-.86,1.84-1.83,1.8Z"/>
      <path class="cls-36" d="M910.02,866.83l.07-1.87,67.46,2.35-.07,1.87-67.46-2.35Zm-231.39-20.93l.07-1.87,82.65,2.95-.07,1.87-82.65-2.95Zm231.88,8.52l.06-1.87,33.01,.99-.06,1.87-33.01-.99Zm.39-9.93l.07-1.87,78.56,2.79-.07,1.87-78.56-2.79Zm-231.78-11l.07-1.87,75.06,2.65-.07,1.87-75.06-2.65Zm232.27-1.42l.07-1.87,60.46,2.07-.07,1.87-60.46-2.07Zm186.34,7.03l.07-1.87,133.4,4.95-.07,1.87-133.4-4.95Zm-452.57-19.39l-36.21-1.43,.07-1.87,36.21,1.43-.07,1.87Zm71.06-7.15l-36.21-1.43,.07-1.87,36.21,1.43-.07,1.87Zm-70.66-2.78l-36.21-1.43,.07-1.87,36.21,1.43-.07,1.87Zm574.99,21.73l-122.32-4.82,.07-1.87,122.32,4.82-.07,1.87Z"/>
      <path class="cls-46" d="M1042.74,826.99l-129.78-5.11c-.97-.04-1.73-.91-1.68-1.94h0c.04-1.03,.86-1.84,1.83-1.8l129.78,5.11c.97,.04,1.73,.91,1.68,1.94h0c-.04,1.03-.86,1.84-1.83,1.8Zm40.64-10.83l-169.93-6.7c-.97-.04-1.73-.91-1.68-1.94h0c.04-1.03,.86-1.84,1.83-1.8l169.93,6.7c.97,.04,1.73,.91,1.68,1.94h0c-.04,1.03-.86,1.84-1.83,1.8Zm-335.22-13.21l-66.56-2.62c-.97-.04-1.73-.91-1.68-1.94h0c.04-1.03,.86-1.84,1.83-1.8l66.56,2.62c.97,.04,1.73,.91,1.68,1.94h0c-.04,1.03-.86,1.84-1.83,1.8Z"/>
      <rect class="cls-47" x="687.2" y="811.67" width="2.49" height="17.62" transform="translate(-158.51 1476.09) rotate(-87.74)"/>
    </g>
  </g>
  <g id="Layer_27" data-name="Layer 27">
    <line class="cls-6" x1="488.28" y1="1608.37" x2="527.54" y2="1329.03"/>
    <line class="cls-6" x1="533.33" y1="1329.03" x2="563.45" y2="1570.03"/>
  </g>
  <g id="Layer_17" data-name="Layer 17">
    <g>
      <rect class="cls-35" x="485.71" y="1556.14" width="226.01" height="14.68"/>
      <polygon points="485.71 1557.6 711.73 1557.6 731.41 1544.48 505.39 1544.48 485.71 1557.6"/>
      <polygon class="cls-35" points="731.41 1556.54 711.73 1570.81 711.73 1557.6 731.41 1544.48 731.41 1556.54"/>
    </g>
    <g>
      <rect class="cls-35" x="523.58" y="1327.17" width="226.01" height="14.68"/>
      <polygon points="523.58 1328.64 749.6 1328.64 769.28 1315.51 543.26 1315.51 523.58 1328.64"/>
      <polygon class="cls-35" points="769.28 1327.57 749.6 1341.84 749.6 1328.64 769.28 1315.51 769.28 1327.57"/>
    </g>
    <g>
      <rect class="cls-35" x="539.12" y="1402.28" width="226.01" height="14.68"/>
      <polygon class="cls-41" points="539.12 1403.75 765.14 1403.75 773.89 1399.36 545.89 1399.61 539.12 1403.75"/>
      <polygon class="cls-35" points="773.9 1411.42 765.14 1416.96 765.14 1403.75 773.89 1399.36 773.9 1411.42"/>
    </g>
    <g>
      <rect class="cls-35" x="552.8" y="1499.78" width="226.01" height="14.68"/>
      <polygon class="cls-41" points="552.8 1501.25 778.81 1501.25 787.57 1496.86 559.57 1497.11 552.8 1501.25"/>
      <polygon class="cls-35" points="787.58 1508.92 778.81 1514.46 778.81 1501.25 787.57 1496.86 787.58 1508.92"/>
    </g>
    <g>
      <rect class="cls-35" x="503.15" y="1444" width="226.01" height="14.68"/>
      <polygon points="503.15 1445.47 729.16 1445.47 748.84 1432.35 522.83 1432.35 503.15 1445.47"/>
      <polygon class="cls-35" points="748.85 1444.41 729.16 1458.68 729.16 1445.47 748.84 1432.35 748.85 1444.41"/>
    </g>
  </g>
  <g id="Layer_26" data-name="Layer 26">
    <line class="cls-6" x1="718.64" y1="1608.37" x2="757.89" y2="1329.03"/>
    <line class="cls-6" x1="757.89" y1="1329.03" x2="788.02" y2="1570.03"/>
  </g>
  <g id="Layer_37" data-name="Layer 37">
    <g id="Layer55_0_FILL" data-name="Layer55 0 FILL">
      <path d="M1658.32,1571.98c3.83,3.36,6.21,7.27,7.14,11.72l-42.21,.33c-.99-6.73,0-11.66,2.97-14.81,2.97-3.12,7.79-4.54,14.47-4.27,6.68,.24,12.55,2.59,17.62,7.04Z"/>
    </g>
    <g id="Layer54_0_FILL" data-name="Layer54 0 FILL">
      <path d="M1456.53,1584.65c10.79-9.01,31.71-15.76,62.75-20.26,7.36,2.71,11.49,9.47,12.38,20.26h-75.14"/>
    </g>
  </g>
  <g id="Layer_16" data-name="Layer 16">
    <g id="Layer51_0_FILL" data-name="Layer51 0 FILL">
      <path class="cls-14" d="M1577.26,1128.95c25.15-.79,39.69,8.97,43.6,29.29l40.14,410.99-43.6,8.14-63.33-416.69c-3.42-17.56,4.31-28.14,23.19-31.74Z"/>
    </g>
    <g id="Layer50_0_FILL" data-name="Layer50 0 FILL">
      <path class="cls-14" d="M1482.13,1372.42l13.37-217.74c1.48-20.69,12.31-30.19,32.47-28.48,25.77,2.38,41.68,13.38,41.27,31.61l-29.6,222.75c7.27,29.95,9.51,100.47-5.73,201.7-15.8-.5-27.86-5.93-36.18-16.27-.53-82.04-7.48-121.54-15.61-193.56Z"/>
    </g>
  </g>
  <g id="Layer_12" data-name="Layer 12">
    <g id="Layer47_0_FILL" data-name="Layer47 0 FILL">
      <path class="cls-16" d="M1585.7,954.49c29.51-9.47,51.53,2.54,51.46,23.85-31.24,30.54-77.85,30.02-129.49,36.79-16.37,2.09-25.78-1.32-28.23-10.22-2.49-10.25-6.24-55.41,4.96-61.2,34.06-16.75,71.82,20.32,101.3,10.79Z"/>
    </g>
  </g>
  <g id="Layer_38" data-name="Layer 38">
    <g id="Layer53_0_FILL" data-name="Layer53 0 FILL">
      <path class="cls-40" d="M1522.56,843.34c.47-5.92,1.68-17.75,3.47-24.35,1.89-6.57,6.6-9.86,14.15-9.86s13.99,4.31,19.42,12.93c5.31,8.62,7.96,19.04,7.96,31.27s9.01,25.26,3.44,33.55c-5.53,8.26-7.53,12.59-14.7,12.83-6.52,3.86-24.59,8.22-27.97,1.94-3.86-7-4.58-17.09-4.45-23.63h0c-15.4-3.85-3.61-6.02-1.33-34.67Z"/>
    </g>
    <g class="cls-13">
      <g id="Layer53_0_FILL-2" data-name="Layer53 0 FILL">
        <path d="M1571.01,886.87c-5.53,8.26-7.53,12.59-14.7,12.83-4.59,2.72-14.91,5.68-21.79,5.01-2.89-.28,42.05-26.13,36.49-17.84Z"/>
      </g>
    </g>
  </g>
  <g id="Layer_13" data-name="Layer 13">
    <g id="Layer52_0_FILL" data-name="Layer52 0 FILL">
      <path class="cls-40" d="M1550.54,862.29h30.79l14.05,79.2c-8.09,6.34-16.77,9.51-26.04,9.51s-18.75-3.17-28.53-9.51l9.73-79.2Z"/>
    </g>
    <g id="Layer49_0_FILL" data-name="Layer49 0 FILL">
      <path class="cls-54" d="M1570.04,890.85c-17.44-49.73-36.74-11.88-25.98-61.24-13.11-6.19-31.55-12.25-18.93-36,7.05-10.39-1.11,5.94,25.61,4.82,35.98-1.5,53.12,24.71,44.17,33.03,11.51,2.6-8.16,25.98-7.42,60.87-9.94,1.27-11.51,.74-17.44-1.48Z"/>
    </g>
    <g id="Layer48_0_FILL" data-name="Layer48 0 FILL">
      <path class="cls-40" d="M1541.35,853.77c1.05-3.49,2.77-5.82,5.13-6.97,2.43-1.13,4.75-1.35,6.95-.67,2.4,.71,4,2.01,4.8,3.91,.96,1.95,.91,4.66-.14,8.13-1.09,3.49-2.81,6.25-5.18,8.26-2.43,2.04-4.8,2.75-7.1,2.13-2.3-.59-3.88-2.32-4.75-5.2-.83-2.93-.74-6.13,.29-9.59Z"/>
    </g>
    <g id="Layer43_0_FILL" data-name="Layer43 0 FILL">
      <path class="cls-19" d="M1509.25,1030.32l-28.07-91.56c81.9-21.66,109.94-27.04,164.74,14.63,4.55,17.65,3.18,43.09-4.12,76.31-7.33,33.25-15.67,95.52-14.01,134.24-28.49,19.25-84.69,12.32-123.95-3.08,10.01-48.5,10.01-78.42,5.42-130.54Z"/>
      <path class="cls-16" d="M1488.63,954.28l19.82,48.09c8.44,25.94,17.06,102.95,19.61,166.47-23.71-6.69-38.09-13.38-38.09-13.38,16.98-153.91,6.93-151.56-1.34-201.19Z"/>
    </g>
  </g>
  <g id="Layer_20" data-name="Layer 20">
    <g id="Layer44_5_MEMBER_0_MEMBER_0_MEMBER_0_FILL" data-name="Layer44 5 MEMBER 0 MEMBER 0 MEMBER 0 FILL">
      <path class="cls-40" d="M1247.37,900.02h0c-.45-2.88,3.92-5.69,13.22,.14,5.13,3.19,12.9,1.03,18.27,2.02,11.89,2.51,9.44,6.86,9.44,6.86,.87,4.62-7.07,4.42-8.33,6.31-1.25,1.85-2.86,2.85-4.83,3.02-1.97,.18-12.11-2.05-14.37-3.99-2.29-1.87-.84-2.28-5.26-4.41-4.41-2.1-4.98-5.58-8.14-9.96Z"/>
    </g>
  </g>
  <g id="Layer_15" data-name="Layer 15">
    <g id="Layer41_0_FILL" data-name="Layer41 0 FILL">
      <path class="cls-19" d="M1275.46,920.88c-1.19-10.03-.36-14.86,7.7-20.98,28.91,7.8,82.25,19.86,106.1,23,26.36,4.39,34.08,9.34,37.65,26.98,.12,13.73-18.83,17.57-33.93,14-33.55-3.33-77.85-16.24-117.52-43Z"/>
    </g>
    <g id="Layer40_0_FILL" data-name="Layer40 0 FILL">
      <path class="cls-19" d="M1382.98,960.55c-13.81-9.41-2.51-36.4,10.04-35.77,38.97-1.84,83.26,7.78,133.17,4.53,14.16,4.61,2.92,31.4-3.04,46.27-4.7,11.19,5.83,23.38-18.14,18.86-40.24-7.68-95.48-19.39-122.02-33.9Z"/>
    </g>
  </g>
  <g id="Layer_19" data-name="Layer 19">
    <g id="Layer44_5_MEMBER_0_MEMBER_0_MEMBER_0_FILL-2" data-name="Layer44 5 MEMBER 0 MEMBER 0 MEMBER 0 FILL">
      <path class="cls-40" d="M1457.64,846.42h0c-2.87-.47-6.13,4.01-1.11,13.58,2.74,5.27,3.92,11.28,5.39,14.83,6.04,12.16,12.13,3.25,12.13,3.25,4.59,.9-6.01,3.14-3.98,1.85,1.99-1.28,3.16-2.93,3.52-4.95,.37-2.03-.32-4.21-2.07-6.54-1.68-2.35-3.39-5.8-5.12-10.34-1.71-4.53-4.63-8.43-8.75-11.68Z"/>
    </g>
  </g>
  <g id="Layer_22" data-name="Layer 22">
    <g id="Layer12_6_MEMBER_0_MEMBER_0_MEMBER_0_FILL" data-name="Layer12 6 MEMBER 0 MEMBER 0 MEMBER 0 FILL">
      <path d="M560.66,1420.78l5.08,2.03c3.13,.9,5.95,3.27,8.46,7.1,2.34,3.72-2.52,6.76-14.59,9.13-11.98,2.03-20.53,2.87-25.65,2.54-4.95-.68-7.47-1.8-7.55-3.38-.26-1.69-.13-4,.39-6.93,22.23-1.35,33.51-4.85,33.86-10.48Z"/>
    </g>
    <g id="Layer12_6_MEMBER_0_MEMBER_0_MEMBER_1_FILL" data-name="Layer12 6 MEMBER 0 MEMBER 0 MEMBER 1 FILL">
      <path class="cls-33" d="M560.66,1420.78c-.35,5.63-11.63,9.13-33.86,10.48,1.22-8.57,2.17-13.02,2.86-13.35,7.81-2.14,18.14-1.18,30.99,2.87Z"/>
    </g>
    <g id="Layer12_7_MEMBER_0_MEMBER_0_MEMBER_0_FILL" data-name="Layer12 7 MEMBER 0 MEMBER 0 MEMBER 0 FILL">
      <path class="cls-33" d="M714.95,1425.71c-.52,5.52-14.89,5.52-43.1,0,1.3-7.89,2.52-12,3.65-12.34,10.24,.34,23.4,4.45,39.46,12.34Z"/>
    </g>
    <g id="Layer12_7_MEMBER_0_MEMBER_0_MEMBER_1_FILL" data-name="Layer12 7 MEMBER 0 MEMBER 0 MEMBER 1 FILL">
      <path d="M721.72,1429.09c4.08,2.14,6.47,4.68,7.16,7.61,.35,2.7-7.81,4.06-24.48,4.06s-27.78-1.35-32.56-4.06c-1.74-1.24-1.74-4.9,0-10.99,28.22,5.52,42.58,5.52,43.1,0l6.77,3.38Z"/>
    </g>
  </g>
  <g id="Layer_25" data-name="Layer 25">
    <g id="Layer16_0_FILL" data-name="Layer16 0 FILL">
      <path class="cls-33" d="M631.37,676.24c2.96-8.97,7.71-15.5,14.26-19.57,6.59-4.07,13.75-6.14,21.49-6.23,7.74-.12,15.16,2.82,22.24,8.82,7.09,6,11.67,11.48,13.76,16.42,1.73,4.06,2.67,6.27,2.84,6.64v.05c4.32,14.66,4.42,27.21,.31,37.66-4.08,10.45-11.95,19.74-23.62,27.87-6.84,4.55-12.91,5.53-18.22,2.93-5.31-2.6-10.37-7.17-15.18-13.69-4.8-6.56-9.44-14.89-13.91-24.98-4.43-10.09-5.76-22.06-3.97-35.92Z"/>
    </g>
    <g id="Layer15_0_MEMBER_0_MEMBER_0_MEMBER_0_FILL-2" data-name="Layer15 0 MEMBER 0 MEMBER 0 MEMBER 0 FILL">
      <path class="cls-33" d="M674.09,828.04c-2.93,.23-7.27-1.13-13.04-4.1-44.67,22.38-53.25,2.3-25.76-60.24l38.8,64.33m-11.96-139.16l7.24,13.09c-3.15,9.46-5.2,20.12-6.16,31.99-.66,7-.82,14.44-.49,22.35-9.12-1.25-15.96-5.02-20.52-11.33,3.08-11.64,5.06-23.12,5.93-34.44,.33-4.58,.61-9.6,.83-15.04l13.16-6.62Z"/>
    </g>
    <g id="Layer15_0_MEMBER_0_MEMBER_0_MEMBER_1_FILL-2" data-name="Layer15 0 MEMBER 0 MEMBER 0 MEMBER 1 FILL">
      <path class="cls-33" d="M635.3,763.71c3.32-8.53,5.62-14.77,6.91-18.73,4.56,6.31,11.4,10.08,20.52,11.33-.05,5.82,.27,16.24,.96,31.28,15.04,26.4,18.51,39.88,10.41,40.46l-38.8-64.33Z"/>
    </g>
    <g id="Layer14_1_MEMBER_0_MEMBER_0_MEMBER_0_FILL" data-name="Layer14 1 MEMBER 0 MEMBER 0 MEMBER 0 FILL">
      <path class="cls-56" d="M753.35,890.59c-20.31,11.71-47.63,27.79-78.01,38.42-6.96,2.75-12.53,4.02-16.71,3.78-12.28-8.12-13.56-17.31,6.21-27.08,.37-.6,0-.86,0,0,5.8-2.51,86.25-31.22,86.25-31.22,3.9,.02,9.01,12.31,2.25,16.09Z"/>
    </g>
    <g id="Layer12_1_MEMBER_0_MEMBER_0_MEMBER_0_FILL-2" data-name="Layer12 1 MEMBER 0 MEMBER 0 MEMBER 0 FILL">
      <path class="cls-34" d="M668.13,787.18l-47.31-2.89,1.45-13.9,6.82-7.49c5.02-.3,10.19-.08,15.52,.65,6.86,.94,14.24,2.65,22.15,5.13l4.19,10.15-2.81,8.35Z"/>
    </g>
    <g id="Layer12_2_MEMBER_0_MEMBER_0_MEMBER_0_FILL" data-name="Layer12 2 MEMBER 0 MEMBER 0 MEMBER 0 FILL">
      <path d="M635.08,946.38c1.99-.21,3.94-.31,5.85-.31,2.94,0,5.63,.21,8.06,.63,21.13,2.71,32.8,17.48,35.01,44.31,.74,5.56,1.4,11.5,1.99,17.83,.74,8.69,1.18,18.18,1.33,28.46,.37,12.93,.44,25.96,.22,39.1l-.77,34.51c-.96,25.58-2.25,50.32-3.87,74.24-1.1,6.88-7.73,10.01-19.88,9.38-10.9-.97-17.15-5.7-18.77-14.18v-.42l-39.53-177.46,.33-.1c-1.77-5.98-2.94-11.82-3.53-17.52-2.14-22.87,7.22-35.45,28.05-37.74,1.55-.35,3.39-.59,5.52-.73Z"/>
    </g>
    <path id="Layer12_2_MEMBER_1_MEMBER_0_1_STROKES" data-name="Layer12 2 MEMBER 1 MEMBER 0 1 STROKES" class="cls-3" d="M605.11,1002.34l-.33,.1,39.53,177.45v.42c1.62,8.48,7.88,13.21,18.77,14.18,12.15,.63,18.77-2.5,19.88-9.38,1.62-23.91,2.91-48.66,3.86-74.23l.77-34.51c.22-13.14,.15-26.17-.22-39.1-.15-10.29-.59-19.78-1.33-28.46-.59-6.33-1.25-12.27-1.99-17.83-2.21-26.83-13.88-41.6-35.01-44.31-2.43-.42-5.12-.63-8.06-.63-1.91,0-3.87,.1-5.85,.31-2.13,.14-3.98,.38-5.52,.73-20.83,2.29-30.18,14.87-28.05,37.74,.59,5.7,1.77,11.54,3.53,17.52Z"/>
    <g id="Layer12_3_MEMBER_0_MEMBER_0_MEMBER_0_FILL" data-name="Layer12 3 MEMBER 0 MEMBER 0 MEMBER 0 FILL">
      <path class="cls-33" d="M649.77,1318.6l35.89-17.41c.29,39.2,.4,81.12,.33,125.74-2.36,.28-4.05,.42-5.08,.42-4.56,0-6.96-1.22-7.18-3.65l.33-1.67-24.29-103.43Z"/>
    </g>
    <g id="Layer12_3_MEMBER_0_MEMBER_0_MEMBER_1_FILL" data-name="Layer12 3 MEMBER 0 MEMBER 0 MEMBER 1 FILL">
      <path d="M664.35,1160.43c11.63,1.46,17.63,7.96,18,19.5,1.84,37.12,2.94,77.54,3.31,121.26l-35.89,17.41-9.72-42.33c-.44-1.18-.77-2.95-.99-5.32-1.1-14.81,.63-47.23,5.19-97.28,4.71-9.73,11.41-14.15,20.1-13.24Z"/>
    </g>
    <g id="Layer12_4_MEMBER_0_MEMBER_0_MEMBER_0_FILL" data-name="Layer12 4 MEMBER 0 MEMBER 0 MEMBER 0 FILL">
      <path class="cls-33" d="M528.85,1325.06l34.57-3.86c-5.74,30.17-11.93,64.19-18.55,102.07-5.67,1.81-11.19,1.81-16.56,0,2.72-7.23,3.09-25.02,1.1-53.38-.81-13.69-.99-28.64-.55-44.83Z"/>
    </g>
    <g id="Layer12_4_MEMBER_0_MEMBER_0_MEMBER_1_FILL" data-name="Layer12 4 MEMBER 0 MEMBER 0 MEMBER 1 FILL">
      <path d="M588.48,1194.21l-.22,.21c-3.9,23.29-8.06,44.8-12.48,64.54-3.09,14.39-7.22,35.14-12.37,62.25l-34.57,3.86c.66-19.18,2.14-39.97,4.42-62.35,4.42-42.82,8.28-69.09,11.6-78.82v-.63c5.3-10.29,13.21-14.25,23.74-11.89,13.77,2.92,20.39,10.53,19.88,22.83Z"/>
    </g>
    <g id="Layer12_5_MEMBER_0_MEMBER_0_MEMBER_0_FILL" data-name="Layer12 5 MEMBER 0 MEMBER 0 MEMBER 0 FILL">
      <path d="M568.27,969.52c4.27-11.12,12.74-16.68,25.4-16.68,2.87,0,5.37,.21,7.51,.63,16.86,2.43,26.8,11.54,29.82,27.32,1.25,6.19,1.44,13.21,.55,21.06l-.22,.1c-3.53,26.69-7.21,50.88-11.04,72.57-4.27,24.4-14.8,64.92-31.58,121.57l-.44,.31c-3.83,10.7-12.22,15.01-25.18,12.93-11.85-1.25-17.93-8.79-18.22-22.63v-.52c2.8-65.83,6.92-123.07,12.37-171.72,2.65-15.64,6.07-29.72,10.27-42.23l.77-2.71Z"/>
    </g>
    <g id="Layer12_8_MEMBER_0_MEMBER_0_MEMBER_1_FILL" data-name="Layer12 8 MEMBER 0 MEMBER 0 MEMBER 1 FILL">
      <path class="cls-31" d="M590.07,795.53c-.28-9.44,3.87-15.66,12.45-18.65,2.09-1.27,4.18-1.79,6.28-1.59,15.46,1.06,34.87,35.17,58.2,102.31,2.6,6.92,3.6,12.58,3,16.98-.37,4.4-2.26,7.42-5.69,9.04-1.01,.4-1.98,.71-2.91,.94-1.53,.05-2.82-.27-3.86-.97-2.51-.89-4.52-2.64-6.05-5.25l-23.47-35.52-.31,.1c-24.91-35.76-37.46-58.23-37.64-67.4Z"/>
    </g>
    <g id="Layer12_9_MEMBER_0_MEMBER_0_MEMBER_0_FILL" data-name="Layer12 9 MEMBER 0 MEMBER 0 MEMBER 0 FILL">
      <path class="cls-26" d="M666.81,768.27l4.31,9.22,13.01,6.72c5.07,2.59,8.56,8.29,10.48,17.11,1.38,7.84,9.04,35.07,14.58,47.27,1.21,3.11-2.26-11.28-2.02-8.72l7.77,30.75c-1.44,9.58-11.3,12.1-21.55,15.32,0,0-14.85,35.92,2.01,135.53-9.67,2.4-16.1,2.78-25.88,4.25-21.46,3.17-40.31,5.15-56.54,5.95-30.35,1.88-53.99,2.2-70.9,.94,9.34-46.01,21.68-83.33,37.04-111.96,1.48-2.67,3.14-6.1,4.97-10.27,10.73-25.75,11.98-65.61,3.48-95.32-8.56-30.35,6.7-37.35,13.89-40.23,1.04-.56,20.98-5.59,20.98-5.59l6.72-6.76,21.98,2.27,15.68,3.51Z"/>
    </g>
    <g id="Layer6_0_MEMBER_0_MEMBER_0_MEMBER_0_FILL" data-name="Layer6 0 MEMBER 0 MEMBER 0 MEMBER 0 FILL">
      <path d="M633.94,627.36c.61,.08,1.19,.19,1.76,.32,1.49-4.7,4.4-8.61,8.73-11.73,5.52-3.93,11.72-5.42,18.62-4.48s12.48,4.05,16.76,9.32c1.67,2.11,2.94,4.3,3.82,6.57,4.25-1.8,8.85-2.37,13.79-1.69,6.95,.95,12.55,4.07,16.81,9.37,4.27,5.28,5.96,11.21,5.07,17.77-.13,.98-.29,1.8-.47,2.46l1.23,.12c5.82,.8,10.54,3.42,14.15,7.86,3.57,4.47,4.98,9.46,4.23,14.96-.75,5.51-3.45,9.93-8.09,13.25-1.73,1.26-3.6,2.24-5.62,2.93,2.89,3.93,4.01,8.28,3.35,13.06-.69,5.07-3.17,9.13-7.44,12.19-3.78,2.7-7.99,3.93-12.63,3.67,.97,2.18,1.29,4.5,.96,6.96-.5,3.67-2.3,6.6-5.39,8.81-3.11,2.23-6.61,3.07-10.49,2.54s-7.01-2.28-9.37-5.26c-.73-.87-1.32-1.77-1.77-2.72-1.55,.49-3.23,.61-5.03,.36-3.08-.42-5.59-1.82-7.5-4.2-.97-1.2-1.66-2.5-2.09-3.91-3.47,1.64-7.29,2.18-11.45,1.61-3.57-.49-6.69-1.7-9.36-3.63-.98,2.13-2.51,3.94-4.58,5.42-3.23,2.31-6.87,3.19-10.93,2.63s-7.33-2.38-9.82-5.47c-2.19-2.73-3.23-5.72-3.12-8.98-.84-.03-1.65-.1-2.43-.21-4.94-.68-8.93-2.9-11.98-6.69-3.05-3.8-4.25-8.02-3.62-12.65,.28-2.03,.89-3.91,1.83-5.65-1.73-1.19-3.27-2.64-4.62-4.36-3.61-4.44-5.04-9.41-4.29-14.89s3.46-9.89,8.14-13.24c2.14-1.54,4.45-2.64,6.94-3.3-1.09-3.15-1.39-6.47-.92-9.95,.85-6.2,3.9-11.18,9.16-14.92,5.22-3.74,11.11-5.16,17.66-4.26Z"/>
    </g>
    <g id="Layer5_0_FILL-2" data-name="Layer5 0 FILL">
      <path d="M647.27,713.32c3.14,.43,5.69,1.84,7.64,4.22,.12,.19,.24,.38,.36,.57,1.95-.81,4.06-1.06,6.34-.75,3.11,.42,5.66,1.78,7.67,4.07,1.87-1.06,3.97-1.44,6.28-1.12,2.71,.37,4.9,1.57,6.57,3.61,1.63,2.06,2.27,4.37,1.92,6.93s-1.58,4.59-3.7,6.11c-2.16,1.55-4.6,2.13-7.3,1.76-1.77-.24-3.31-.83-4.61-1.78-.29,.24-.62,.49-.99,.75-2.65,1.9-5.62,2.62-8.9,2.17s-5.93-1.94-7.94-4.47c-.28-.35-.55-.7-.79-1.05-1.7,.57-3.52,.72-5.47,.45-3.14-.43-5.67-1.85-7.58-4.27-1.95-2.39-2.73-5.06-2.32-8.03s1.87-5.35,4.4-7.16c2.49-1.78,5.3-2.45,8.44-2.02Z"/>
    </g>
    <g id="Layer14_0_MEMBER_0_MEMBER_0_MEMBER_0_FILL-2" data-name="Layer14 0 MEMBER 0 MEMBER 0 MEMBER 0 FILL">
      <path class="cls-56" d="M748.32,874.76c9.21-2.19,28.07,5.64,28.07,5.64,.45-6.84,2.56-9.87,6.32-9.09l.56,4.7c-.07-2.14,2.71-4.25,5.39-3.18l-1.97,21.77-17.38,7.81-9.87-3.93c-19.06-8.37-19.6-12.16-18.48-16.25,1.26-4.7,6.63-7.06,7.35-7.46Z"/>
    </g>
    <g id="Layer44_5_MEMBER_0_MEMBER_0_MEMBER_0_FILL-3" data-name="Layer44 5 MEMBER 0 MEMBER 0 MEMBER 0 FILL">
      <path class="cls-56" d="M801.08,881.07h0c.11-1.71-2.82-3.41-8.32,.03-3.03,1.88-8.06,.56-11.38,1.13-7.33,1.44-8.55,8.1-8.55,8.1-.26,2.75,2.73,2.39,6.38,2.64,4.01,.14,4.26-1.19,5.51-1.08,1.25,.12,2.53-.4,3.84-1.54,1.33-1.11,3.31-2.28,5.96-3.53,2.65-1.23,4.83-3.15,6.55-5.74Z"/>
    </g>
    <g id="Layer44_5_MEMBER_0_MEMBER_0_MEMBER_0_FILL-4" data-name="Layer44 5 MEMBER 0 MEMBER 0 MEMBER 0 FILL">
      <path class="cls-56" d="M800.08,875.15h0c-.11-1.71-3.23-3.01-8.24,1.1-2.76,2.25-7.92,1.59-11.14,2.59-7.09,2.38-7.43,9.13-7.43,9.13,.1,2.76,3.01,2.01,6.66,1.8,4-.38,4.07-1.73,5.33-1.78,1.26-.05,2.46-.72,3.61-2.03,1.17-1.27,2.99-2.69,5.46-4.28,2.47-1.56,4.38-3.74,5.76-6.54Z"/>
    </g>
  </g>
  <g id="Layer_24" data-name="Layer 24">
    <g id="Layer10_0_MEMBER_0_MEMBER_0_MEMBER_0_FILL" data-name="Layer10 0 MEMBER 0 MEMBER 0 MEMBER 0 FILL">
      <path class="cls-33" d="M762.95,893.74c4.11,5.91,8.31,16.89,1.23,20.76-14.16,8.69-25.26-2.68-30.89-10.3-61.38-65.44-78.2-100.14-67.9-113.28,6.53-5.52,13.78-6.17,21.75-1.94,6.39,3.17,17.08,16.47,32.05,39.9,3.73,5.59,8.5,13.32,14.31,23.18h0l29.46,41.69Z"/>
    </g>
    <g id="Layer10_1_MEMBER_0_MEMBER_0_MEMBER_0_FILL" data-name="Layer10 1 MEMBER 0 MEMBER 0 MEMBER 0 FILL">
      <path class="cls-33" d="M737.53,900.1c2.15-9.22,11.3-9.17,40.41-9.87l79.34-.31c4.05-.28,4.72,9.68-5.43,11.67l-1.61,.44c-25.09,4.18-56.09,13.08-87.6,16.27-17.13,2.25-26.73-9.01-25.11-18.18Z"/>
    </g>
    <g id="Layer9_0_FILL" data-name="Layer9 0 FILL">
      <path class="cls-33" d="M874.14,883.47c-.4,1.88-2.44,3.57-6.14,5.06-3,.91-4.31,1.8-3.93,2.67,.09,.77,.09,1.43,0,1.99-.4,2.21-2.54,3.07-6.4,2.56l-1.67-.36c-6.7-1.34-11.9-.91-15.61,1.29-3.68,2.15-3.68,1.49,0-1.99,3.67-3.48,9.4-6.57,17.17-9.27,7.77-2.74,13.08-4.48,15.94-5.24l-.02,.19c.57,1.11,.79,2.14,.66,3.09Z"/>
    </g>
    <g id="Layer7_0_FILL" data-name="Layer7 0 FILL">
      <path class="cls-33" d="M894.47,899.36c1.11,.71,.27,1.81,.56,2.14l-3.57,1.54,.87,.94-8.88,5.33-2.22,.83c-.31,.19-.61,.28-.91,.27l-10.97,1c-.3,.03-.56,0-.77-.09-.82,.05-2.99-.27-6.53-.96l-16.17-4.77c-1.78-.59-4.32-2.2-7.61-4.83-3.17-2.54-3.47-4.86-.91-6.96,7.26-5.16,18.24-5.8,25.14-3.89,.76,.23,16.18,9.28,31.97,9.44m-1.35,.22v.06s.06,.06,.06,.06l-.06-.12m-1.81,3.7l-.19-.19,.18,.25v-.06Z"/>
    </g>
  </g>
  <g id="Layer_31" data-name="Layer 31">
    <g id="Layer2_4_MEMBER_0_MEMBER_0_MEMBER_0_FILL-2" data-name="Layer2 4 MEMBER 0 MEMBER 0 MEMBER 0 FILL">
      <path class="cls-21" d="M1099.53,476.81c-1.24,3.14-10.38,24.91-20.76,42.56-6.93,12.43-19.38,31.83-32.06,47.58-5.67,9.52-19.69,22.64-24.6,18.94-4.22-4.64-6.3-5.91,.39-22.23,3.7-9.08,19.38-38.08,22.94-48.2,5.12-14.68,8.37-23.93,9.73-27.76,8.44-22.21,21.42-41.4,35.03-35.47,5.94,2.86,13.5,11.07,9.34,24.57Z"/>
    </g>
    <g id="Layer2_4_MEMBER_0_MEMBER_0_MEMBER_0_FILL-3" data-name="Layer2 4 MEMBER 0 MEMBER 0 MEMBER 0 FILL">
      <path class="cls-21" d="M1045.64,568.23c-1.69,2.57-3.93,5.91-6.71,10.03-3.57,5.2-9.73,13.19-18.47,23.97-8.68,10.54-20.54,24.5-35.55,41.86-7,8.14-12.64,11.27-16.92,9.37-3.46-2.73-.67-10.8,8.35-24.22,5-7.46,10.02-15.3,15.04-23.52,7.24-11.91,11.82-19.42,13.74-22.53,11.64-18.15,29.62-38.37,42.12-36.35,5.41,1.09,5.8,7.73-1.59,21.38Z"/>
    </g>
    <g id="Layer44_5_MEMBER_0_MEMBER_0_MEMBER_0_FILL-5" data-name="Layer44 5 MEMBER 0 MEMBER 0 MEMBER 0 FILL">
      <path class="cls-21" d="M820.74,533.02h0c-1.4,2.27,1.56,4.78,11.95,.66,5.72-2.25,12.19-5.26,17.37-5.74,11.57-1.3,5.44-11-9.51-6.58-2.71,1.36-1.52,3.11-6.23,4.56-4.69,1.42-9.22,3.79-13.58,7.1Z"/>
    </g>
    <g>
      <g id="Layer13_0_MEMBER_0_MEMBER_0_MEMBER_0_FILL" data-name="Layer13 0 MEMBER 0 MEMBER 0 MEMBER 0 FILL">
        <path class="cls-21" d="M952.1,652.73c.17-.61,1.45-1.91,1.86-2.26,.94-1.86,4.62,.25,4.15,3.72,2-.93,4.19-1.52,6.57-1.78,.54,.56,1.03,1.12,1.45,1.67,1.52,1.11,2.39,2.09,2.6,2.95l.04,.51c0,.18-.06,.36-.14,.54-.08,.2-.18,.43-.29,.67-.1,2.3-.76,4.43-1.96,6.38,1.27,1.93,1.76,3.35,1.47,4.27,1.75-1.11,3.2-1.14,4.35-.09,.65,.59,.65,1.55,0,2.86l-5.92,2.42c.44,1.36-.14,2.37-1.72,3.03l-3.64-1.88c.1,.41,.17,.84,.22,1.29,.19,1.73-.67,2.75-2.59,3.07l-7.64-6.88c-.8-2.69-1.21-5.33-1.22-7.92,0-.75,.02-1.53,.1-2.36,.03-.33,2.25-9.92,2.34-10.21Z"/>
      </g>
      <g id="Layer13_1_MEMBER_0_MEMBER_0_MEMBER_0_FILL" data-name="Layer13 1 MEMBER 0 MEMBER 0 MEMBER 0 FILL">
        <path class="cls-21" d="M957.47,665.23c-5.6,.13-8.31-2.72-8.57-6.82-.75-1.27-.52-4.19,.72-5.73,1.24-3.05,1.51-2.98,4.17-6.68,3.79-1.91,12.96-9.45,23.72-11.96h0l1.16-.1c4.59-.39,8.45,3.41,8.38,8.24v.6c-.06,3.51-1.41,6.89-3.75,9.45-1.44,1.57-2.87,3.01-4.31,4.33-3.73,2.95-7.51,4.19-11.33,3.73-2.5-.32-3.39,2.1-5.56,2.89h0l-4.62,2.04Z"/>
      </g>
      <g id="Layer13_2_MEMBER_0_MEMBER_0_MEMBER_0_FILL" data-name="Layer13 2 MEMBER 0 MEMBER 0 MEMBER 0 FILL">
        <path class="cls-21" d="M943.06,669.36c-1.49,2.94-3.19,5.5-5.12,7.69-1.43,1.73-3.22,2.08-5.39,1.04l4.4-11.07,6.92-10.27,9.28-10.21c3.28-1.43,5.43-.59,6.44,2.52,.55,2.98-.31,5.24-2.56,6.8l-13.97,13.51Z"/>
      </g>
    </g>
  </g>
</svg>