<?xml version="1.0" encoding="utf-8"?>
<!-- Generator: Adobe Illustrator 25.4.1, SVG Export Plug-In . SVG Version: 6.00 Build 0)  -->
<svg version="1.1" xmlns="http://www.w3.org/2000/svg" xmlns:xlink="http://www.w3.org/1999/xlink" x="0px" y="0px"
	 viewBox="0 0 749 1086.3" style="enable-background:new 0 0 749 1086.3;" xml:space="preserve">
<style type="text/css">
	.st0{display:none;}
	.st1{display:inline;fill:#FFFFFF;stroke:#000000;stroke-miterlimit:10;}
	.st2{opacity:0.5;fill:#EBECED;}
	.st3{opacity:0.45;fill:#E9D9DA;}
	.st4{fill:#DBB288;}
	.st5{fill:#C69C77;}
	.st6{fill:#373E3E;}
	.st7{fill:#373E3E;stroke:#011E21;stroke-width:10;stroke-miterlimit:10;}
	.st8{opacity:0.49;fill:none;stroke:#011E21;stroke-width:2;stroke-miterlimit:10;}
	.st9{fill:#002F36;}
	.st10{fill:#0D3D3F;}
	.st11{fill:#011E21;}
	.st12{fill:none;stroke:#011E21;stroke-width:2;stroke-miterlimit:10;}
	.st13{clip-path:url(#SVGID_00000098202917109886687770000001926269759142905728_);fill:#CCA079;}
	.st14{fill:#333333;}
	.st15{fill:#474747;}
	.st16{fill:#FFFFFF;}
	.st17{fill:#161616;}
	.st18{fill:#00A4B4;}
	.st19{opacity:0.24;fill:none;stroke:#474747;stroke-miterlimit:10;}
	.st20{fill:none;stroke:#474747;stroke-width:3;stroke-miterlimit:10;}
	.st21{fill:none;stroke:#FFFFFF;stroke-width:5;stroke-miterlimit:10;}
	.st22{fill:none;stroke:#474747;stroke-miterlimit:10;}
	.st23{fill:none;stroke:#FFFFFF;stroke-miterlimit:10;}
	.st24{fill:#FFF5E8;}
	.st25{fill:#F7E9DA;}
	.st26{fill:#F9F5F2;}
	.st27{fill:none;stroke:#F4E7D7;stroke-width:2;stroke-miterlimit:10;}
	.st28{fill:#CCA079;}
	.st29{fill:#F3D585;}
	.st30{fill:#E5C376;}
	.st31{fill:#FFE398;}
	.st32{fill:#383E3E;}
	.st33{fill:none;stroke:#E5C376;stroke-width:2;stroke-miterlimit:10;}
	.st34{clip-path:url(#SVGID_00000133503908721516040390000000401800085327016607_);fill:#CCA079;}
	.st35{fill:#B79B84;}
	.st36{clip-path:url(#SVGID_00000158725552836369670520000015718919321561662095_);fill:#CCA079;}
	.st37{fill:#DBB288;stroke:#CCA079;stroke-miterlimit:10;}
	.st38{fill:none;stroke:#011E21;stroke-width:2;stroke-linecap:round;stroke-miterlimit:10;}
</style>
<g id="Layer_2" class="st0">
	<rect x="-234.8" y="-63.4" class="st1" width="1225" height="1216.2"/>
</g>
<g id="Layer_1">
	<path class="st2" d="M171.4,1074.5c0,5,96,11.1,229.9,11.1s276.1-0.6,276.1-5.6s26.9-18-107.1-18S171.4,1069.5,171.4,1074.5z"/>
	<path class="st3" d="M56,196.7c-97.2,62.7-53,235.1,23,319.9s97.2,86.6,97.2,146.7c0,60.1-70.7,187.4,35.4,231.5
		c106.1,44.2,296.9,15.9,420.7-182.1s37.1-404.8-175-401.2S280.5,51.8,56,196.7z"/>
	<path class="st4" d="M423.3,978.9c6.3,24.1,16.5,62.3,26,75.5c9.5,13.1,30.4,9.8,31.7-0.5s1.9-78.8,1.9-78.8L423.3,978.9z"/>
	<path class="st5" d="M423.3,978.9c6.3,24.1,10.4,36.6,15.3,52.5l43.3,3.8c0.5-13.3,1-60.2,1-60.2L423.3,978.9z"/>
	<path class="st4" d="M329.4,976c1.8,6.7,19.9,67.1,26,75.5c9.5,13.1,30.4,9.8,31.7-0.5c1.3-10.4,1.9-78.8,1.9-78.8L329.4,976z"/>
	<path class="st5" d="M329.4,976c6.3,24.1,10,31.8,14.9,47.8l43.7,8.6c0.5-13.3,1-60.2,1-60.2L329.4,976z"/>
	<path class="st6" d="M283.4,1072.2H393c0,0,2.6-22.1-3.7-32.4s-6.5,8.5-16.1,8.4c-16.3-0.2-22.3-16.1-27.6-15.5
		c-12.6,1.4-10.7,14.9-33.9,16.7C298.8,1050.3,281.3,1051.9,283.4,1072.2z"/>
	<line class="st7" x1="281.4" y1="1072.3" x2="395.2" y2="1072.3"/>
	<path class="st8" d="M283.7,1069.6c0.3-6.7,4.3-18.6,23.2-19.3l2,18.6"/>
	<path class="st8" d="M343.2,1039.4c-15.5,16.3-33,14.6-33,14.6"/>
	<path class="st8" d="M389.4,1048.6c-7.5,0.2-34.8,5.6-37,18.8"/>
	<path class="st6" d="M379.9,1074.8h109.6c0,0,2.6-22.1-3.7-32.4s-6.5,8-16.1,8.4c-25.4,0.9-8.4-18-31.5-15.6
		c-12.6,1.3-20.6,16.6-30,16.8C395.2,1052.2,377.8,1054.5,379.9,1074.8z"/>
	<line class="st7" x1="377.8" y1="1075" x2="491.7" y2="1075"/>
	<path class="st8" d="M447.9,1041.6c-4,2.8-10.9,7.7-25,12.6"/>
	<path class="st8" d="M380.2,1072.3c0.3-6.7,1.8-18,20.6-19.3c36.6-2.6,44.2,18.1,44.2,18.1"/>
	<path class="st8" d="M430.5,1041c-3.8,4-13.9,11.2-13.9,11.2"/>
	<path class="st8" d="M487.2,1053.9c-7.5,0.2-23.9,12.9-26.2,18.9"/>
	<path class="st9" d="M402.2,526.5c7.3,20.6-10.9,492.5-10.9,492.5L340,1013c0,0-78.3-202.3-75.8-429.8c0.7-63.1-6.3-78.5,33.7-82.1
		S402.2,526.5,402.2,526.5z"/>
	<polygon class="st10" points="332.7,1005.1 338.1,1020 393.3,1023.6 394.1,1012.9 	"/>
	<path class="st11" d="M404.9,627.1c7.3,20.6-12.4,385.6-12.4,385.6l-12.9-2c0,0-20.3-108-17.8-335.4
		c0.7-63.1-14.3-107.3,25.8-110.9C427.6,560.8,404.9,627.1,404.9,627.1z"/>
	<path class="st9" d="M494.8,528.3c7.3,20.6-10.9,492.5-10.9,492.5l-50.9-1.2c0,0-89.8-308.1-89.8-371.2s7.3-141.9,47.3-145.6
		S494.8,528.3,494.8,528.3z"/>
	<polygon class="st10" points="425.6,1011.7 431,1026.6 485.9,1025.4 486.7,1014.6 	"/>
	<path class="st12" d="M396.1,891.6c-31.4-95.2-47.7-204.6-51.6-247.7"/>
	<path class="st11" d="M267,575.8c-1.5,0.5-1.5,24.1-1.5,24.1l31.3,13.4c0,0,6.7-11.8,6.7-9.8s9.8,12.8,9.8,12.8
		s153.6,6.2,182.4-2.6V499.7L267,575.8z"/>
	<path class="st4" d="M148.9,211.2c0.9-16.8,1.2-31.2-8.7-43.2c-9.9-12.1-18.9-14.9-23.4-14.7c-4.5,0.2-20.1,5-22.7,6.6
		c-2.6,1.7-11.6,16.8-11.6,16.8c0.9,4.5,6,6.6,11.2,3.8c5.2-2.8,7.6-7.9,12.5-8.4c5-0.5,9.5-3,18.6,13.1c1.3,2.2-28.6,3.8-31.4,8
		c-2.8,4.3-6.1,23.5-5.9,24.5c0,0,5.7,6.3,13-4.5c5.1-7.7,20.6-10.3,20.6-10.3s-9.7-3.5-12.8-0.5c-3.1,3.1-13.1,23.3-13.5,25.1
		s4.5,5.8,11.7,0.3c7.8-6.1,7.5-14.2,7.5-14.2s-14,24.2-12.8,25.3s7.6,4.7,12.1-1.2c0,0,1.2,5.8,13.8,10.3
		c12.5,4.5,9.7,4.4,13.2,2.1S147.9,228,148.9,211.2z"/>
	<g>
		<defs>
			<path id="SVGID_1_" d="M148.9,211.2c0.9-16.8,1.2-31.2-8.7-43.2c-9.9-12.1-18.9-14.9-23.4-14.7c-4.5,0.2-20.1,5-22.7,6.6
				c-2.6,1.7-11.6,16.8-11.6,16.8c0.9,4.5,6,6.6,11.2,3.8c5.2-2.8,7.6-7.9,12.5-8.4c5-0.5,9.5-3,18.6,13.1c1.3,2.2-28.6,3.8-31.4,8
				c-2.8,4.3-6.1,23.5-5.9,24.5c0,0,5.7,6.3,13-4.5c5.1-7.7,20.6-10.3,20.6-10.3s-9.7-3.5-12.8-0.5c-3.1,3.1-13.1,23.3-13.5,25.1
				s4.5,5.8,11.7,0.3c7.8-6.1,7.5-14.2,7.5-14.2s-14,24.2-12.8,25.3s7.6,4.7,12.1-1.2c0,0,1.2,5.8,13.8,10.3
				c12.5,4.5,9.7,4.4,13.2,2.1S147.9,228,148.9,211.2z"/>
		</defs>
		<clipPath id="SVGID_00000054945236730449475640000002864726306626367398_">
			<use xlink:href="#SVGID_1_"  style="overflow:visible;"/>
		</clipPath>
		<path style="clip-path:url(#SVGID_00000054945236730449475640000002864726306626367398_);fill:#CCA079;" d="M72.6,144.4l-0.6,7.4
			l38.8,75.7c0.8,1.5,2.6,2.1,4,1.3l40.8-20.7l-39.1-80.8L72.6,144.4z"/>
	</g>
	<path class="st14" d="M80.1,138.7l-0.5,3c-0.2,0.9-0.1,1.8,0.3,2.6l28.8,73.4c1.6,4,6.1,6,10.1,4.4l33.8-13.1
		c2.5-0.9,3.7-3.7,2.8-6.2l-27.7-75.7c-0.9-2.4-3.4-3.7-5.8-3l-38.3,10.6C81.8,135.4,80.5,136.9,80.1,138.7z"/>
	<path class="st15" d="M82.2,139.5l30.2,75.7c0.9,2.2,3.2,3.4,5.5,2.8l39.2-10.5L127.6,127c-0.8-2.2-3.1-3.4-5.4-2.8l-37.6,10.4
		C82.5,135.2,81.4,137.5,82.2,139.5z"/>
	<path class="st16" d="M87,143.5l27.7,69.8c0.5,1.2,1.7,1.8,2.9,1.4l33.8-10.6c1.3-0.4,2-1.8,1.5-3.1L126.4,131
		c-0.5-1.4-2-2.1-3.4-1.7l-33.6,9.4C87.4,139.3,86.3,141.5,87,143.5z"/>
	<ellipse class="st17" cx="104.7" cy="131.2" rx="1.2" ry="1.1"/>
	<path class="st18" d="M86.6,142.5l2.9,7.4l39.8-11l-3.2-8.5c-0.4-0.9-1.4-1.5-2.3-1.2L88.4,139C86.9,139.4,86.1,141,86.6,142.5z"/>
	<polygon class="st18" points="123.2,150.2 131.7,171.7 137.7,169.9 129.8,148.8 	"/>
	<polygon class="st18" points="116.7,160.2 122.4,174.2 128.4,172.4 123.3,158.8 	"/>
	<polygon class="st18" points="112.2,173.3 113.8,176.3 119.9,174.6 118.8,171.8 	"/>
	<polygon class="st18" points="102.2,172.5 104.5,179.3 110.6,177.6 108.1,171.3 	"/>
	<line class="st19" x1="105.5" y1="182.3" x2="139.7" y2="172.1"/>
	<line class="st20" x1="93.8" y1="153.8" x2="106.7" y2="149.9"/>
	<line class="st21" x1="96.9" y1="142" x2="117.4" y2="136.2"/>
	<line class="st22" x1="109" y1="186.4" x2="136.4" y2="177.7"/>
	<line class="st22" x1="109.9" y1="189.1" x2="137.3" y2="180.3"/>
	<line class="st23" x1="89.5" y1="142.6" x2="93.8" y2="141.3"/>
	<line class="st23" x1="90" y1="144.1" x2="94.2" y2="142.8"/>
	<line class="st23" x1="90.5" y1="145.7" x2="94.8" y2="144.4"/>
	<ellipse class="st16" cx="122.7" cy="134.8" rx="3" ry="2.7"/>
	<path class="st4" d="M160.5,235.3c12.5,12.5,64.1,78.5,74.6,94.1c10.5,15.6,22.3,34.8,20.3,47.3c-2,12.5-5.9,35.2-23,32.8
		c-17.2-2.3-79.3-46.3-99.2-162.5C134.4,203.9,160.5,235.3,160.5,235.3z"/>
	<path class="st4" d="M167.6,246.5c-7-11.1-9-35.5-9.4-53.1s-15.2-15.6-19.1-15.6c-3.9,0-19.1,14.8-17.6,16.8c1.6,2,5,8.5,17.7-0.4
		c1.2-0.9,5.7-0.9,5.7-0.9s-10,23.1-2.6,36S167.6,246.5,167.6,246.5z"/>
	<path class="st24" d="M382.3,218.7c21.1,13.4,20.8,40,1.6,75.7c-19.2,35.7-66.8,93.1-121.4,124.5l-27.7-86.3
		c51-66.9,69.5-83.6,79.7-92.6C327.3,228.6,355.3,201.5,382.3,218.7z"/>
	<path class="st25" d="M393.9,236.6c21.1,13.4,20.8,40,1.6,75.7C376.3,348,328.7,405.4,274,436.8l-30-67.1
		c18.6-37.1,53.6-91.6,82-111.8C340,248,366.8,219.4,393.9,236.6z"/>
	<path class="st16" d="M239.3,323.1c4.7,30,22.4,75.4,39.6,94.2c-2,2.9-24.4,12.2-29.3,12.5c-34.1-36.5-19.1-105.1-19.1-105.1
		S233.2,320.5,239.3,323.1z"/>
	<path class="st26" d="M247.7,355.1c2.9,10.7,18.1,46.1,31.2,62.3c-2,2.9-24.4,12.2-29.3,12.5C215.5,393.3,247.7,355.1,247.7,355.1
		S241.6,352.4,247.7,355.1z"/>
	<path class="st24" d="M356.1,214.4c-37.4,21.7-76.9,57.1-109.4,373.4l41.4,12.8c0,0,11.8-16.8,14.8-15.8c3,1,10.8,22.7,10.8,22.7
		s148.8-4.9,194.1-24.6c0,0,32.5-293.6-3.9-330.1s-45.3-48.3-69-52.2C411.2,196.7,356.1,214.4,356.1,214.4z"/>
	<path class="st27" d="M305.3,572.3c0,0,8.7-229.7,55.3-325.2"/>
	<polygon class="st25" points="377.9,285.7 415,285.7 414.2,314.2 392.1,322.8 377.1,312.6 	"/>
	<path class="st25" d="M436,310.5c2.4,20.6,15.7,152.6-1.8,185.4c-17.6,32.7-178.7,60-178.7,60l152,41.8c0,0,73.3-32.7,82.4-68.4
		s24.8-183.5,12.7-212.6C490.5,287.5,436,310.5,436,310.5z"/>
	<path class="st4" d="M395.1,600.7c2.8,5.7,11.5,7.7,15.7,9.7c4.1,2,41.9,6.5,58.5-14.2s-83.4-21.1-83.4-21.1
		S388.7,587.4,395.1,600.7z"/>
	<path class="st28" d="M388.5,582.3c0,0,13.1,5.7,23.4,10.9c4.3,0,21.4,4.6,30.5-11.2c9.1-15.7-45.8-16-45.8-16
		S385,572.1,388.5,582.3z"/>
	<polygon class="st29" points="163.5,393.6 140.3,505.1 171.6,544.6 728.1,641.1 749,537.7 697.8,492.4 	"/>
	<polygon class="st30" points="163.5,393.6 140.3,505.1 171.6,544.6 171.6,544.6 192.5,433.5 163.5,393.6 	"/>
	<polygon class="st31" points="163.5,393.6 163.5,393.6 192.5,433.5 749,537.7 749,537.7 697.8,492.4 	"/>
	<g transform="matrix( 1, 0, 0, 1, 0,0) ">
		<g>
			<g id="Layer13_0_FILL_00000073721655917921105850000010799975245412946587_">
				<path class="st32" d="M593.2,531.8c-1.6-2.7-7-4.7-16.3-6c-10.5-1.7-19.5-0.7-26.9,2.8c-1.3,0.6-2,1.4-2,2.3
					c0,0.9,0.7,1.4,2,1.4c18.6,0.8,28.8,2.9,30.6,6.3c1.8,3.3-2.2,12.9-12,28.6c-0.6,1.2-0.6,2,0,2.5c0.8,0.5,1.7,0.4,3-0.3
					c7.2-4.2,13.1-11.1,17.8-20.7C593.4,540.1,594.7,534.5,593.2,531.8 M357.6,493.8c-1.3-1.1-2.4-1.2-3.4-0.3
					c-1,0.9-0.9,2.1,0.1,3.3c13.4,17.1,29.5,31.2,48.2,42.4c19.2,11.5,40.1,19.1,62.8,23c17,2.9,34.4,3.2,52.4,1.1
					c18.8-2.3,35.4-7,49.8-14.3c2.4-1.2,3.1-2.8,2.2-4.7c-0.9-2-2.6-2.7-5-2c-31.1,7.4-62.4,8.4-93.7,3.1
					c-21.2-3.6-41.6-9.9-61.3-19.1C390.5,517.6,373.1,506.7,357.6,493.8z"/>
			</g>
		</g>
	</g>
	<line class="st33" x1="177" y1="413.3" x2="718.5" y2="510.9"/>
	
		<rect x="201.1" y="451" transform="matrix(0.9845 0.1752 -0.1752 0.9845 84.2444 -31.3542)" class="st31" width="37.1" height="20.7"/>
	<polygon class="st29" points="171.2,404.1 167.9,420.2 179.6,438.1 183.2,420.8 171.2,404.1 	"/>
	<polygon class="st29" points="151.9,500.3 149.1,516.2 161,530.9 164.4,516 151.9,500.3 	"/>
	<path class="st4" d="M435.6,218.5c23.3-9,58.8,11.6,76.1,48.2s29.9,162.8,24.1,193.6c-5.8,30.8-45.3,130.1-69.4,137.8
		c-24.1,7.7-55.9,14.5-43.4-1c12.5-15.4,46.2-87.7,42.4-138.7S434.6,311,426.9,295.6C419.2,280.2,405.7,230.1,435.6,218.5z"/>
	<path class="st28" d="M527.8,488.1c-24.2-18.4-46.1-27.2-62.3-29.7c-0.6-5.5-1-6.1-0.6-7.8c38-10.5,69.9-1.1,69.9-1.1
		S534.5,477.8,527.8,488.1z"/>
	<path class="st24" d="M435.6,218.5c23.3-9,60.1,9.5,77.5,46.1s29.8,133.1,22.7,195.7l-71.8-7.1c-12-75.2-38.4-146.8-43-161.7
		C415.9,275,405.7,230.1,435.6,218.5z"/>
	<path class="st25" d="M530.1,469.4c-21.9-11.4-42.4-26.1-67.9-25.8c0-0.4-0.4-2.8-0.4-2.8c32.8-11.8,75.5-0.4,75.5-0.4
		S536.9,459.2,530.1,469.4z"/>
	<path class="st16" d="M533.8,477.8c-21.9-11.4-47.1-22.5-72.5-22.2c-1.2-3.2-2-8.8-0.3-13.2c38-10.5,79.5,3.8,79.5,3.8
		S540.5,467.6,533.8,477.8z"/>
	<path class="st4" d="M439.1,582c-16.5-5-17.2-4.3-31.6-1c-4,0.9,0.2,9.1,2.6,9.8c2.4,0.8,12.3,1.5,23.4,5.5
		C440.5,599,439.1,582,439.1,582z"/>
	<path class="st4" d="M434.9,200.6c-11.3-43.2-11.3-80.9-9.3-95.9c3-22.5-36.5-4.4-43.4,7.9s-26.2,101.8-26.2,101.8l19.8-0.3
		L434.9,200.6z"/>
	<g>
		<defs>
			<path id="SVGID_00000096749669761155510570000015122604573920140718_" d="M434.9,200.6c-4.4-8.7-12.7-58.5-13.2-81.1
				s-32.5-19.2-39.4-6.9s-26.2,101.8-26.2,101.8l19.8-0.3L434.9,200.6z"/>
		</defs>
		<clipPath id="SVGID_00000085239974454295513650000017285984438808921250_">
			<use xlink:href="#SVGID_00000096749669761155510570000015122604573920140718_"  style="overflow:visible;"/>
		</clipPath>
		<path style="clip-path:url(#SVGID_00000085239974454295513650000017285984438808921250_);fill:#CCA079;" d="M356.1,64.8
			C345.3,82.2,320.7,169.8,330,185s37.8,17,56.7,7.4c22.2-11.3,31-67,36.5-82.8s21.2-26.6,10.8-36S378.3,29.4,356.1,64.8z"/>
	</g>
	<path class="st16" d="M355.2,199.8c3.4,3.9,11.8,13.7,15.3,14.8l-17.7,19.7c0,0-8.9-19.2-7.4-21.2S355.2,199.8,355.2,199.8z"/>
	<path class="st16" d="M370.4,214.6c0,0,33.5-8.9,64.5-24.1c3.2-1.6,13.6,12.6,11.3,14.8c-19.2,17.7-64,33-64,33L370.4,214.6z"/>
	<path class="st4" d="M356.1,54.5c-10.9,17.4-28.1,84.2-18.7,99.5s26.6,25.6,47.8,24.6c21.2-1,35.5-47.8,40.9-63.6
		s18.2-42.4,7.9-51.7S378.3,19,356.1,54.5z"/>
	<path class="st35" d="M355.2,127.9c-14.7-3.2-17.7-14.2-17.7-14.2c-4.5,18.2-2.5,36.2,0,40.3c9.4,15.3,26.6,25.6,47.8,24.6
		c21.2-1,35.5-47.8,40.9-63.6s-0.6-26.7-7.9-14.8C407.9,117.1,389.6,135.3,355.2,127.9z"/>
	<g>
		<defs>
			<path id="SVGID_00000120522067090900959510000018033748104608157322_" d="M380.7,70.5c-17.2,1.9-30.1,1.8-37.7-14.7
				c-9-19.4,6.3-30.2,11.9-22c-4.1-14.2,14.6-31,33.6-24.6s18.7,29.5,19.8,37.3c0.7-2.2,10.5-17.5,17.5-9s7.1,16.1,3.4,22.8
				c4.9-1.1,23.5,3.7,24.6,14.2S447.2,92,442,91.3s18.3-39.4-12.3,21.9c0,0,0.1,3-1.5-11.9l-3.7-11.9c5.6-25-0.9-14.4-1.9-17.2
				C419.2,62.8,380.7,70.5,380.7,70.5z"/>
		</defs>
		<clipPath id="SVGID_00000182492892384690598070000005494788356026624433_">
			<use xlink:href="#SVGID_00000120522067090900959510000018033748104608157322_"  style="overflow:visible;"/>
		</clipPath>
		<path style="clip-path:url(#SVGID_00000182492892384690598070000005494788356026624433_);fill:#CCA079;" d="M356.1,54.5
			c-10.9,17.4-28.1,84.2-18.7,99.5s26.6,25.6,47.8,24.6c21.2-1,35.5-47.8,40.9-63.6s18.2-42.4,7.9-51.7S378.3,19,356.1,54.5z"/>
	</g>
	<path class="st14" d="M380.7,62.9c-17.2,1.9-30.1,1.8-37.7-14.7c-9-19.4,6.3-30.2,11.9-22c-4.1-14.2,14.6-31,33.6-24.6
		s18.7,29.5,19.8,37.3c0.7-2.2,10.5-17.5,17.5-9s7.1,16.1,3.4,22.8c4.9-1.1,23.5,3.7,24.6,14.2s-6.7,17.5-11.9,16.8
		s14.2-4.9-16.4,56.4c0,0-1.2-12.7-2.8-27.6l-8.7-7.4c5.6-25,3.2-34.9,2.2-37.7C412.8,57.9,380.7,62.9,380.7,62.9z"/>
	<path class="st4" d="M421.4,104.6c-1.2,7.5-6.3,9.5-1,13.9c5.3,4.4,13.4,3.5,18.1-2.1c4.6-5.6,4.1-13.7-1.3-18.1
		C431.9,93.8,422.8,96,421.4,104.6z"/>
	<path class="st11" d="M380.1,142.6c-1.9-6.9-3.7-8.9-6.9-9.8c-4.5-1.3-9.5,1.3-24.4,0.7c-21-0.9-10.3-2.8-10.6-2.6
		c-3.5,2.1-1.5,16.4-4.4,15.6c-2.8-0.8-3.8-3.8-3.9-7c0-1,0.4-5.6,0.6-6.9c0.5-3.7,0.9-6.7,5.4-9.9c4.1-2.9,7.5-2.4,16.4-0.5
		c2.6,0.6,5.8,0.2,9.2-0.3c9.3-1.2,26.9-8.8,30.9,15.8C394.6,152.3,382.5,151.4,380.1,142.6z"/>
	<g>
		<path class="st11" d="M402.3,87.7c-1.1,1.1-3.4,1.3-4.8,0.4l0,0c-4.1-2.8-13.2-9.1-23.6-9.8c-1.5-0.1-2.7-1-2.7-2.1l-0.1-2.5
			c0-1.3,1.6-2.2,3.5-2.2c8.9-0.1,19,2.7,26.4,9.7C403.1,83.2,404.3,85.6,402.3,87.7L402.3,87.7z"/>
	</g>
	<g>
		<path class="st11" d="M342.3,79.9c0.3,1.1,1.4,1.7,2.3,1.1l0,0c2.4-1.6,7.9-5,13.1-3.8c0.8,0.2,1.5-0.4,1.7-1.2l0.4-2.1
			c0.2-1.1-0.4-2.1-1.3-2.4c-4.3-1.7-9.8-0.2-14.5,4.3C342.6,77.1,341.7,77.8,342.3,79.9L342.3,79.9z"/>
	</g>
	<path class="st37" d="M363.1,82.3c-16.2,2.6-24.1,33.3-22.6,37.4c1.7,4.4,14.6,3.7,18,3c3.6-0.7,5.5-6.2,2-8.1"/>
	<path class="st38" d="M372.8,139c-7.3,8.7-18.6,9-20.5,9.3"/>
</g>
</svg>
