<?xml version="1.0" encoding="utf-8"?>
<!-- Generator: Adobe Illustrator 26.0.1, SVG Export Plug-In . SVG Version: 6.00 Build 0)  -->
<svg version="1.1" id="Layer_1" xmlns="http://www.w3.org/2000/svg" xmlns:xlink="http://www.w3.org/1999/xlink" x="0px" y="0px"
	 viewBox="0 0 666.1 666.1" style="enable-background:new 0 0 666.1 666.1;" xml:space="preserve">
<style type="text/css">
	.st0{fill:#DBF0F3;}
	.st1{fill:#E9ECEA;}
	.st2{fill:#0E2E35;}
	.st3{fill:#173B44;}
	.st4{fill:none;stroke:#173B44;stroke-width:18;stroke-linecap:round;stroke-linejoin:round;}
	.st5{fill:none;stroke:#0E2E35;stroke-width:18;stroke-linecap:round;stroke-linejoin:round;}
	.st6{fill:none;stroke:#173B44;stroke-width:49;stroke-linecap:round;stroke-linejoin:round;}
	.st7{fill:#0F2E35;}
	.st8{fill:#553117;}
	.st9{fill:#102E35;}
	.st10{fill:#FFFFFF;}
	.st11{fill:#FAF4EB;}
	.st12{fill:#FAF4EA;}
	.st13{fill:none;stroke:#EBF7FA;stroke-width:2;stroke-linecap:round;stroke-linejoin:round;}
	.st14{fill:#97A2A3;}
	.st15{fill:#ACB7B8;}
	.st16{fill:#BDD5CE;}
	.st17{fill:#97B1A8;}
	.st18{fill:none;stroke:#F1F9F5;stroke-linejoin:round;}
	.st19{fill:none;stroke:#97B1A8;stroke-miterlimit:10;}
	.st20{fill:#586566;}
	.st21{fill:#6C7778;}
	.st22{fill:#B2E8F1;}
	.st23{fill:#76B9C5;}
</style>
<g transform="matrix( 1, 0, 0, 1, 0,0) ">
	<g>
		<g id="Layer63_0_FILL">
			<path class="st0" d="M664.8,265.9c-5.1-58.8-26.9-107.8-65.3-147c-39.3-40-85.6-59.3-138.9-57.9c-53.7,1.4-95,30-123.9,85.8
				c-21.6,41.7-53.4,76.4-95.2,103.9c-41.9,27.6-90,54.5-144.4,80.9c-54.6,26.3-85.1,52.7-91.8,79c-6.7,26.3-7.1,47.3-1.3,63
				c21.2,57.4,61.5,80.7,120.8,69.8c30.8-5.6,59.4-18.5,85.8-38.6c44.7-34,92.7-42.6,144.1-26c50,16.1,100.9,28.1,152.7,35.9
				c1.1-0.1,2.2-0.2,3.4-0.3c54.8-6.4,95.7-35.6,122.9-87.8C659.4,377.3,669.8,323.8,664.8,265.9z"/>
		</g>
	</g>
</g>
<ellipse class="st1" cx="354.1" cy="576.8" rx="268.5" ry="27.5"/>
<g transform="matrix( 1, 0, 0, 1, 0,0) ">
	<g>
		<g id="Layer61_0_FILL">
			<path class="st2" d="M281.4,578.4c-1.7,1.8-2.6,3.9-2.6,6.4s0.9,4.6,2.6,6.3c1.8,1.8,3.9,2.7,6.3,2.7c2.5,0,4.6-0.9,6.4-2.7
				c1.8-1.7,2.6-3.8,2.6-6.3s-0.9-4.6-2.6-6.4c-1.7-1.7-3.9-2.6-6.4-2.6C285.3,575.8,283.2,576.7,281.4,578.4 M405.9,584.8
				c0-2.5-0.9-4.6-2.6-6.4c-1.7-1.7-3.8-2.6-6.3-2.6s-4.6,0.9-6.4,2.6c-1.7,1.8-2.6,3.9-2.6,6.4s0.9,4.6,2.6,6.3
				c1.8,1.8,3.9,2.7,6.4,2.7s4.6-0.9,6.3-2.7C405,589.4,405.9,587.3,405.9,584.8 M354.2,591.1c1.8,1.8,3.9,2.7,6.3,2.7
				s4.6-0.9,6.3-2.7c1.8-1.7,2.7-3.8,2.7-6.3s-0.9-4.6-2.7-6.4c-1.7-1.7-3.8-2.6-6.3-2.6s-4.6,0.9-6.3,2.6c-1.7,1.8-2.6,3.9-2.6,6.4
				S352.5,589.4,354.2,591.1 M333.1,584.8c0-2.5-0.9-4.6-2.6-6.4c-1.7-1.7-3.8-2.6-6.3-2.6s-4.6,0.9-6.4,2.6
				c-1.7,1.8-2.6,3.9-2.6,6.4s0.9,4.6,2.6,6.3c1.8,1.8,3.9,2.7,6.4,2.7s4.6-0.9,6.3-2.7C332.3,589.4,333.1,587.3,333.1,584.8
				 M355.8,433.3h-30.9l6.9,132.7h18.7L355.8,433.3z"/>
			<path class="st3" d="M350.3,566.4V566h-18.7v0.4H350.3z"/>
		</g>
	</g>
	<g>
		<path id="Layer61_0_1_STROKES" class="st4" d="M350.4,566h50 M285.2,566h46.5h18.7"/>
	</g>
	<g>
		<path id="Layer61_0_2_STROKES" class="st5" d="M293.3,372.1c-7.1,18.5-2,36.9,15.4,55.4"/>
	</g>
</g>
<g transform="matrix( 1, 0, 0, 1, 0,0) ">
	<g>
		<path id="Layer60_0_1_STROKES" class="st6" d="M265.6,427.1l155.6,0.4"/>
	</g>
</g>
<g transform="matrix( 0.5114898681640625, 0, 0, 0.5114898681640625, -1587.25,-1582.75) ">
	<g>
		<g id="Layer60_1_MEMBER_0_MEMBER_0_MEMBER_0_FILL">
			<path class="st7" d="M3664,3855.3c-22.3-0.5-42.2-7.5-59.9-21.1c-18.2-14-28.7-31-31.4-51l-29.9-222
				c-2.7-19.9,3.2-36.8,17.6-50.9c12.1-11.8,27.3-18.6,45.6-20.6l-24.4-0.5c-23.1,0-41.9,7-56.4,21.1c-14.4,14.1-20.3,31-17.6,50.9
				l29.9,222c2.6,19.9,13.1,36.9,31.3,51c18.3,14.1,39,21.1,62.1,21.1H3664 M3723.7,3856.1c4.6,0,8.9-0.3,12.9-0.8h-30.9l0.1,0.8
				H3723.7 M3687.6,3490.9c-4.2-0.5-8.7-0.8-13.2-0.8h-17.9l-0.1,0.1L3687.6,3490.9z"/>
		</g>
	</g>
</g>
<g transform="matrix( 0.5114898681640625, 0, 0, 0.5114898681640625, -1587.25,-1582.75) ">
	<g>
		<g id="Layer60_1_MEMBER_0_MEMBER_0_MEMBER_1_FILL">
			<path class="st3" d="M3656.1,3491.2v-0.3l-50.1-1.2c-18.2,2-33.4,8.8-45.6,20.6c-14.4,14.1-20.3,31-17.6,50.9l29.9,222
				c2.7,20,13.1,37,31.4,51c17.7,13.6,37.6,20.6,59.9,21.1h72.6c17.4-2.2,31.9-9,43.6-20.3c14.5-14.1,20.4-31,17.7-50.9l-30-221.9
				c-2.6-19.9-13.1-36.9-31.3-51c-14.7-11.3-31.1-18.1-49-20.3l-31.2-0.8L3656.1,3491.2z"/>
		</g>
	</g>
</g>
<g transform="matrix( 1, 0, 0, 1, 0,0) ">
	<g>
		<g id="Layer58_0_FILL">
			<path class="st8" d="M329.2,196.5c-10.1,10.9-19.7,0.4-29-31.7l-1.7-5.3l-2.6,59.9c14.9,13.4,27.1,11.7,36.7-5.1L329.2,196.5z"/>
			<path class="st8" d="M321.4,151.9c-9-3.1-16.6-2.9-22.9,0.5v7.2l1.7,5.3c9.3,32,18.9,42.6,29,31.7L321.4,151.9z"/>
		</g>
	</g>
</g>
<g transform="matrix( 1, 0, 0, 1, 0,0) ">
	<g>
		<g id="Layer41_0_FILL">
			<path class="st9" d="M344.8,127.9l0.3-0.1c-3.5-14.3-13.3-21.8-29.6-22.6c-12.1,0.6-20.7,6-25.6,16.2c-3.8,7.9-2.8,16.9,3.2,27.2
				c0.8-1.1,1.8-1.9,3.1-2.2c2-0.6,3.9-0.2,5.8,1.1h0.1c0.3-0.5,0.6-1,0.9-1.5c3.2-5.1,3.6-10.1,1.1-15.1
				C326.1,124,339.7,123,344.8,127.9z"/>
			<path class="st8" d="M345.1,127.9l-0.3,0.1c-5.1-5-18.7-3.9-40.7,3.1c2.5,5,2.2,10-1.1,15.1c-0.3,0.5-0.6,1-0.9,1.5H302
				c-1.9-1.3-3.8-1.7-5.8-1.1c-1.3,0.4-2.3,1.1-3.1,2.2c-0.4,0.5-0.8,1.2-1,1.9c-0.9,2.2-0.9,4.6-0.1,7.1c0.7,2.4,2,4.3,3.9,5.6
				l0.1,0.1c1.5,1,3.1,1.4,4.6,1.3c1.5,4.6,3.6,8.7,6.2,12.1c3.3,4.3,9,8.6,17.1,13c8.1,4.4,14.1,2.5,18.2-5.5s6.2-15.3,6.4-21.8
				C348.8,150.8,347.6,139.3,345.1,127.9z"/>
		</g>
	</g>
</g>
<g transform="matrix( 0.4005279541015625, 0, 0, 0.4005279541015625, -1436.55,-138.95) ">
	<g>
		<g id="Layer59_0_MEMBER_0_MEMBER_0_MEMBER_0_FILL">
			<path class="st10" d="M4484.9,974.1l0.6-0.4l113,174.8c12-8.1,13.3-29,3.9-62.8c-24.6-69.5-60.4-129.2-107.6-179
				c-14.8-21.1-30-27.7-45.5-19.7c-8.7,4.4-13.5,12-14.4,22.8L4484.9,974.1z"/>
		</g>
	</g>
</g>
<g transform="matrix( 0.40057373046875, 0, 0, 0.40057373046875, -1436.55,-138.95) ">
	<g>
		<g id="Layer59_1_MEMBER_0_MEMBER_0_MEMBER_0_FILL">
			<path class="st11" d="M4485.5,973.7l-0.6,0.4l-50-64.3c-0.4,4.4-0.2,9.4,0.8,15.1l42.4,118.2c24.9,70.3,59.3,106.7,103,109.1
				c7.4,0.5,13.2-0.8,17.4-3.8L4485.5,973.7z"/>
		</g>
	</g>
</g>
<g transform="matrix( 1, 0, 0, 1, 0,0) ">
	<g>
		<g id="Layer57_0_FILL">
			<path class="st10" d="M401.9,308.1c-1-0.6-2.3-0.5-3.8,0.2c-1.4,0.7-2.5,1.9-3.5,3.5c-0.9,1.7-1.2,3.4-1,4.9
				c0.1,1.6,0.7,2.7,1.8,3.3c1.1,0.6,2.4,0.5,3.8-0.3c1.3-0.7,2.5-1.9,3.4-3.6s1.2-3.3,1-4.9C403.7,309.8,403.1,308.7,401.9,308.1
				 M335.6,200.3c-1.2-0.4-2.5-0.8-3.8-1l-8.5,18.9l-28.4-21.7c-1.9,0.9-3.8,1.7-5.8,2.6l1.6,1.9c-9.5,4.5-18.6,9.1-27.1,13.9
				c-11,6.2-14.6,16.2-10.9,30h9.4c23.9,43.4,28.5,81.6,13.8,114.4l0,0c0.1,0,0.3,0,0.4,0c39,1.8,71.1-0.2,96.4-5.8l-8-129
				c-6.3-10.5-15.9-17.9-28.9-22.2L335.6,200.3 M336,203.9l2.5,22.8l-13.2-6.6l-8.5,10.4l-25-28.5l25,28.5l8.5-10.4l13.2,6.6
				L336,203.9z"/>
			<path d="M270,358.6c-0.4,4.9-0.9,9.7-1.6,14.4c-1.2,8.5-1.1,8.5,0.2-0.1c-1.3,39.6,33.9,42.2,105.7,7.7l-1.6-27.1
				c-25.3,5.6-57.4,7.6-96.4,5.8c-0.1,0-0.3,0-0.4,0l0,0L270,358.6z"/>
			<path class="st12" d="M262.1,244.9h-9.4c1.6,6.2,4.7,13.2,9.3,21c7.3,35.2,10,66.1,8,92.8l5.9,0.6
				C290.6,326.4,286,288.3,262.1,244.9z"/>
		</g>
	</g>
	<g>
		<path id="Layer57_0_1_STROKES" class="st13" d="M336,203.9l2.5,22.8l-13.2-6.6l-8.5,10.4l-25-28.5"/>
	</g>
</g>
<g transform="matrix( 1, 0, 0, 1, 0,0) ">
	<g>
		<g id="Layer50_0_FILL">
			<path class="st8" d="M346.8,340.6c2.6-1.4,2.2-2.9-1.3-4.6l-5.5-2.5c-6.3-4.2-10.1-3.8-11.2,1.2c-1.1,4.9,1.6,6.4,8.2,4.5
				C340.8,341.1,344,341.6,346.8,340.6z"/>
		</g>
	</g>
</g>
<g transform="matrix( 1, 0, 0, 1, 0,0) ">
	<g>
		<g id="Layer49_0_FILL">
			<path class="st8" d="M323.5,330.1c-5.4,4.5-5.8,8.1-1.1,10.6c7.3,0.3,12.8-0.2,16.5-1.7c2.8,0.3,7.4,0.7,13.7,1
				c4.6-1,4.8-3.4,0.8-7.2c-4.2-3.9-9.3-6.8-15.2-8.7C336.9,323.5,332,325.5,323.5,330.1z"/>
		</g>
	</g>
</g>
<g transform="matrix( 1, 0, 0, 1, 0,0) ">
	<g>
		<g id="Layer47_0_FILL">
			<path class="st8" d="M334.4,326c-2,2.8,1.8,4,11.4,3.5c3.2,1.1,6.9,1.6,10.9,1.6c2-1.2,1.6-2.4-1.3-3.6l-5.1-2.4
				C341.7,322.9,336.5,323.2,334.4,326z"/>
		</g>
	</g>
</g>
<g transform="matrix( 1, 0, 0, 1, 0,0) ">
	<g>
		<g id="Layer48_0_FILL">
			<path class="st8" d="M343.4,334.7c-7.7-2.4-12.1-1.8-13,1.9c-0.9,3.7,1.9,4.4,8.5,1.9c3,1.2,6.4,2,10.2,2.3c2-1,1.7-2.2-1-3.5
				L343.4,334.7z"/>
		</g>
	</g>
</g>
<g transform="matrix( 1, 0, 0, 1, 0,0) ">
	<g>
		<g id="Layer45_0_FILL">
			<path class="st8" d="M387.4,338.5c6.9-0.7,8.9-3.1,6.1-7.2c-2.8-4.2-6.4-3.2-10.8,3l-4.3,4.3c-2.7,2.8-2.5,4.4,0.5,4.8
				C381.7,343.2,384.6,341.6,387.4,338.5z"/>
		</g>
	</g>
</g>
<g transform="matrix( 1, 0, 0, 1, 0,0) ">
	<g>
		<g id="Layer44_0_FILL">
			<path class="st8" d="M383.7,337.1c8.5-0.1,11.8-4,9.9-11.8c-1.9-7.3-5.6-9.2-11.2-5.6l-1.2,1.1c-6,3.7-10.3,8.8-12.9,15.4
				c-1.4,3.7-1.1,5.8,1.1,6.4C377,340.4,381.7,338.6,383.7,337.1z"/>
		</g>
	</g>
</g>
<g transform="matrix( 1, 0, 0, 1, 0,0) ">
	<g>
		<g id="Layer43_0_FILL">
			<path class="st8" d="M373.3,333.1c8.4-4.7,11-7.7,7.8-9c-3.2-1.2-7.8,1.3-13.9,7.7l-3,4.8c-1.8,2.5-1.6,3.8,0.8,3.8
				C368.4,338.2,371.1,335.7,373.3,333.1z"/>
		</g>
	</g>
</g>
<g transform="matrix( 0.40057373046875, 0, 0, 0.40057373046875, -1421,-139.05) ">
	<g>
		<g id="Layer42_0_MEMBER_0_MEMBER_0_MEMBER_0_FILL">
			<path class="st10" d="M4603.9,1143.1c9.2-15.1,5.6-33.8-10.6-56.2c-31.4-32.5-63.8-9.2-97,69.8c9.5,14.6,21.6,26.7,36.4,36.4
				C4568.1,1174.8,4591.8,1158.1,4603.9,1143.1z"/>
		</g>
	</g>
</g>
<g transform="matrix( 0.4005279541015625, 0, 0, 0.4005279541015625, -1436.55,-138.95) ">
	<g>
		<g id="Layer46_0_MEMBER_0_MEMBER_0_MEMBER_0_FILL">
			<path class="st10" d="M4394.7,1208.2l24.4-54.5c-76.3-9.2-147.1-24.3-212.3-45.5c-37.3-8.9-62,3.7-74.1,37.9
				c-1.8,21,4.2,39.1,18.1,54.5C4185,1220.6,4266.4,1223.1,4394.7,1208.2z"/>
		</g>
	</g>
</g>
<g transform="matrix( 0.40057373046875, 0, 0, 0.40057373046875, -1436.55,-138.95) ">
	<g>
		<g id="Layer51_0_MEMBER_0_MEMBER_0_MEMBER_0_FILL">
			<path class="st10" d="M4253.8,937.1c3-37.4-5.1-52.6-24.2-45.5c-27,14.8-53.3,62.3-78.8,142.4c-23.7,92-23.7,147.5,0,166.6
				c28.6,10.8,53.4-11.4,74.2-66.7C4242.6,1070,4252.2,1004.3,4253.8,937.1z"/>
		</g>
	</g>
</g>
<g transform="matrix( 0.40875244140625, 0, 0, 0.40875244140625, -1488.05,-125.8) ">
	<g>
		<g id="Layer52_0_MEMBER_0_MEMBER_0_MEMBER_0_FILL">
			<path d="M4719.2,1698.2c-12,5.2-18.7,17.8-20.2,37.8h122.8C4804.1,1719.3,4769.9,1706.7,4719.2,1698.2z"/>
		</g>
	</g>
</g>
<g transform="matrix( 0.40875244140625, 0, 0, 0.40875244140625, -1488.05,-125.8) ">
	<g>
		<g id="Layer52_1_MEMBER_0_MEMBER_0_MEMBER_0_FILL">
			<path d="M4780.1,1260.8c-4.2-28.9-23.4-41.1-57.6-36.4c-38.1,6.6-56.9,25.8-56.1,57.7l22.7,422.8h62.2
				C4774.3,1517.3,4783.9,1369.3,4780.1,1260.8z"/>
		</g>
	</g>
</g>
<g transform="matrix( 1, 0, 0, 1, 0,0) ">
	<g>
		<g id="Layer55_0_FILL">
			<path d="M465.6,397.6c0.6-8.2-5-16.2-16.7-24.1s-37.2-13.5-76.2-16.8c-22.4,0.4-38,7.8-46.9,22.1l23.9,33.2
				c41.7-4.7,66.2-5.2,73.3-1.7C452.7,417.2,467,413,465.6,397.6z"/>
		</g>
	</g>
</g>
<g transform="matrix( 0.40869140625, 0, 0, 0.40869140625, -1488.05,-125.8) ">
	<g>
		<g id="Layer53_0_MEMBER_0_MEMBER_0_MEMBER_0_FILL">
			<path d="M4583.1,1724.5c-7.2,5-11.2,17.6-12,37.7h73.7C4634.1,1745.3,4613.5,1732.8,4583.1,1724.5z"/>
		</g>
	</g>
</g>
<g transform="matrix( 0.40869140625, 0, 0, 0.40869140625, -1488.05,-125.8) ">
	<g>
		<g id="Layer53_1_MEMBER_0_MEMBER_0_MEMBER_0_FILL">
			<path d="M4438,1248.4c-45.4,12.3-61.3,36.1-47.6,71.3l172.7,421.4l53-13.7l-90.9-431.9C4512.7,1251.8,4483.6,1236.1,4438,1248.4z
				"/>
		</g>
	</g>
</g>
<g transform="matrix( 1, 0, 0, 1, 0,0) ">
	<g>
		<g id="Layer54_0_FILL">
			<path d="M281.4,407.9l31.5,19.6c40.4,11.7,56.9,3.8,49.5-23.9c-6-17.6-15.6-28.7-29-33.2c-33.7-11.7-55.3-10.8-64.8,2.5
				C263,394.6,267.2,406.2,281.4,407.9z"/>
		</g>
	</g>
</g>
<g transform="matrix( 1, 0, 0, 1, 0,0) ">
	<g>
		<g id="Layer40_0_FILL">
			<path class="st14" d="M147,346c-1,0.8-1.5,1.9-1.6,3.2L138,583.3l0,0h0.1l16.5-233.5c0.1-1.3-0.2-2.4-1.1-3.3
				c-0.8-1-1.9-1.5-3.2-1.7C149.1,344.7,148,345.1,147,346 M106.6,349.5l-2.1,23.5l8.5-0.2l3-22.2c0.2-1.3-0.1-2.5-0.9-3.5
				c-0.8-1.1-1.9-1.7-3.1-1.8c-1.3-0.2-2.4,0.2-3.4,1s-1.6,1.8-1.8,3.1v0.1 M547.9,349.8l0.6,9.2l9-0.3l-0.3-9.4
				c0-1.3-0.5-2.4-1.5-3.3s-2.1-1.3-3.4-1.2s-2.4,0.5-3.2,1.5c-0.9,1-1.3,2.1-1.3,3.4L547.9,349.8 M587.9,349.9v0.2l30.2,227.2
				c0,0.1,0,0.1,0.1,0c0.1,0,0.1,0,0-0.1l-21-228.2c-0.1-1.3-0.6-2.4-1.6-3.2c-1-0.8-2.2-1.2-3.5-1.1s-2.3,0.7-3.2,1.7
				C588.2,347.5,587.8,348.7,587.9,349.9z"/>
			<path class="st15" d="M113,372.8l-8.5,0.2L85.6,577.7c-0.1,0.1-0.1,0.1,0.1,0.1c0.1,0,0.1,0,0.1,0L113,372.8 M557.5,358.7l-9,0.3
				l15.9,224.2c0,0.1,0,0.1,0,0c0.1,0,0.1,0,0,0L557.5,358.7z"/>
		</g>
	</g>
</g>
<g transform="matrix( 0.1533660888671875, 0, 0, 0.1533660888671875, -152.5,496.25) ">
	<g>
		<g id="Layer39_0_MEMBER_0_MEMBER_0_MEMBER_0_MEMBER_0_FILL">
			<path class="st16" d="M2077.5-1554c-0.2-2-0.4-4-0.6-5.9c0.1,1.1,0.2,2.2,0.3,3.3c2.8,30.9,4.7,51.9,5.6,63.2
				c0.1-0.1,0.1-0.2,0.2-0.5C2081.9-1506,2080.1-1526.1,2077.5-1554 M1935-1564.2c-10,13.8-13.7,30.5-11.1,50.2
				c2.5,19.6,15.8,37.5,39.8,53.9c23.9,16.4,48.4,25.7,73.3,27.9c8,0.7,16.5-0.8,25.6-4.6c11.3-4.7,18.6-11.4,21.9-20.3
				c2.5,4.1,4,6.5,4.6,7.3c3.2,4.5,6.8,8.3,10.7,11.4c11.9,9.6,25.9,12,42,7.4c23.7-7.8,44.9-22.4,63.7-43.9
				c18.6-21.6,26.2-42.1,23-61.6c-3.1-19.7-11.6-34.9-25.6-45.8c-13.6-10.8-29.9-13.3-48.9-7.6c-18.7,5.6-37.4,19.2-56,40.7
				c-5.5,6.2-9.4,17.1-11.9,32.7c-0.6,3.8-1.3,8.9-2,15.4c-0.4,3.7-0.7,6-1,7c0.2,2.8,0.4,5.2,0.6,7.2c0,0.1-0.1,0.2-0.1,0.2
				c-0.1,0.1-0.3,0.1-0.4-0.1c-1.3-1.5-2.9-5.3-4.8-11.4c-3.1-10.1-5.1-16.5-6.1-19.1c-6.6-18.4-15.7-31.5-27.2-39.1
				c-24.1-16.2-46-24.9-65.8-26.2C1959.6-1583.8,1944.9-1577.7,1935-1564.2 M2173.7-1723.7c-14.5-7.6-30.1-8.2-46.9-1.7
				c-16.8,6.5-31.9,19.3-45.4,38.5c-0.5,0.7-3.3,6.9-8.4,18.8c-4.4,10.1-7,14.4-7.6,12.8c-1.1-5.1-3.8-14.5-8.1-28.4
				c-1.3-4.2-2.4-7.9-3.4-11.1c1,3.3,2.1,7,3.3,11.2c4.6,15.3,7.4,24.7,8.2,28.4l-0.1,0.1c-1.4-0.9-7.1-6.3-17.2-16.4
				c-9.8-9.7-15.6-15-17.4-15.8c-25-11.1-46.8-16.2-65.3-15.2c-18.6,0.6-31.6,6.9-39,18.9c-7,12.3-7.6,26.3-1.9,42
				c5.4,15.7,20.7,29.1,46,40.2c11.4,5.2,22.9,8.1,34.4,8.8c8.2,0.5,18.8-0.3,31.7-2.2c10.2-2.5,18.5-7.2,24.9-14
				c0.3-0.3,2.2-2.6,5.7-6.7c1.7-2,3-3,4.1-3.2c2,4.4,5.8,8.6,11.5,12.7c5.3,3.8,11.6,7,18.8,9.6s14.3,4.1,21.1,4.6
				c7.3,0.5,13.5-0.3,18.4-2.3c20.5-8.7,37.9-22.6,52.1-41.8c13.8-19.4,17.8-36.9,12-52.7C2198.9-1704.3,2188.4-1716,2173.7-1723.7
				 M2110.8-1800.1c-10.3-3.9-20.9-3.1-31.7,2.1c-5.1,2.4-9.8,5.7-14.2,9.9c-1.3-4.1-3.4-8.3-6.2-12.4c-6.5-9.9-16.1-16.4-28.8-19.2
				c-13-3-22.3-3.1-27.9-0.2c-5.3,2.7-9.7,8.1-13,16.2c-3.2,7.5-0.9,17.7,6.9,30.6c-8.9-1.2-17-1.3-24.3-0.3
				c-12.6,1.7-20.7,6.4-24.2,14.3c-3.7,8-3,16.8,2.1,26.4c5.3,9.3,17,16.5,35.1,21.7c17.9,5.2,34.8,6.8,50.7,4.9
				c0.4,0,2.7-0.9,6.9-2.5c4.2-1.7,6.5-2.5,6.8-2.6c5.6,1.7,13.9,1.8,25,0.4c11.2-1.4,20.1-3.8,26.5-7.1
				c13.5-6.9,24.1-16.8,31.7-29.6c7.7-12.8,8.8-23.9,3.4-33.2C2129.7-1790.1,2121.5-1796.5,2110.8-1800.1 M2313.1-1369.4
				c-2-24.5-12.9-43.9-32.6-58.3c-19.6-14.6-44.3-19.2-74.1-13.8c-30.1,4.8-61,19.5-92.6,44.1c-8,7.4-15.2,18.8-21.6,34
				c-1.6,3.8-3.6,8.9-6,15.2c-1.8,4.6-3.2,7.4-4.2,8.3c-2-1.9-4.3-5.9-6.9-11.8c-3.2-7.7-5.9-13.8-8.1-18.4
				c-8.6-17.7-19.6-31.4-33.2-40.9c-34.8-22.4-67.4-35.3-97.6-38.5c-29.8-3.7-53.6,2.2-71.3,17.8c-17.3,15.8-25.2,35.8-23.7,60.2
				c0.9,23.9,18.6,47.1,53.2,69.6c34.4,22.4,70.7,36.1,108.8,41c6.2,0.9,12.9,0.6,20.4-0.8c7.5-1.5,14.8-4,21.8-7.5
				c16.1-8.1,26.9-19,32.4-32.7v0.2c0,0.1,0,0.2-0.1,0.3c0,0.1,0,0.1,0,0.2c-0.4,13.9,9.3,24.2,28.9,30.8
				c12.8,4.3,33.2,7.6,61.1,9.8c15.8-0.5,32.3-3.5,49.3-9.2c19.4-6.4,36.5-15.3,51.4-26.8
				C2300.3-1321.1,2315.2-1345.3,2313.1-1369.4z"/>
		</g>
	</g>
</g>
<g transform="matrix( 0.153411865234375, 0, 0, 0.153411865234375, -152.5,496.25) ">
	<g>
		<g id="Layer39_0_MEMBER_1_MEMBER_0_FILL">
			<path class="st17" d="M2027.8-1771.7c0.8,1.9,2.2,5.3,4,10.4l3.8,10.5c1.1,2.9,2.3,6.4,3.7,10.5c0.8,2.4,1.9,5.9,3.3,10.6
				l6.4,21.3c0.7,2.4,1.7,6,3,10.7c1.2,4.2,2.1,7.8,2.8,10.8l2.6,10.8c1.6,6.8,2.4,10.4,2.5,10.8l4.6,21.8l3.9,21.9
				c4.8,29.8,8.3,59.3,10.5,88.3c0.3,4.9,0.9,12.3,1.6,22.2l1.7,44.5c0.1,1.2,0.1,4.9,0.2,11.1l0.1,11.1c0.1,28.2-0.6,57.9-2.2,89
				c-1.3,25.9-3.5,55.5-6.7,88.8c-2.4,25.4-5.8,54.9-10.2,88.5c-1.6,12.7-3.5,27.4-5.8,44.2l-5.6,44.2c1.5-9.9,3.8-24.5,6.9-44
				c3.2-19.7,5.5-34.3,6.9-44c4.6-30.8,8.4-60.3,11.6-88.5c3.2-27.9,5.7-57.5,7.6-88.9c1.7-29.5,2.5-59.2,2.5-89.3
				c-0.3-62.6-5.3-121.9-15.2-177.9c-10.9-61.8-28.4-118.6-52.6-170.2L2027.8-1771.7z"/>
		</g>
	</g>
</g>
<g transform="matrix( 0.15338134765625, 0, 0, 0.15338134765625, -152.5,496.25) ">
	<g transform="matrix( 6.519683837890625, 0, 0, 6.519683837890625, 994.25,-3235.4) ">
		<path id="Layer39_0_MEMBER_2_MEMBER_0_MEMBER_0_1_STROKES" class="st18" d="M2047.1-2096.2l-25.8,18.8h-2.1l21.5,56.2l38.8-28.2
			l-12.8-23.4 M2118.4-2077.4l-39,28l52,14.2 M1988.7-2077.4h30.4l-10.8-28.2 M1969.3-2058.7l19.4,28.2l-0.7,1.8l52.6,7.6
			 M1975.7-1997.8l12.3-31l-44.7-6.4 M2021.3-1974.4l12.8,42.2l-1.3,1.4l40.3,12.6l27.9-22.6l-1.9-0.8l-13-32.8 M1937-1904l59-38.2
			l-0.7-0.3l-71.4-22.5 M1982.3-1880.6l50.5-50.2l-36.8-11.4 M1982.5-1815.3l-58.6,19.1 M1982.5-1815.3l-0.2-0.2l-51.9-27.7
			 M1950-1754l84.8-33.4l-0.7-0.2l-51.6-27.7 M2034.1-1787.6l-6.4-60.2 M1982.3-1815.5l-13-51.1 M2124.8-1960.4l78,18.8
			 M2124.8-1960.4l-23.9,19.6l82.2,32 M2112-1847.8l0.9,61.6l0.4-0.2l50.5-35v-54.6 M2215.7-1857.2l-52,35.8v1.6l64.7,9.4
			 M2176.7-2002.4l-52,42l-19.4-37.4 M1995.3-1942.5l-6.6-41.3 M2030.9-1695.5l-13.2,70.5v0.5c21.2,9.7,43,18.8,65.2,27.5l38.8-18.8
			l6.6-75 M2212.3-1728.3l0.6,66.4c0-0.2,0.2-0.3,0.5-0.3c24.3-12.8,47.7-25.5,70.2-37.9 M2212.9-1661.9
			c-31.1,16.2-61.5,31.5-91.4,46l142.7,37.6 M1849.5-1629.9l90.7-32.8l0.4-1.7c-27-15.3-53.1-32-78.2-49.9 M2017.7-1624.5l-0.7-0.2
			l-109.2,46.3 M1946.8-1732.9l-6.2,68.6c24.9,14.4,50.4,27.6,76.5,39.7l0.7-0.3 M2113.3-1786.3l89.5,27.6 M2034.7-1787.4l44.7,24
			l33.5-22.8 M2213.4-1662.2l96.2,32.3"/>
	</g>
</g>
<g transform="matrix( 0.15338134765625, 0, 0, 0.15338134765625, -152.5,496.25) ">
	<g transform="matrix( 6.519683837890625, 0, 0, 6.519683837890625, 994.25,-3235.4) ">
		<path id="Layer39_0_MEMBER_3_MEMBER_0_MEMBER_0_1_STROKES" class="st19" d="M2047.1-2096.2l-25.8,18.8h-2.1l21.5,56.2l38.8-28.2
			l-12.8-23.4 M2118.4-2077.4l-39,28l52,14.2 M1988.7-2077.4h30.4l-10.8-28.2 M1969.3-2058.7l19.4,28.2l-0.7,1.8l52.6,7.6
			 M1975.7-1997.8l12.3-31l-44.7-6.4 M2021.3-1974.4l12.8,42.2l-1.3,1.4l40.3,12.6l27.9-22.6l-1.9-0.8l-13-32.8 M1937-1904l59-38.2
			l-0.7-0.3l-71.4-22.5 M1982.3-1880.6l50.5-50.2l-36.8-11.4 M1982.5-1815.3l-58.6,19.1 M1982.5-1815.3l-0.2-0.2l-51.9-27.7
			 M1950-1754l84.8-33.4l-0.7-0.2l-51.6-27.7 M2034.1-1787.6l-6.4-60.2 M1982.3-1815.5l-13-51.1 M2124.8-1960.4l78,18.8
			 M2124.8-1960.4l-23.9,19.6l82.2,32 M2112-1847.8l0.9,61.6l0.4-0.2l50.5-35v-54.6 M2215.7-1857.2l-52,35.8v1.6l64.7,9.4
			 M2176.7-2002.4l-52,42l-19.4-37.4 M1995.3-1942.5l-6.6-41.3 M2030.9-1695.5l-13.2,70.5v0.5c21.2,9.7,43,18.8,65.2,27.5l38.8-18.8
			l6.6-75 M2212.3-1728.3l0.6,66.4c0-0.2,0.2-0.3,0.5-0.3c24.3-12.8,47.7-25.5,70.2-37.9 M2212.9-1661.9
			c-31.1,16.2-61.5,31.5-91.4,46l142.7,37.6 M1849.5-1629.9l90.7-32.8l0.4-1.7c-27-15.3-53.1-32-78.2-49.9 M2017.7-1624.5l-0.7-0.2
			l-109.2,46.3 M1946.8-1732.9l-6.2,68.6c24.9,14.4,50.4,27.6,76.5,39.7l0.7-0.3 M2113.3-1786.3l89.5,27.6 M2034.7-1787.4l44.7,24
			l33.5-22.8 M2213.4-1662.2l96.2,32.3"/>
	</g>
</g>
<g transform="matrix( 0.1533660888671875, 0, 0, 0.1533660888671875, -152.5,496.25) ">
	<g>
		<g id="Layer39_0_MEMBER_4_MEMBER_0_MEMBER_0_MEMBER_0_FILL">
			<path class="st20" d="M2180.8-945.1l11.3-43.8c-28.2-7.5-58.5-19.5-90.9-36l-61.1-30.4c-20.7-9.1-37.1-13.6-49.2-13.6
				c-8.1,0-15.3,0.2-21.7,0.7l29.6,123.2L2180.8-945.1 M2239.1-1178.2l14.2-57.3h-324.1l18.7,78.3v0.4c33.1-14.3,65.1-16.2,96.1-5.8
				c8.7,2.9,18.9,6.9,30.4,12c9.9,4.3,16.1,6.8,18.8,7.4C2163.2-1121.5,2211.8-1133.2,2239.1-1178.2z"/>
		</g>
	</g>
</g>
<g transform="matrix( 0.1533660888671875, 0, 0, 0.1533660888671875, -152.5,496.25) ">
	<g>
		<g id="Layer39_0_MEMBER_4_MEMBER_0_MEMBER_0_MEMBER_1_FILL">
			<path class="st21" d="M2044.1-1162.5c-30.9-10.4-62.9-8.5-96.1,5.8l21.1,88.4c6.4-0.4,13.6-0.7,21.7-0.7
				c12.1,0,28.5,4.5,49.2,13.6l61.1,30.4c32.5,16.5,62.8,28.5,90.9,36l47.1-189.3c-27.3,45-75.9,56.7-145.9,35.1
				c-2.6-0.6-8.9-3.1-18.8-7.4C2062.9-1155.6,2052.8-1159.6,2044.1-1162.5z"/>
		</g>
	</g>
</g>
<g transform="matrix( 1, 0, 0, 1, 0,0) ">
	<g>
		<g id="Layer38_0_FILL">
			<path class="st15" d="M320.6,341v11.1H422V341H320.6 M501.8,323.9h79.6l13.2-128.7H382.7l-13.2,128.7H470v-57.1h31.8V323.9z"/>
			<path class="st14" d="M295,352.1h25.6V341H295V352.1 M501.8,351.5v-27.6v-57.1H470v57.1v16.6h-24.8v11H501.8 M594.5,195.2
				l-5.1-4.8H377.6l-12.4,128.7l4.3,4.8l13.2-128.7H594.5z"/>
		</g>
	</g>
</g>
<g transform="matrix( 1, 0, 0, 1, 0,0) ">
	<g>
		<g id="Layer37_0_FILL">
			<path class="st22" d="M535.1,360.3v-14.2H87.4l1,14.2H535.1z"/>
			<path class="st23" d="M621.7,360.3l2-14.2H535v14.2H621.7z"/>
		</g>
	</g>
</g>
</svg>
