<?xml version="1.0" encoding="utf-8"?>
<!-- Generator: Adobe Illustrator 26.2.1, SVG Export Plug-In . SVG Version: 6.00 Build 0)  -->
<svg version="1.1" id="Layer_2" xmlns="http://www.w3.org/2000/svg" xmlns:xlink="http://www.w3.org/1999/xlink" x="0px" y="0px"
	 viewBox="0 0 1200 1200" style="enable-background:new 0 0 1200 1200;" xml:space="preserve">
<style type="text/css">
	.st0{fill:#E7F7F9;}
	.st1{opacity:0.5;fill:#E9EAEB;}
	.st2{fill:#2B2B2B;}
	.st3{fill:#CBCBCB;}
	.st4{fill:#E2E2E2;}
	.st5{fill:none;stroke:#2B2B2B;stroke-width:25;stroke-miterlimit:10;}
	.st6{fill:#353E3E;}
	.st7{clip-path:url(#SVGID_00000047740883889187082950000009269224795801601717_);}
	.st8{fill:none;stroke:#555E5E;stroke-width:2;stroke-miterlimit:10;}
	.st9{fill:#E1B080;}
	.st10{clip-path:url(#SVGID_00000115481922075159066700000011698396519128739970_);fill:#BB9880;}
	.st11{fill:#212323;}
	.st12{fill:#E1B080;stroke:#C1977C;stroke-width:2;stroke-miterlimit:10;}
	.st13{fill:none;stroke:#212323;stroke-width:2;stroke-linecap:round;stroke-miterlimit:10;}
	.st14{fill:#EAC4DC;}
	.st15{fill:#D8B1CC;}
	.st16{fill:#FBE7F2;}
	.st17{fill:#C5946B;}
	.st18{clip-path:url(#SVGID_00000172408201187708548060000015442143927798440637_);fill:#AE7F5B;}
	.st19{clip-path:url(#SVGID_00000059993039197971612380000007232267816527623058_);fill:#CC9A71;}
	.st20{fill:#697778;}
	.st21{fill:#839595;}
	.st22{fill:none;stroke:#171919;stroke-width:8;stroke-linecap:round;stroke-miterlimit:10;}
	.st23{fill:#424C4C;}
	.st24{fill:none;stroke:#B5BEBE;stroke-width:4;stroke-linecap:round;stroke-miterlimit:10;}
	.st25{fill:#687272;}
	.st26{fill:none;stroke:#687272;stroke-width:13;stroke-linecap:round;stroke-miterlimit:10;}
	.st27{fill:none;stroke:#AE7F5B;stroke-width:2;stroke-miterlimit:10;}
	.st28{fill:#CC9A71;}
	.st29{clip-path:url(#SVGID_00000116915105254376131810000014968455633511251614_);fill:#212323;}
</style>
<g>
	<path class="st0" d="M142.9,761.2c76.1,152.9,358.8-97,632.5-129.1c256.9-30.1,356.7-222.4,280.5-375.3
		c-76.1-152.9-372.6-140.1-617.2-18.3S66.7,608.2,142.9,761.2z"/>
	<path class="st1" d="M947.2,1003.5c-33,17.4-133.6,65-402.2,57.4c-100.4-2.8-239.5-83.8-264.5-113.2
		c-24.2-28.4,106.4-54.7,308.1-54.7S1003.1,974.1,947.2,1003.5z"/>
	<g>
		<g>
			<ellipse class="st2" cx="575.4" cy="923.7" rx="8.7" ry="10.8"/>
			<ellipse class="st2" cx="583.9" cy="920.7" rx="8.7" ry="10.8"/>
			<path class="st3" d="M569.7,913c-3-0.6,14-6.9,14-6.9s11.4,3.2,10.6,15.9l-12.7,4.8C581.6,926.8,580.7,915.3,569.7,913z"/>
		</g>
		<g>
			<ellipse class="st2" cx="433.7" cy="923.4" rx="8.5" ry="10.6"/>
			<ellipse class="st2" cx="442" cy="920.5" rx="8.5" ry="10.6"/>
			<path class="st3" d="M428.1,912.9c-3-0.6,13.7-6.8,13.7-6.8s11.2,3.2,10.4,15.7l-12.5,4.8C439.7,926.5,438.9,915.2,428.1,912.9z"
				/>
		</g>
		<path class="st3" d="M502.2,902.4L445,891.7c0,0-2.2-2-3.5,0.2C440.3,894,438,915,438,915l3.5,2.2l3-14.7l57.1,17.8L502.2,902.4z"
			/>
		<path class="st3" d="M515.9,902.4l60-10.8c0,0,2.4-2,3.7,0.2c1.3,2.2,3.7,23.2,3.7,23.2l-3.7,2.2l-3.2-14.7l-60,17.8L515.9,902.4z
			"/>
		<path class="st4" d="M515.8,631.8c5.9,0.7,13.2,1.3,13.8-4c0.7-5.3,1.3-17.8,5.3-17.8s122.6,4,122.6,4s9.9,0.7,12.5,7.2
			c2.6,6.6,3.3,9.2,2,15.8c-1.3,6.6-11.9,69.2-13.2,75.1c-1.3,5.9-7.2,14.5-19.8,19.1c-12.5,4.6,12.2,8.2,21.3,0.1
			c5.9-5.3,9-14,9-14l16.5-84.3c0,0,3.3-7.2-3.3-15.2s-16.5-9.9-19.8-9.9s-123.2-4-123.2-4s-14.5,0-21.1,4.6
			C511.9,613.3,515.8,631.8,515.8,631.8"/>
		<rect x="500.6" y="778.6" class="st2" width="16.5" height="141.1"/>
		<rect x="454.9" y="791.5" transform="matrix(0.5 0.866 -0.866 0.5 970.0612 30.9919)" class="st2" width="6.7" height="128.3"/>
		<rect x="498.2" y="839.8" class="st2" width="21.4" height="42.3"/>
		<rect x="497.6" y="888.5" class="st4" width="23.1" height="53.5"/>
		<circle class="st4" cx="398.5" cy="891.5" r="11.9"/>
		<path class="st2" d="M615.3,801.7c-6.1,6.4-27.5,9.2-27.5,9.2l-29.3,8.7l-4.9,10.4l-33,8.1l-24.4-6.4l-40.9,10.4
			c0,0-9.8,0-10.4-8.7c-0.6-8.7,7.9-11,7.9-11l21.4-6.4l1.2-17.3l22-3.5v-23.1c0,0,136.8-16.8,134.9-16.2
			C630.6,756.6,615.3,801.7,615.3,801.7z"/>
		<polygon class="st5" points="470,827.5 403.5,758.5 472.5,748.1 488.3,822.6 		"/>
		<path class="st6" d="M284.4,469.2c-4.3,8.6,5.1,15.9,6.2,22.7c1.1,6.8,19.9,61.3,21,145.9c0.3,23.5-7.4,81.7,8.5,102.7
			c15.9,21,27.2,27.8,57.9,30.1s93.1,6.8,115.2,14.2c22.1,7.4,25.7,17.6,32.4,19.9c8.5,2.8,211.7-42.6,215.7-46
			c4-3.4,9.1-15.3-6.8-18.7c-15.9-3.4-95.4-20.4-183.4-17c-44.1,1.7-38.6-64.3-36.9-99.3c3.4-69.3-25-135.1-25-135.1s4-6.8,0-13.1
			c-4-6.2-10.2-5.7-10.2-5.7s-36.9,5.7-85.7,2.8C344.5,469.8,288.9,460.1,284.4,469.2z"/>
		<g>
			<defs>
				<path id="SVGID_1_" d="M284.4,469.2c-4.3,8.6,5.1,15.9,6.2,22.7c1.1,6.8,19.9,61.3,21,145.9c0.3,23.5-7.4,81.7,8.5,102.7
					c15.9,21,27.2,27.8,57.9,30.1s93.1,6.8,115.2,14.2c22.1,7.4,25.7,17.6,32.4,19.9c8.5,2.8,211.7-42.6,215.7-46
					c4-3.4,9.1-15.3-6.8-18.7c-15.9-3.4-95.4-20.4-183.4-17c-44.1,1.7-38.6-64.3-36.9-99.3c3.4-69.3-25-135.1-25-135.1s4-6.8,0-13.1
					c-4-6.2-10.2-5.7-10.2-5.7s-36.9,5.7-85.7,2.8C344.5,469.8,288.9,460.1,284.4,469.2z"/>
			</defs>
			<clipPath id="SVGID_00000154387974080027752160000012601788834548617634_">
				<use xlink:href="#SVGID_1_"  style="overflow:visible;"/>
			</clipPath>
			<g style="clip-path:url(#SVGID_00000154387974080027752160000012601788834548617634_);">
				<line class="st8" x1="285.3" y1="489.8" x2="495.9" y2="487.9"/>
				<line class="st8" x1="509.2" y1="511.9" x2="241.1" y2="515.8"/>
				<line class="st8" x1="509.2" y1="537.6" x2="243.7" y2="546.8"/>
				<line class="st8" x1="514.5" y1="563.9" x2="235.1" y2="577.1"/>
				<line class="st8" x1="519.1" y1="585" x2="256.2" y2="604.1"/>
				<line class="st8" x1="522.4" y1="615.3" x2="252.3" y2="630.5"/>
				<line class="st8" x1="524.4" y1="640.4" x2="256.9" y2="664.1"/>
				<line class="st8" x1="526.4" y1="660.8" x2="203.5" y2="701"/>
				<line class="st8" x1="527" y1="684.5" x2="248.3" y2="724.7"/>
				<line class="st8" x1="534.3" y1="707.6" x2="279.9" y2="743.8"/>
				<path class="st8" d="M545.1,721.1c0,0-201.3,21.2-204.6,39.6"/>
				<path class="st8" d="M557.3,722.1c0,0-195.7,22.9-199,41.3"/>
				<path class="st8" d="M575.1,723.4c0,0-195.7,22.9-199,41.3"/>
				<path class="st8" d="M594.2,724.7c0,0-195.7,22.9-199,41.3"/>
				<path class="st8" d="M616,726.7c0,0-195.7,22.9-199,41.3"/>
				<path class="st8" d="M639.7,726.7c0,0-192.4,25.6-195.7,43.9"/>
				<path class="st8" d="M677.2,728.6c0,0-202.3,25.7-205.6,47.4"/>
				<path class="st8" d="M702.9,731.3c0,0-197,26.4-201.6,50.7"/>
				<path class="st8" d="M733.9,735.2c0,0-207.5,23.7-206.9,58"/>
			</g>
		</g>
		<ellipse class="st4" cx="527.1" cy="792.7" rx="6.5" ry="9.1"/>
		<ellipse class="st4" cx="295.5" cy="477.2" rx="6.5" ry="9.1"/>
		<g>
			<ellipse class="st2" cx="371.6" cy="980.4" rx="10" ry="12.5"/>
			<ellipse class="st2" cx="381.4" cy="977" rx="10" ry="12.5"/>
			<path class="st3" d="M365,968.1c-3.5-0.7,16.1-8,16.1-8s13.2,3.7,12.2,18.4l-14.7,5.6C378.7,984.1,377.7,970.8,365,968.1z"/>
		</g>
		<g>
			<ellipse class="st2" cx="639" cy="980.9" rx="10" ry="12.5"/>
			<ellipse class="st2" cx="648.7" cy="977.5" rx="10" ry="12.5"/>
			<path class="st3" d="M632.4,968.6c-3.5-0.7,16.1-8,16.1-8s13.2,3.7,12.2,18.4l-14.7,5.6C646.1,984.6,645.1,971.3,632.4,968.6z"/>
		</g>
		<g>
			<ellipse class="st2" cx="502.9" cy="1011.8" rx="12.9" ry="16"/>
			<ellipse class="st2" cx="515.4" cy="1007.4" rx="12.9" ry="16"/>
			<path class="st3" d="M494.4,996c-4.5-0.9,20.7-10.2,20.7-10.2s16.9,4.8,15.7,23.6l-18.8,7.2C512,1016.5,510.7,999.4,494.4,996z"
				/>
		</g>
		<path class="st4" d="M502.6,908.6l-116.3,28.8c0,0-4.4,0-6.8,3.4c-2.4,3.4-6.8,27.4-6.8,27.4l6.8-1l5.9-18.1l116.3-21.5
			L502.6,908.6z"/>
		<path class="st4" d="M514.3,908.6l118.9,28.8c0,0,4.5,0,7,3.4c2.5,3.4,7,27.4,7,27.4l-7-1l-6-18.1l-118.9-21.5L514.3,908.6z"/>
		<path class="st4" d="M509.4,996.5L509.4,996.5c1.1,0,2-0.9,2.1-2l4.3-84.5h-13.2l4.8,84.6C507.5,995.7,508.4,996.5,509.4,996.5z"
			/>
	</g>
	<path class="st9" d="M391.1,259.5c-1.2,3,2.4,108.2,2.4,108.2l51.1,49.2c0,0,16.4-5.5,15.8-3.6c-0.6,1.8,23.7-39.5,21.3-38.9
		c-2.4,0.6-35.3-85.1-35.3-85.1L391.1,259.5z"/>
	<path class="st9" d="M391.7,274.4c8.2,13.1,7.8,55.7,20.7,65.4c13.4,10,46.8,26.8,67.5,10.9c20.7-15.8,38.7-40.1,1.8-130.7
		c-21.9-53.8-93.7-20.5-100.3-10.9C374.7,218.8,363.8,229.7,391.7,274.4z"/>
	<g>
		<defs>
			<path id="SVGID_00000139294094270740799270000010081880687175142067_" d="M391.7,274.4c8.2,13.1,7.8,55.7,20.7,65.4
				c13.4,10,46.8,26.8,67.5,10.9c20.7-15.8,38.7-40.1,1.8-130.7c-21.9-53.8-93.7-20.5-100.3-10.9
				C374.7,218.8,363.8,229.7,391.7,274.4z"/>
		</defs>
		<clipPath id="SVGID_00000081633313470704637780000017028472153619102637_">
			<use xlink:href="#SVGID_00000139294094270740799270000010081880687175142067_"  style="overflow:visible;"/>
		</clipPath>
		<path style="clip-path:url(#SVGID_00000081633313470704637780000017028472153619102637_);fill:#BB9880;" d="M512.7,289.9
			c-14.6-4.3-40.1-8.5-79,4.3c-21.7,7.1-31-24.3-31-24.3l-24.3,1.8l7.3,73l85.1,40.7l48.6-46.2L512.7,289.9z"/>
	</g>
	<path class="st11" d="M402.7,269.9c-0.6-4.3,5.2-19.5-6.9-33.3c-19.9-20.9,44.9-14.1,34.2-28.6c21.4-9.7,44.4-0.7,44.4-0.7
		c19.7-7.3,0.3-17.7-9.1-13.9c11-8.9,3.6-17.6-18.2-7.9c21.5-27.2-27.5-17.7-54.1,10.9c0.1-8.3-10.9-3-7.3,4.3
		c-11.8-8.2-17.1-3.5-4.3,8.5c-15.5,0.3-17,31.4-12.2,27.4c-0.2,6.2,1.9,29.4,17.5,35.8L402.7,269.9z"/>
	<path class="st9" d="M374.2,286.2c6.6,10.2,18.6,14.1,26.6,8.9c8.1-5.3-0.5-10.5-2.1-24c-1.4-12.1-13.9-18.1-22-12.8
		C368.7,263.5,367.5,276,374.2,286.2z"/>
	<path class="st12" d="M461.1,243.4c7.6,3.2,21.7,38.6,21,42.5c-0.6,3.9-23.8,9-25.1,5.3c-1.3-3.6-1.5-8.7-0.6-9.5
		c0.9-0.7,4.8-1.7,4.8-1.7"/>
	<path class="st13" d="M438,302.3c2.9,3.9,13.3,8.7,20.4,8.5"/>
	<path class="st11" d="M420,241.1L420,241.1c-1.4-1.7-0.6-3.8,0.9-5.4c7.6-8.5,16.1-8.7,20.1-8.3c3.8,0.4,4.4,5.7,2.5,7.4l0,0
		c0,0-3-0.8-7.3-0.5C430.4,234.8,425,237.1,420,241.1z"/>
	<path class="st11" d="M485.7,229.2c-0.3-0.5-6.4-8.6-17-4l-0.5-1.2c-0.6-1.4-0.1-5.1,3.3-5.8c5.5-1.1,9.9,0,12.8,4.8
		C486.5,226.7,485.7,229.2,485.7,229.2l0.7,3.6L485.7,229.2L485.7,229.2z"/>
	<path class="st14" d="M574.1,398.4c9.4,4.4,79.2,125.1,83.6,150.9c4.4,25.8-59.1,37.1-64.1,27s-46.9-145.6-53.4-157.1
		C532,404.7,541.4,383.3,574.1,398.4z"/>
	<path class="st15" d="M547.7,418.5c8.4,6.1,50.9,54.7,89.3,143.9c10.3,24-38.3,23.9-43.4,13.8s-46.9-145.7-53.4-157.1
		C532.1,405,540,412.9,547.7,418.5z"/>
	<path class="st16" d="M668.4,553.7c20.1,4.4,0.6,24.5-14.5,28.3c-15.1,3.8-62.2,10.1-59.1,1.3c3.1-8.8,43-27.6,61-37.7
		C665.9,539.8,668.4,553.7,668.4,553.7z"/>
	<path class="st14" d="M390.9,359.3c-15.4,8.8-36.2,25.3-50.5,30.7c-14.3,5.5-34,20.9-23.1,48.3s74.7,182.3,79.1,239.4
		c4.4,57.1,215.2-18.7,214.1-22c-1.1-3.3-8.8-173.5-42.8-218.5c0,0,22-11,17.6-24.2c-4.4-13.2-14.3-18.7-31.8-20.9
		s-62.6-17.6-75.8-29.7c1.3-3.3-26.5,18.5-26.5,18.5l-1,26.6l-9.5-24.5L390.9,359.3z"/>
	<path class="st16" d="M474.9,400.6c0-2.1,16.7-31.4,16.7-31.4s-6.2-12.3-12.5-10.2c-6.3,2.1-28,22.1-28,22.1L474.9,400.6z"/>
	<path class="st16" d="M440.7,383.2l-11.2,31c0,0-50.9-27.7-53.4-48.4c6.3-4.4,10.1-10.7,13.2-10.7S440.7,383.2,440.7,383.2
		L440.7,383.2z"/>
	<path class="st15" d="M495.7,618.1c0,0-72.6-68.2-77.6-64.2c-5,4-68-102.4-77.8-100.3c-34.1,7.3,42.8,145.6,54.8,230.1
		C403.2,740,495.7,618.1,495.7,618.1z"/>
	<path class="st17" d="M690.5,899.9c0,0-6.9,82.4-14.7,98.9c-7.8,16.5,21.7,21.7,30.4,7.8c8.7-13.9,51.2-152.7,51.2-152.7
		L690.5,899.9z"/>
	<path class="st9" d="M743.4,597.1c0,0,95.4,23.4,124.9,20.8c29.5-2.6,23.4,23.4,19.1,29.5c-4.3,6.1-6.1,18.2-26,14.7
		c-20-3.5-107.6-17.4-145.8-4.3C677.5,670.8,743.4,597.1,743.4,597.1z"/>
	<g>
		<defs>
			<path id="SVGID_00000084510546088231722100000018041490469456202632_" d="M690.5,899.9c0,0-6.9,82.4-14.7,98.9
				c-7.8,16.5,21.7,21.7,30.4,7.8c8.7-13.9,51.2-152.7,51.2-152.7L690.5,899.9z"/>
		</defs>
		<clipPath id="SVGID_00000163756331291869576380000006228609370423831993_">
			<use xlink:href="#SVGID_00000084510546088231722100000018041490469456202632_"  style="overflow:visible;"/>
		</clipPath>
		<path style="clip-path:url(#SVGID_00000163756331291869576380000006228609370423831993_);fill:#AE7F5B;" d="M669,995.7
			c0-2.6,28.7-53.1,28.7-53.1l45.3-1.7l24.4-45.3l-113.2-13.9L669,995.7z"/>
	</g>
	<g>
		<defs>
			<path id="SVGID_00000158713165350579445820000004770310169787857844_" d="M743.4,597.1c0,0,95.4,23.4,124.9,20.8
				c29.5-2.6,23.4,23.4,19.1,29.5c-4.3,6.1-6.1,18.2-26,14.7c-20-3.5-107.6-17.4-145.8-4.3C677.5,670.8,743.4,597.1,743.4,597.1z"/>
		</defs>
		<clipPath id="SVGID_00000067934515657085924050000013490727497747308692_">
			<use xlink:href="#SVGID_00000158713165350579445820000004770310169787857844_"  style="overflow:visible;"/>
		</clipPath>
		<path style="clip-path:url(#SVGID_00000067934515657085924050000013490727497747308692_);fill:#CC9A71;" d="M806.6,566.5
			c14.8,16.5,25.2,81,25.2,81l64.4,24.4l-138.4,30.5l7.8-126.2L806.6,566.5z"/>
	</g>
	<path class="st20" d="M481.2,723.3c20.7,11.7,236.3,16.6,236.3,16.6s-44.2,61.8-35.3,182.2c12.1,15.5,57.4,6.6,57.4,6.6
		s93.8-231.9,85-247.3s-16.6-44.2-48.6-51.9c-32-7.7-142.4-23.2-173.3-18.8c-25.2,3.6-83.9,3.3-104.9,24.3
		C476.8,655.9,432.7,695.7,481.2,723.3z"/>
	<path class="st21" d="M489,752c58.3,3.8,101.6-96.1,109.3-100.5c7.7-4.4,23.2,34.2,121.4-9.9c51.3-23.1,96.1,24.3,96.1,24.3
		s13.2-50.8-6.6-74c-19.9-23.2-248.4-33.1-274.9-25.4c0,0-122.1,66.9-138.5,115.3C395.7,681.8,386.3,745.4,489,752z"/>
	<path class="st21" d="M736.5,654.1c-193.9,61,1.7,74.5,1.7,74.5s-57.6,128.7-56,193.4c12.1,15.5,57.4,6.6,57.4,6.6
		s93.8-231.9,85-247.3S765.7,644.9,736.5,654.1z"/>
	<g>
		<path class="st22" d="M945.7,535.3c3.3,6.7,2.4,61.2-17.4,78.3c-19.7,17.1-27.8,20.6-27.8,20.6"/>
		<path class="st6" d="M848.7,609.7c0,12.5,14.2,14.9,27.1,11c12.9-3.9-1.3,9.7-7.8,17.4c-6.5,7.8-23.3,16.2-25.2,23.3
			c-1.9,7.1,31.4,24.7,39.3,21.2c18.5-8.2,29.2-40.6,29.2-43.2s-5.2-3.9-5.2-3.9s27.8-20.7,33.6-39.4c5.8-18.7,11.8-61.6,3.9-62.7
			c-14.9-1.9-40.1,30.4-43.9,51.7C895.9,606.5,848.7,599.4,848.7,609.7z"/>
		<path class="st23" d="M898.1,589.8l-14.5,9.8c0,0-11.1,12.7,2.8,42c7.5,0.1,9.7-9.1,9.7-9.1S881,608.8,898.1,589.8z"/>
		<path class="st23" d="M889.6,617.4l7.6-10.1c0,0,9.5,11.4,12.7,13c3.2,1.6,8.9-9.2,7-11.1c-1.9-1.9-12.6-7.2-17.1-24l-16.1,14.5
			L889.6,617.4z"/>
		<line class="st24" x1="882.6" y1="634.8" x2="893.7" y2="626.9"/>
		<line class="st24" x1="903.5" y1="616.1" x2="912.4" y2="606.3"/>
		<line class="st24" x1="898.8" y1="611.7" x2="907.6" y2="601.9"/>
		<line class="st24" x1="879.8" y1="629.1" x2="890.2" y2="621.5"/>
		
			<ellipse transform="matrix(0.2511 -0.968 0.968 0.2511 149.6946 1320.125)" class="st25" cx="928" cy="563.3" rx="12.5" ry="6.6"/>
		<path class="st22" d="M877.6,683.4c3.9-1.5,27.5-16.7,33-44.9"/>
		<path class="st26" d="M858.7,662.1c3,3.5,10.8,8.5,15.8,9.1"/>
	</g>
	<g>
		<path class="st22" d="M827.5,1016.9c-4.7,5.8-54.5,27.9-78.3,17.2c-23.9-10.7-30.4-16.5-30.4-16.5"/>
		<path class="st6" d="M735.2,965.8c4-11.9-19-4-20.7,12.2c-1.4,13.4-3.2,14.5-13,11.9c-9.8-2.6-24.5-14.3-31.7-13.1
			s-9.1,38.9-2.7,44.6c15.2,13.3,49.1,9.4,51.4,8.3c2.3-1.1,1.3-6.3,1.3-6.3s30.5,16.5,49.9,13.9s60.9-15.3,58.5-22.9
			c-4.5-14.3-44.4-23.5-65.4-18.1S731.2,977.7,735.2,965.8z"/>
		<path class="st23" d="M720.4,1011.8c0,0,17.6,12.5,29.8,10.2c0,0-1.4-20.2,12.6-25.8l-19.9-8.5
			C743,987.8,726.1,995.1,720.4,1011.8z"/>
		
			<ellipse transform="matrix(0.9837 -0.18 0.18 0.9837 -169.326 159.5834)" class="st25" cx="794.6" cy="1012.7" rx="12.5" ry="6.6"/>
		<path class="st22" d="M664.4,1017.6c3,2.9,26.8,17.9,54.6,11"/>
		<path class="st26" d="M675.8,991.5c-1.9,4.2-3.1,13.4-1.6,18.2"/>
	</g>
	<g>
		<path class="st9" d="M644.2,570.3c3.7-12.8,12.6-18,19.2-18c6.7,0,7.4,3.7,12.6,0.7c5.2-3,7.4,3,12.6,1.5
			c5.2-1.5,8.9,3.7,10.4,3.7c16.5-0.2,18.5,34,14.1,45.9c-4.4,11.8-6.7,2.2-6.7,2.2s-5.2,24.8-12.1,0.7c-1.5-5.2-8.7,20.3-14.1,0.5
			c-5.2-19-6.1-24.5-13.1-32.3C661.4,568.9,644.2,570.3,644.2,570.3z"/>
		<path class="st27" d="M682.9,566.6c3,3.5,10.4,21.7,10.4,33.3"/>
		<path class="st27" d="M699.9,567.9c3,3.5,6.7,22.7,6.7,34.3"/>
		<path class="st9" d="M631.8,565.4c0,6.1,5,15,11.1,15c6.1,0,11.1-8.9,11.1-15s-4.7-8.4-10.9-8.4C637,557,631.8,559.3,631.8,565.4z
			"/>
		<path class="st27" d="M654,562.5c0,3-0.5,8.4-4.4,13.1"/>
	</g>
	<path class="st4" d="M292.3,651.2c7.8,0.8,17.3,1.6,18.2-4.8s1.7-21.4,6.9-21.4c5.2,0,161.2,4.8,161.2,4.8s13,0.8,16.5,8.7
		c3.5,7.9,4.3,11.1,2.6,19c-1.7,7.9-15.6,83.2-17.3,90.3c-1.7,7.1-9.5,17.4-26,23s16,9.9,28,0.2c7.8-6.3,11.9-16.8,11.9-16.8
		l21.7-101.4c0,0,4.3-8.7-4.3-18.2c-8.7-9.5-21.7-11.9-26-11.9c-4.3,0-162.1-4.8-162.1-4.8s-19.1,0-27.7,5.5
		C287.1,629,292.3,651.2,292.3,651.2"/>
	<path class="st14" d="M308.7,406c-30.4,27.1,7.4,169.1,140.4,173.2c15,0.5,12.3-42.7-5.7-59.1c-18.1-16.4-63.1-84.1-66.5-91.1
		C365.4,405.2,336.7,381.1,308.7,406z"/>
	<path class="st9" d="M417.7,542.8c1.5,11.1,35.6,34,35.6,34s90.8-81.8,111.2-151.6c6.7-22.8-13.6-11.8-24.6-0.6
		C509.6,455.8,412,500.1,417.7,542.8z"/>
	<path class="st16" d="M436.5,504.8c-1.6-0.8,5.2,42.7,27.4,62.7c4.6,4.2-24.3,23.7-46.2,16.6c-9.2-3-3.6-65.4,8.4-81.5
		c8.2-10.9,3.8,3.8,3.8,3.8S433.5,498,436.5,504.8z"/>
	<g transform="matrix( 0.0821685791015625, -0.434844970703125, -0.4565887451171875, -0.0862884521484375, 523.85,1217.45) ">
		<g>
			<g id="Layer33_0_MEMBER_0_MEMBER_0_MEMBER_0_FILL">
				<path class="st28" d="M1762.9,290.9c3.5,0.4,54.7-6,61.2-6.2l20.6-0.6c6.6-0.2,17.9-1.2,33.8-3c14.6-1.7,40.4,0.8,40.4,0.8
					s16.4-16.5-33.9-29.6c-18.5,3.2-35,0.7-49.5-7.5c-15.5-8.7-53.5-24.1-59.5-11.9c-6.1,12-14.2,32.1-10.2,38.6
					C1768.5,275.5,1759.6,290.4,1762.9,290.9z"/>
			</g>
		</g>
	</g>
	<path class="st6" d="M569.5,330.2l-19,92.5l3.1,5.4l43.5-10.5c2.4-0.6,4.3-2.5,4.9-4.9l22.3-87.2l-1.6-2.8
		c-1.3-1.6-3.4-2.5-5.5-2.3l-40.9,3.9C573,324.5,570.3,326.9,569.5,330.2z"/>
	<g>
		<defs>
			<path id="SVGID_00000108987726766316445920000018143457905571261606_" d="M569.5,330.2l-19,92.5l3.1,5.4l42.8-10.4
				c2.8-0.7,5.1-2.9,5.8-5.7l22.2-86.6l-1.6-2.8c-1.3-1.6-3.4-2.5-5.5-2.3l-40.9,3.9C573,324.5,570.3,326.9,569.5,330.2z"/>
		</defs>
		<clipPath id="SVGID_00000183249467054093452900000000955939685486173099_">
			<use xlink:href="#SVGID_00000108987726766316445920000018143457905571261606_"  style="overflow:visible;"/>
		</clipPath>
		<path style="clip-path:url(#SVGID_00000183249467054093452900000000955939685486173099_);fill:#212323;" d="M578.1,336.1l-19,92.5
			l3.1,5.4l47.4-11.5l23.3-91.2l-1.6-2.8c-1.3-1.6-3.4-2.5-5.5-2.3l-40.9,3.9C581.6,330.4,578.8,332.8,578.1,336.1z"/>
	</g>
	<ellipse transform="matrix(0.158 -0.9874 0.9874 0.158 158.6261 861.1719)" class="st6" cx="584.3" cy="337.6" rx="3" ry="2.7"/>
	<ellipse transform="matrix(0.158 -0.9874 0.9874 0.158 164.9448 867.4446)" class="st6" cx="591.1" cy="337" rx="3" ry="2.7"/>
	<path class="st9" d="M528,429.7c3.6-6,6.5-10.4,8.6-13.4c1.8-2.5,4.6-7.9,8.2-16.4c0.6-1.3,1.2-2.6,2.1-3.8l0.4-1.4
		c0.5-8,1.9-14.1,4.1-18.4c1.9-0.9,3.7-1.7,5.5-2.4c0.5-0.3,1.1-0.5,1.6-0.7c10-4.2,16.5-5.9,19.7-5.1c9.8-0.1,18.4-0.2,25.7-0.4
		c-0.3,0.4-0.5,1-0.6,1.7c0,0.7-0.5,2.2-1.6,4.3c-1.1,2.2-9.4,3.7-25,4.4l0.2,0.2l0.1,0l-4.4,2c-0.3,0.1-0.7,0.3-1.3,0.6l-3.4,2.3
		l-0.2,2.8c0.5-0.4,1.1-0.7,1.9-0.9l26.7-2.1c4.2,1.1,7.6,5.2,10.4,12.2c0.4,2,0.6,4.4,0.6,7c0,2.9,0,5.2,0.1,7l-0.2,0.7
		c-0.2,0.2-0.5,0.4-0.9,0.4c-3.4,1.7-6.2,0.8-8.5-2.9l0,1.6c-0.3,1.7-0.9,3.6-1.9,5.7c-0.6,1.7-1.4,3.5-2.3,5.5l-0.3,0.5
		c-0.3,0.1-0.6,0.1-0.8,0.1c-1.2,0.2-2.2,0.2-3-0.1c-0.6,0.7-1,1.3-1.3,1.7c-1.2,1.6-2.3,2.9-3.3,4.1l-0.4,0.4c-0.3,0-0.5,0-0.7-0.1
		c-3.1-0.1-4.3-1.9-3.5-5.5c0.5-2.2,1.7-4.9,3.3-8.2l-0.1,0.2l-0.1,0c-0.2,0.2-1.4,0.1-3.6-0.6l-1.1-0.4c-0.7,6.9-2.9,15.3-6.5,25.1
		c-3,4.3-9.4,7.9-19.3,10.7c-6.2,1.7-11.3,2.4-15.5,2c-4-0.4-7.1-1.7-9.1-4.1c-2.4-2.9-3.4-6-3-9.5
		C525.6,434.5,526.5,432.1,528,429.7 M586.9,405.5c0,0.1-0.1,0.4-0.1,0.9l0.2-0.1l0.1-1l-0.1,0.2L586.9,405.5 M597.3,402.9l0,0.1
		c0,0,0.1,0,0.1,0L597.3,402.9z"/>
</g>
</svg>
