<?xml version="1.0" encoding="utf-8"?>
<!-- Generator: Adobe Illustrator 25.4.1, SVG Export Plug-In . SVG Version: 6.00 Build 0)  -->
<svg version="1.1" xmlns="http://www.w3.org/2000/svg" xmlns:xlink="http://www.w3.org/1999/xlink" x="0px" y="0px"
	 viewBox="0 0 756.3 936.8" style="enable-background:new 0 0 756.3 936.8;" xml:space="preserve">
<style type="text/css">
	.st0{display:none;}
	.st1{display:inline;fill:#FFFFFF;stroke:#000000;stroke-miterlimit:10;}
	.st2{opacity:0.49;fill:#E9D9DA;}
	.st3{opacity:0.5;fill:#EBECED;}
	.st4{fill:#222626;}
	.st5{fill:#373E3E;}
	.st6{fill:#4A4F4F;}
	.st7{fill:#5E6363;}
	.st8{fill:#839595;}
	.st9{fill:#748483;}
	.st10{fill:#232626;}
	.st11{fill:#DBB288;}
	.st12{fill:#A9D1D3;}
	.st13{fill:#B6DDDD;}
	.st14{clip-path:url(#SVGID_00000125595254508802230320000000157981722591969469_);fill:#C49C78;}
	.st15{fill:none;stroke:#95BFBF;stroke-miterlimit:10;}
	.st16{fill:#2A2D2D;}
	.st17{fill:#2F3333;}
	.st18{fill:#FFFFFF;stroke:#000000;stroke-miterlimit:10;}
	.st19{fill:#00464F;}
	.st20{clip-path:url(#SVGID_00000163759311103814841060000011684999945060482216_);fill:#00363A;}
	.st21{opacity:0.48;fill:none;stroke:#B58862;stroke-linecap:round;stroke-miterlimit:10;}
	.st22{fill:#C49C78;}
	.st23{fill:#002226;}
	.st24{fill:#002F36;}
	.st25{fill:none;stroke:#B58862;stroke-width:2;stroke-linecap:round;stroke-miterlimit:10;}
	.st26{fill:#99AAA9;}
</style>
<g id="Layer_2" class="st0">
	<rect x="-229.6" y="-140.8" class="st1" width="1223.8" height="1220"/>
</g>
<g id="Layer_1">
	<path class="st2" d="M51.7,691.9c74.5,82.4,228.1,13.6,424.9-165.4s286.2-233.4,274.1-343.8c-15.7-142.9-281.5-133-519-13
		C-66.7,320.6-10,623.8,51.7,691.9z"/>
	<path class="st3" d="M737.4,912.5c-50.8,16.2-66.8,21.3-248,21.3S94.2,918.5,94.2,906s196.3-27.6,377.5-27.6
		S781.9,898.3,737.4,912.5z"/>
	<circle class="st4" cx="165.3" cy="894.1" r="15.9"/>
	<circle class="st4" cx="412.5" cy="901" r="15.9"/>
	<circle class="st4" cx="331.8" cy="880.2" r="15.9"/>
	<rect x="337.7" y="702.6" class="st5" width="37.5" height="145.1"/>
	<rect x="321.3" y="666.9" class="st6" width="70.3" height="123.3"/>
	<path class="st5" d="M465.2,686.5l-72.4,12.6c-14.7,1.3-76.2-0.5-91-1.8c-31.8-2.9-82.8-8.7-82.8-14.5V656
		c0-8.1,6.5-14.6,14.6-14.6h206.6c8.1,0,33-24.4,33-16.3v26.8C473.2,660,473.3,686.5,465.2,686.5z"/>
	<polygon class="st6" points="362.9,823.4 350.1,823.4 147,871.2 147,880.6 358.9,867.2 562.6,873.2 562.6,866.5 	"/>
	<polygon class="st5" points="350.1,823.4 362.9,823.4 424,880.1 424,889.5 413.9,889.5 350.8,866.5 	"/>
	<polygon class="st7" points="350.1,823.4 362.9,823.4 424,880.1 424,889.5 413.9,889.5 413.5,880 	"/>
	<path class="st8" d="M116.2,376.1l59.5,254.7c1.1,5.9-4.7,30.3,1,32c20.7,6.2,76.2,19.3,173.1,19.3c126.4,0,181.1-20.1,181.1-20.1
		s12.6-97.1,10.6-94.1c-2,3.1-145.8-34.7-145.8-34.7l-12.2-178c-0.7-9.6-6.9-17.9-15.9-21.2c-21.5-7.8-65.9-18.9-130.8-9.8
		c-65.4,9.1-98.8,25.6-113.2,34.9C117.9,362.9,115,369.6,116.2,376.1z"/>
	<path class="st9" d="M170.7,373.8l46,220.4c0.9,5.9,4.6,10.6,9.5,12.3c17.8,6.2,80.6,21.9,164.1,21.9c110.8,0.1,139-17.7,139-17.7
		s0.5-110.2-1.3-107.1S415,477,415,477L401.2,353c-0.6-9.6-5.9-17.9-13.7-21.2c-18.5-7.8-56.8-18.9-112.8-9.8
		c-56.4,9.1-85.2,25.6-97.6,34.9C172.1,360.5,169.6,367.2,170.7,373.8z"/>
	<path class="st10" d="M270.9,150.7c-4.1,17.1-22.5,33.5-27.7,58.1c-9.6,52.9,23.9-16.7,23.9-16.7c-11.6,20.8-47.8,93.3,16.7,122.6
		c44.1,20.1,151.3-55.2,151.3-60.8c0-5.6-19.5-15.4-27.3-34.1c31.4,8.9,49.4-23.7,30.7-14.3c-17.1,8.5-35.9-27.3-29.7-67.3
		c10.9,35.9,55,41,45.1,29c-5.6-6.7-18.1-17.9-14.3-52.6c3.7-34.7,1.1-72.1-42.3-93.8s-102.9,5-120.3,42.8
		C259.8,101.3,275.4,132.2,270.9,150.7z"/>
	<path class="st11" d="M484.3,412.2c18.6-9.5,46.2,1.1,69.2,11.3c22.9,10.2-13.1,24.8-36.4,29.1c-23.3,4.4-46.2,1.5-48.4-20.8
		C466.5,409.7,484.3,412.2,484.3,412.2z"/>
	<path class="st12" d="M404.7,246.1c17.7-5.9,22.2-2.1,34.5,9.2c21.3,19.6,16.8,62.5,69.2,148.2c18.9,9.1-28.8,1.5-35,44.8
		c-56.1-73.2-75.1-114.2-83.1-131.5c-10-21.4-4-42,1.2-52.4C396.6,254.1,397.8,248.4,404.7,246.1z"/>
	<path class="st13" d="M405.5,246.9c17.7-5.9,22.2-2.1,34.5,9.2c11.4,10.5,15.4,27.6,24.7,54.5c8.1,23.3-41.8-44.2-28.5-8.8
		c-8.5,11.3-2.3,10.2-8.5,53.6c-56.1-73.2-28.6-20.5-36.7-37.7c-10-21.4-4-42,1.2-52.4C397.4,254.9,398.6,249.2,405.5,246.9z"/>
	<path class="st11" d="M313.2,122.5c4.6,27.6,6.3,87.5-1.2,100.1c-7.5,12.7,25.2,78.4,69.6,72.5c69.5-9.2,19-65,5.8-70.8
		c-13.2-5.8-29.9-38-24.7-86.3S313.2,122.5,313.2,122.5z"/>
	<g>
		<defs>
			<path id="SVGID_1_" d="M313.2,122.5c4.6,27.6,6.3,87.5-1.2,100.1c-7.5,12.7,25.2,78.4,69.6,72.5c69.5-9.2,19-65,5.8-70.8
				c-13.2-5.8-29.9-38-24.7-86.3S313.2,122.5,313.2,122.5z"/>
		</defs>
		<clipPath id="SVGID_00000022557500469387459210000008185789686345969327_">
			<use xlink:href="#SVGID_1_"  style="overflow:visible;"/>
		</clipPath>
		<path style="clip-path:url(#SVGID_00000022557500469387459210000008185789686345969327_);fill:#C49C78;" d="M313,104
			c0,44,27.3,106.5,51.2,106.5c23.9,0,52.7-69.2,48.6-112.9c-4.2-45.5-25.1-56.6-49-56.6C339.9,41,313,60,313,104z"/>
	</g>
	<path class="st11" d="M297.4,88.7c0,44,52.2,103.8,83.7,103.8s55.6-75.9,40.6-112.3c-7-21.4-25.8-54.5-57.3-54.5
		S297.4,44.7,297.4,88.7z"/>
	<path class="st13" d="M384.4,286.2c-66,7.2-73.1-65.1-73.1-65.1c-16.6,12.7-57.4,23.8-64.9,41c-5.1,11.6-20.7,36.3,37.4,94.4
		c60.4,60.4-16.7,153-15,166.3c0,0-25.9,77.7,111,20.7s69.6-36.8,68.5-55.8c-1.2-19-2.6-65.7,3.1-88.1c-0.3-7.4,7-8,14.4-16.8
		c16.8-19.8,8-36.5-8.7-52c0,0-23.9-16.8-26.2-46c-1.6-21.3,25-20,0-36.6c-23.5-15.5-46-25.2-46-25.2S433.4,280.8,384.4,286.2z"/>
	<path class="st15" d="M437.4,384.5c-47.3-9.4-59,18.4-85.9,12.1"/>
	<path class="st16" d="M420.6,461.4l100.1-25.1c0,0,152.6-7.3,152.2-6.2s-0.7,6.9-0.7,6.9c-10.2,1.1-133.6,25.1-133.6,25.1
		l-109.2,5.8C429.3,467.9,424.2,468.3,420.6,461.4z"/>
	<path class="st5" d="M420.6,461.4l100.1-25.1c0,0,152.6-7.3,152.2-6.2s-0.7,6.9-0.7,6.9c-10.2,1.1-151.3,6.7-151.3,6.7l-91.6,24.2
		C429.3,467.9,424.2,468.3,420.6,461.4z"/>
	<path class="st17" d="M582.6,330l137.5-5.6c2.5-0.1,4.1,2.6,2.9,4.8l-50.4,100.5c-10.2,1.1-151.3,6.7-151.3,6.7l48-98.2
		C571.9,333.4,577,330.3,582.6,330z"/>
	
		<ellipse transform="matrix(0.4317 -0.902 0.902 0.4317 13.2638 787.6129)" class="st18" cx="631.7" cy="383.3" rx="10.1" ry="6.7"/>
	<path class="st18" d="M291.8,510.3c-33.8,15.3-66.5,114.4,45.8,114.4s241.1-69.6,293.2-85c100.8-29.9,34.1-110.7-101.7-84
		C464.5,468.4,365.7,476.8,291.8,510.3z"/>
	<path class="st11" d="M592.4,488.3c-7.2-24,7.6-51.1-106.8-23.9s-97.3,101.5-72.5,115.9c24.8,14.4,135.3-40.8,139.3-38.4
		S592.4,488.3,592.4,488.3z"/>
	<path class="st19" d="M291.8,510.3c-33.7,15.7-66.5,114.4,45.8,114.4s178.1-34.6,219.5-58.7c0,0-119-90.4-28-110.3
		C529,455.7,385.5,466.7,291.8,510.3z"/>
	<g>
		<defs>
			<path id="SVGID_00000115496450354861793530000005638095619991774628_" d="M291.8,510.3c-33.7,15.7-66.5,114.4,45.8,114.4
				s178.1-34.6,219.5-58.7c0,0-119-90.4-28-110.3C529,455.7,385.5,466.7,291.8,510.3z"/>
		</defs>
		<clipPath id="SVGID_00000029761500660381250260000012672613719786803891_">
			<use xlink:href="#SVGID_00000115496450354861793530000005638095619991774628_"  style="overflow:visible;"/>
		</clipPath>
		<path style="clip-path:url(#SVGID_00000029761500660381250260000012672613719786803891_);fill:#00363A;" d="M318.7,617.7
			c-37.1-1.2-17.5,88.8,94.8,88.8s178.1-34.6,219.5-58.7c0,0-16-145.9-76.8-158.3C556.1,489.5,436.4,621.6,318.7,617.7z"/>
	</g>
	<path class="st11" d="M216.5,445.7c40.9-22.9,157.8,15.7,191.3,1.1c42.5-18.5,26.2,24,2,25.9c-15.9,1.2-167.4,23.6-185.3,18.4
		s-27-12.1-24.2-27.6C203.3,448,216.5,445.7,216.5,445.7z"/>
	<path class="st11" d="M409.3,450.8c13.2-10.6,8.8-17.7,18.2-17.5c4.2,0.1,5.6-4.3,10.8-4.3s20.1,0,24.2,2.9s12.7,11.3,15,13.2
		c1.3,1.1-2,4.3-7.7,3.5c-10.5-1.4-12.8-5.2-12.8-5.2s-1.6-0.9,0,0c5,2.9,12.3,10.7,12.3,10.7c1.1,3.9-21.1,13.5-28,10.2
		c-3.7-1.8-11.7-8.2-11.7-8.2s-3.3,14.9-17.1,15.5S403.6,455.4,409.3,450.8z"/>
	<path class="st21" d="M459,444.8l-9.5-8c0,0-13.3-2.8-14.4-2.8"/>
	<polyline class="st21" points="459.6,457.5 444.5,443.9 429.8,439.7 	"/>
	<polyline class="st21" points="449.7,461.1 438.1,450.1 424.5,446.3 	"/>
	<path class="st13" d="M268.3,256.4c-13.1-1.2-21.3-6.9-36.2,40.8c-15,47.8-39.5,151.8-35.1,174.3c4,20.7,2.4-11.3,58.1-29.3
		c21.3-6.9,5.8-13.2,5.8-13.2c4-12.7,15-70.8,36.2-90.9C318.4,318,293.6,258.7,268.3,256.4z"/>
	<path class="st22" d="M615.6,450.6c26.4-4.8,62.4-12.8,70.8,22.2c4.7,19.9-17.9,83.4-33.9,123.5c-22.1,55.2-83.1,221-86,234.3
		c-4.8,22.3,31.7,31.9,37.4,49.3c3,9.3-26.4,9.9-49.5,0c-31.5-13.5-36.4-23.7-34.9-30.8s9.2-26.4,12.7-37.3
		c3.5-10.9,18.5-38.3,20.5-113c2.6-94.8,14.5-148.2,40.7-183.3C612.1,490.5,590.2,455.2,615.6,450.6z"/>
	<path class="st23" d="M532.2,837.8c0.4-7.6-18.2,6.9-6.1,59.1l5.2-0.5l2.7-23.3c0,0,3.2,2.1,10.3,11.6c7.2,9.5,10.5,12.4,27.7,15.5
		c20.9,3.7,110.8,8.2,57.7-23.2c-14.8-8.7-28.6-13.3-35.3-12.6c-12.5,1.4-20.2,10.6-20.2,10.6C546.9,875,530.9,864.8,532.2,837.8z"
		/>
	<path class="st11" d="M532.8,455c28.7-4.5,75.4-13,89,2.3c13.6,15.2,7.9,42.2-15,107.9c-19.6,56.2-72,256.2-72.8,269.8
		c-0.8,13.6,10.3,36,15.9,44c5.6,8-15.9,28.1-35.9,12.9c-20-15.2-25.6-26.4-24.8-33.6s6.4-27.2,8.8-38.4c2.4-11.2,14.4-40,8.8-114.5
		c-7.1-94.6-0.8-148.9,21.6-186.5C544.4,491.8,507.3,459,532.8,455z"/>
	<path class="st24" d="M491.7,846.7c0.3-7.6-14.8,6.9-4.9,59.1l4.2-0.5l2.2-23.3c0,0,2.6,2.1,8.4,11.6c5.8,9.5,8.2,16.6,22.2,19.7
		c17,3.7,88,6.9,44.9-24.4c-24-17.5-48.1-4.2-48.1-4.2C506.5,888.4,490.6,873.6,491.7,846.7z"/>
	<path class="st10" d="M329.1,8c23.8-8.1,71.7-13.9,87.8,46.6c16.5,62.3-96.5,33.9-108.2,65.5c-11.8,31.6,6.9,55.1-12.9,43.3
		c-19.8-11.8-29.1-73.2-21.7-98S295,19.6,329.1,8z"/>
	<path class="st11" d="M315.6,119.6c4,10.8,13.3,19,5.8,25c-7.5,6.1-19.5,3.8-26.7-5.2c-7.2-8.9-7-21.1,0.6-27.2
		C302.8,106.2,311.7,109,315.6,119.6z"/>
	<path class="st25" d="M409.8,138.1c2.8,8.2,5.2,12.8-12.1,12.8c-17.3,0-5.4-7.7-5.4-7.7"/>
	<path class="st25" d="M394.9,162.5c-7.3,0-24.6-2.3-35.4-13.9"/>
	<path class="st8" d="M178.9,507.8l51.9,10.3c60.4,8.8,92.4,55.1,92.4,104.3l2,54.1c0.1,3-2.4,5.4-5.3,5.2l-26.6-1.4
		c-1.3-0.1-2.5-0.6-3.4-1.6L137.6,520.2c-2.4-2.5,1.9-7.5,5-8.9C150,508,163.3,504,178.9,507.8z"/>
	<path class="st26" d="M137.2,519c-0.4-2.1,1.6-3.9,3.7-3.5l75.2,16.6c51.2,10.3,79.2,45.9,79.2,95.2l2.8,49.7
		c0.1,1.8-1.3,3.3-3.1,3.2c-14.9-0.3-76.7-2.3-116.4-14.8c-0.1,0-0.2-0.1-0.4-0.1c-14.8-6.6-19.3-15.1-21.6-29.1L137.2,519z"/>
</g>
</svg>
