<?xml version="1.0" encoding="utf-8"?>
<!-- Generator: Adobe Illustrator 26.0.1, SVG Export Plug-In . SVG Version: 6.00 Build 0)  -->
<svg version="1.1" id="Layer_1" xmlns="http://www.w3.org/2000/svg" xmlns:xlink="http://www.w3.org/1999/xlink" x="0px" y="0px"
	 viewBox="0 0 612 612" style="enable-background:new 0 0 612 612;" xml:space="preserve">
<style type="text/css">
	.st0{fill:#EAECEB;}
	.st1{fill:#E3F3F7;}
	.st2{fill:#0E2E36;}
	.st3{fill:#193B44;}
	.st4{fill:none;stroke:#193B44;stroke-width:18;stroke-linecap:round;stroke-linejoin:round;}
	.st5{fill:none;stroke:#0E2E36;stroke-width:18;stroke-linecap:round;stroke-linejoin:round;}
	.st6{fill:none;stroke:#193B44;stroke-width:49;stroke-linecap:round;stroke-linejoin:round;}
	.st7{fill:#0F2F36;}
	.st8{fill:#B25C27;}
	.st9{fill:#010101;}
	.st10{fill:#F3EEF7;}
	.st11{fill:none;stroke:#010101;stroke-width:2;stroke-linecap:round;stroke-linejoin:round;}
	.st12{fill:#044750;}
	.st13{fill:#E6C8DC;}
	.st14{fill:#B9D9D2;}
	.st15{fill:#B9D9D1;}
	.st16{fill:#D0E5E0;}
	.st17{fill:#884D2A;}
	.st18{fill:#010101;fill-opacity:0.2471;}
	.st19{fill:#FBEABD;}
	.st20{fill:none;stroke:#010101;stroke-width:2;stroke-linecap:round;stroke-linejoin:round;stroke-opacity:0.498;}
	.st21{fill:none;stroke:#FFF6EA;stroke-width:2;stroke-linejoin:round;}
	.st22{fill:none;stroke:#044750;stroke-width:12;stroke-linecap:round;stroke-linejoin:round;}
	.st23{fill:none;stroke:#FEEBB6;stroke-width:7;stroke-linejoin:round;}
	.st24{fill:none;stroke:#E5C7DC;stroke-width:11;stroke-linejoin:round;}
	.st25{fill:#F5CFAF;}
	.st26{fill:#00A4B4;}
	.st27{fill:#AAB7B8;}
	.st28{fill:#95A2A3;}
	.st29{fill:#EAF5F4;}
	.st30{fill:#BADDE0;}
	.st31{fill:#97A2A3;}
	.st32{fill:#ADB8B8;}
</style>
<ellipse class="st0" cx="270.8" cy="568.3" rx="253.2" ry="24.9"/>
<path class="st1" d="M313.9,14.6C229.5-0.6,76.5,8.7,36.2,112.9c-29.6,76.4,12.4,175.9,69.2,226.8c143,127.9,443.8,5.2,458.7-112.3
	C574.9,142.2,438.6,37,313.9,14.6z"/>
<g transform="matrix( 1, 0, 0, 1, 0,0) ">
	<g>
		<g id="Layer61_0_FILL">
			<path class="st2" d="M221.5,557.3c-1.8,1.8-2.7,4-2.7,6.6c0,2.5,0.9,4.7,2.7,6.5c1.8,1.8,4,2.7,6.5,2.7c2.6,0,4.7-0.9,6.5-2.7
				c1.8-1.8,2.7-3.9,2.7-6.5c0-2.6-0.9-4.7-2.7-6.6c-1.8-1.8-3.9-2.7-6.5-2.7C225.5,554.6,223.4,555.5,221.5,557.3 M349.1,563.8
				c0-2.6-0.9-4.7-2.7-6.6c-1.8-1.8-3.9-2.7-6.5-2.7c-2.5,0-4.7,0.9-6.5,2.7c-1.8,1.8-2.7,4-2.7,6.6c0,2.5,0.9,4.7,2.7,6.5
				c1.8,1.8,4,2.7,6.5,2.7c2.6,0,4.7-0.9,6.5-2.7C348.2,568.5,349.1,566.3,349.1,563.8 M296.1,570.3c1.8,1.8,4,2.7,6.5,2.7
				c2.5,0,4.7-0.9,6.5-2.7c1.8-1.8,2.7-3.9,2.7-6.5c0-2.6-0.9-4.7-2.7-6.6c-1.8-1.8-3.9-2.7-6.5-2.7c-2.5,0-4.7,0.9-6.5,2.7
				c-1.8,1.8-2.7,4-2.7,6.6C293.4,566.3,294.3,568.5,296.1,570.3 M274.5,563.8c0-2.6-0.9-4.7-2.7-6.6c-1.8-1.8-3.9-2.7-6.5-2.7
				c-2.5,0-4.7,0.9-6.5,2.7c-1.8,1.8-2.7,4-2.7,6.6c0,2.5,0.9,4.7,2.7,6.5c1.8,1.8,4,2.7,6.5,2.7c2.5,0,4.7-0.9,6.5-2.7
				C273.6,568.5,274.5,566.3,274.5,563.8 M297.7,408.6H266l7,136h19.2L297.7,408.6z"/>
			<path class="st3" d="M292.1,545l0.1-0.4H273v0.4H292.1z"/>
		</g>
	</g>
	<g>
		<path id="Layer61_0_1_STROKES" class="st4" d="M292.2,544.5h51.2 M225.4,544.5H273h19.2"/>
	</g>
	<g>
		<path id="Layer61_0_2_STROKES" class="st5" d="M233.7,345.8c-7.3,18.9-2.1,37.8,15.7,56.8"/>
	</g>
</g>
<g transform="matrix( 1, 0, 0, 1, 0,0) ">
	<g>
		<path id="Layer60_0_1_STROKES" class="st6" d="M205.4,372.2l136.4,0.4"/>
	</g>
</g>
<g transform="matrix( 0.5114898681640625, 0, 0, 0.5114898681640625, -1587.25,-1582.75) ">
	<g>
		<g id="Layer60_1_MEMBER_0_MEMBER_0_MEMBER_0_FILL">
			<path class="st7" d="M3546.1,3711.6c-22.3-0.5-42.2-7.5-59.9-21.1c-18.2-14-28.7-31-31.4-51l-29.9-222
				c-2.7-19.9,3.2-36.8,17.6-50.9c12.1-11.8,27.3-18.6,45.6-20.6l-24.4-0.5c-23.1,0-41.9,7-56.4,21.1c-14.4,14.1-20.3,31-17.6,50.9
				l29.9,222c2.6,19.9,13.1,36.9,31.3,51c18.3,14.1,39,21.1,62.1,21.1H3546.1 M3605.8,3712.4c4.6,0,8.9-0.3,12.9-0.8h-30.9l0.1,0.8
				H3605.8 M3569.7,3347.2c-4.2-0.5-8.7-0.8-13.2-0.8h-17.9l-0.1,0.1L3569.7,3347.2z"/>
		</g>
	</g>
</g>
<g transform="matrix( 0.5114898681640625, 0, 0, 0.5114898681640625, -1587.25,-1582.75) ">
	<g>
		<g id="Layer60_1_MEMBER_0_MEMBER_0_MEMBER_1_FILL">
			<path class="st3" d="M3538.2,3347.5v-0.3l-50.1-1.2c-18.2,2-33.4,8.8-45.6,20.6c-14.4,14.1-20.3,31-17.6,50.9l29.9,222
				c2.7,20,13.1,37,31.4,51c17.7,13.6,37.6,20.6,59.9,21.1h72.6c17.4-2.2,31.9-9,43.5-20.3c14.5-14.1,20.4-31,17.7-50.9l-29.9-221.9
				c-2.6-19.9-13.1-36.9-31.3-51c-14.7-11.3-31.1-18.1-49-20.3l-31.2-0.8L3538.2,3347.5z"/>
		</g>
	</g>
</g>
<path class="st8" d="M310.1,526.2l-5.9,12.7c-1.2,1.7-1.9,3.3-2.1,4.8c0,0,0,0.1,0,0.2c-0.2,1.7,0.2,3.1,1.2,4.4
	c1.7,1.2,3.6,0.1,5.9-3.5l6.2-11.8L310.1,526.2z"/>
<g transform="matrix( 1, 0, 0, 1, 0,0) ">
	<g>
		<g id="Layer63_0_FILL_1_">
			<path class="st9" d="M248,144.8c-2.6,2.6-5.8,4-9.6,4c-0.9,0-1.8-0.1-2.6-0.2c-2.6,1.7-5.4,2.9-8.5,3.6c0.2,1.2,0.6,2.2,1.3,3.2
				c0.1,2.7,0.7,5.6,1.8,8.9c2.7,7.6,5,12.4,7,14.4c2,2,3.7,3.3,5.1,3.9c-0.4,1.1-0.6,2.3-0.6,3.6c0,3.3,1.3,6.2,4,8.6
				c2.7,2.4,5.9,3.6,9.6,3.6c3.8,0,6.9-1.2,9.6-3.6c2.6-2.4,4-5.2,4-8.6c0-3.3-1.3-6.2-4-8.6c-1.7-1.5-3.5-2.5-5.5-3
				c0.5-0.7,1-2.5,1.4-5.6c0.3-3-0.8-6.1-3.4-9.3c-2.6-3.2-4.8-5.2-6.5-6.1c0.3-0.8,0.4-1.7,0.4-2.6c0-2.4-1.1-4.5-3.3-6.3
				C248.1,144.6,248,144.7,248,144.8 M230.1,88.1c-2.8-0.9-6.7-0.9-11.9,0c-5.2,0.9-9,5.3-11.6,13.1c-2.5,7.8-4.9,16.1-7.1,24.9
				c-2.2,8.8,0.2,15,7.1,18.6c6.9,3.6,13.6,4.1,20.1,1.4c6.4-2.7,9-4.2,7.6-4.5c-1.4-0.3-0.7-1.3,1.9-3c1.7-1.1,3.3-2.4,4.9-4
				c3.9-3.9,6.4-8.4,7.6-13.4c0.3-1.5,0.5-3,0.6-4.6c0,0,0-0.1,0-0.1c0-0.6,0.1-1.1,0.1-1.7c0-4-0.7-7.6-2.1-11
				c-1.4-3.2-3.4-6.2-6.1-8.9c-0.1-0.1-0.3-0.3-0.4-0.4c-0.1-0.1-0.2-0.2-0.3-0.3C237.3,91.4,233.9,89.3,230.1,88.1z"/>
			<path class="st10" d="M248.2,144.6c2.5-2.6,3.7-5.8,3.7-9.4c0-3.3-1-6.2-3.1-8.7c-0.4,7-3.1,13-8.2,18.1c-1.5,1.5-3.2,2.9-4.9,4
				c0.8,0.1,1.7,0.2,2.6,0.2c3.8,0,6.9-1.3,9.6-4C248,144.7,248.1,144.6,248.2,144.6 M252.1,99.5c-3.2-3.2-7-4.8-11.5-5
				c0.1,0.1,0.3,0.2,0.4,0.4c2.7,2.7,4.7,5.7,6.1,8.9c1.4,3.3,2.1,7,2.1,11c0,0.6,0,1.1-0.1,1.7c0,0,0,0.1,0,0.1
				c-0.1,1.6-0.3,3.1-0.6,4.6c0.1,1.2,0.2,2.3,0.2,3.5c0,0.6,0,1.1,0,1.7c1.2-0.7,2.3-1.6,3.4-2.7c3.3-3.3,5-7.4,5-12.1
				C257.2,106.9,255.5,102.9,252.1,99.5z"/>
		</g>
	</g>
	<g>
		<path id="Layer63_0_1_STROKES_1_" class="st11" d="M248.8,126.4C248.8,126.5,248.8,126.5,248.8,126.4 M227.3,152.1
			c3-0.7,5.9-1.9,8.5-3.6c1.7-1.1,3.3-2.4,4.9-4c5.1-5,7.8-11.1,8.2-18.1 M248.7,121.2c0.1,1.2,0.2,2.3,0.2,3.5c0,0.6,0,1.1,0,1.7"
			/>
	</g>
</g>
<g transform="matrix( 1, 0, 0, 1, 0,0) ">
	<g>
		<g id="Layer62_0_FILL_1_">
			<path class="st12" d="M317,267.8c-7.3-10.7-15.3-25-24.2-42.9l-24.9,6.8c13.2,20.6,24.9,38.7,35.2,54.5c4.1,6.6,8.1,8.5,11.9,5.7
				c2.4-1.9,4-4.6,4.8-7.9C321.2,280.2,320.2,274.8,317,267.8z"/>
			<path class="st13" d="M292.9,224.9l3.5-1.5l-0.1-0.1c-5.7-11.5-11.2-19.6-16.4-24.3c-5.2-4.7-10.9-6.3-16.9-4.7
				c-8.6,2.3-12.1,6.8-10.6,13.7c3.9,9.9,9.1,17.8,15.6,23.7L292.9,224.9z"/>
		</g>
	</g>
</g>
<g transform="matrix( 1, 0, 0, 1, 0,0) ">
	<g>
		<g id="Layer70_0_FILL">
			<path class="st14" d="M341.2,406.7L341.2,406.7L341.2,406.7l-37.5,123.9l3.9,0.9l7.9,1.9l6.7,1.1l55.6-134.6l-34.7,0.5
				L341.2,406.7z"/>
			<path class="st15" d="M366.4,427l12-28.3l-69.7-58.9l-24.9,32.4l81.1,53.8"/>
		</g>
	</g>
</g>
<g transform="matrix( 1, 0, 0, 1, 0,0) ">
	<g>
		<g id="Layer71_0_FILL_00000129896964866303749110000008012429382230008220_">
			<path class="st8" d="M204.2,551.2l6.3-6.2l-4-7.3l-6.1,7c-1.2,0.8-1.9,1.7-2.2,2.7c0,0,0,0.1,0,0.1c-0.3,1.1-0.1,2.4,0.7,3.8
				C200.2,553,202,552.9,204.2,551.2z"/>
			<path class="st8" d="M210.5,545l3.4-3.3l-5.8-5.9l-1.6,1.9L210.5,545z"/>
			<path class="st16" d="M373.5,392.2l-31.7-30l-62.1,77.8l-0.1,0L205.3,533l2.8,2.9l5.8,5.9l3.5,3.5l87.9-86.3l0.1,0.1l61.5-60.4
				L373.5,392.2"/>
		</g>
	</g>
</g>
<g transform="matrix( 1, 0, 0, 1, 0,0) ">
	<g>
		<g id="Layer61_0_FILL_1_">
			<path class="st8" d="M242.9,166.9c-6.5,0.5-12.7-1.5-18.7-5.8c-1.9,10.6-4.9,19.6-8.9,27.1c-1.8,7.3,4.3,11,18.5,10.9
				c8.9,0.2,13.3-2.9,13.3-9C245.1,183.2,243.7,175.4,242.9,166.9z"/>
			<path class="st17" d="M235.3,138.8c-5.4-0.5-8.4,1.4-9,5.7c-0.4,5.9-1.1,11.5-2,16.6c5.9,4.3,12.1,6.3,18.7,5.8
				c-0.6-6.3-0.9-12.9-0.9-20.1C242.8,142.3,240.5,139.6,235.3,138.8z"/>
		</g>
	</g>
</g>
<g transform="matrix( 1, 0, 0, 1, 0,0) ">
	<g>
		<g id="Layer60_0_FILL_1_">
			<path class="st13" d="M247.9,310c-8.2-0.5-16.4,0-24.5,1.7c-33,27.1-30.3,52.6,8,76.4c19.3,12,40,20.5,62.2,25.7l77.8-23.4
				l-56.7-54.9C286.7,308,264.3,299.5,247.9,310z"/>
		</g>
	</g>
</g>
<g transform="matrix( 1, 0, 0, 1, 0,0) ">
	<g>
		<g id="Layer59_0_FILL_1_">
			<path class="st13" d="M281.4,215.3c-1.3-7-2.9-11.3-4.7-12.8c-4.4-4.1-13.1-7.9-26.1-11.5c5,6.2,8.3,14.3,10,24.3h-33.3
				c-2.4-10.6-6.4-19.7-11.9-27.1c-18.3,4.7-25.3,13.3-20.9,25.7c16.4,32.4,21.9,68.2,16.6,107.5c-2.3,15.1,10.7,23.3,39,24.7
				c28.6,0.8,41.1-5.9,37.6-20.2c0-0.1,0-0.2-0.1-0.3c-0.6-2.3-1-4.7-1.5-7c-2.7-14.8-2.9-30.2-0.7-46c8.4-7.2,11.6-13.2,9.5-18.1
				C292.9,249.8,288.4,236.7,281.4,215.3z"/>
			<path class="st8" d="M250.5,191c-1.1-0.3-2.2-0.6-3.4-0.9c-10.1-2.6-20.7-3.2-31.9-1.9c5.5,7.4,9.5,16.5,11.9,27.1h33.3
				C258.9,205.4,255.5,197.3,250.5,191z"/>
		</g>
	</g>
</g>
<g transform="matrix( 1, 0, 0, 1, 0,0) ">
	<g>
		<g id="Layer58_0_FILL_1_">
			<path class="st18" d="M249.1,187.4c-1.7,0-2.9,2.3-3.5,6.8c-0.1,0.8-0.2,1.6-0.2,2.3c-0.2,4,0.8,6.7,3,8.2c1,0.7,2,1.2,3.1,1.6
				c-0.7,1.4-1.1,2.9-1.2,4.6c-0.2,3.2,0.9,5.8,3.3,8.1c0.9,0.8,1.9,1.5,2.9,2.1c-2.3,1-3.8,3-4.6,5.9c-0.8,2.8,0,5.7,2.4,8.6
				c0.5,0.6,0.9,1.1,1.4,1.7c-0.1,0.3-0.1,0.6-0.2,1c0,0.8,0.1,1.4,0.4,1.9c-1.7,0.1-3.2,0.5-4.2,1.3c-1.9,1.2-3.4,3.2-4.3,6
				c-0.9,2.7,0.8,6.1,5.3,10c4.5,3.9,6.7,9.9,6.6,18c4.4-2,7.6-5.3,9.7-9.8c1.6-3.4,2.6-6.5,3.1-9.4c0.2-1,0.3-1.9,0.3-2.8
				c0.2-3.6-0.9-6.6-3.3-8.8c-1.3-1.2-2.7-2.2-4.3-2.9c0.3-0.4,0.5-1.1,0.6-2.1c0-0.9-0.2-1.6-0.5-2.1c3.1-2.7,5.1-5.8,6.1-9
				c1-3.4,0.7-6.2-1-8.4c-0.1-0.1-0.1-0.1-0.1-0.1c0.3-0.3,0.7-0.6,1.1-0.9c2.5-2.2,3.8-4.9,4-8.1c0.1-3.1-1-5.8-3.3-8.1
				c-0.4-0.4-0.8-0.7-1.2-1c0.9-1.3,1.4-2.8,1.6-4.4c0.4-3.1-0.7-5.5-3.3-7.3c-2.6-1.8-5.9-2.5-9.8-2.1c-4,0.4-7.1,0.2-9.2-0.6
				C249.6,187.5,249.4,187.4,249.1,187.4C249.1,187.4,249.1,187.4,249.1,187.4z"/>
		</g>
	</g>
</g>
<g transform="matrix( 1, 0, 0, 1, 0,0) ">
	<g>
		<g id="Layer57_0_FILL_1_">
			<path class="st8" d="M275.5,126.1c1.4-2.3,2-4.6,1.8-6.9c-0.1-2.3-1-3.9-2.5-4.7c-0.9-0.5-1.9-0.7-2.9-0.6
				c-0.8,0.1-1.6,0.4-2.4,0.8c-0.2,0.1-0.3,0.2-0.5,0.3c-1.8,1-3.4,2.6-4.6,4.7c-1.4,2.3-2,4.6-1.8,6.9c0.2,2.3,1,3.9,2.5,4.8
				c1.5,0.9,3.3,0.8,5.3-0.1c0,0,0-0.1,0.1-0.1c0,0,0,0,0,0C272.5,130.1,274.2,128.4,275.5,126.1z"/>
		</g>
	</g>
</g>
<g transform="matrix( 1, 0, 0, 1, 0,0) ">
	<g>
		<g id="Layer56_0_FILL_1_">
			<path class="st8" d="M271.8,92l0.2-0.2c-4.8-17.8-16.7-26.5-35.7-26.2c-18.5,0.3-29,9.1-31.4,26.2c-0.5,7.6-0.5,15.1-0.2,22.4
				c0.3,5.8,0.9,11.6,1.7,17.3c0.2,1.4,0.4,2.7,0.6,4.1c5.6,13,15.3,21.4,29.1,25.2c1.4,0.4,2.8,0.4,4.2,0
				c13.7-3.5,23.4-11.5,29-24.1c0.2-0.6,0.4-1.1,0.5-1.7c0.2-1.2,0.4-2.4,0.6-3.7c0-0.2,0-0.4,0-0.6c0.7-5.3,1.2-10.7,1.5-16.2
				c0-0.2,0-0.4,0-0.6C272.3,106.7,272.2,99.4,271.8,92z"/>
		</g>
	</g>
</g>
<g transform="matrix( 1, 0, 0, 1, 0,0) ">
	<g>
		<g id="Layer55_0_FILL_1_">
			<path class="st9" d="M275.7,96.8c0-10.8-3.8-20.1-11.5-27.8c-7.7-7.7-16.9-11.5-27.8-11.5c-10.8,0-20.2,3.3-28.1,9.9
				c-7.9,6.6-12.4,16-13.4,28.1c-1.1,12.1,1,20.6,6.3,25.4c24.5-6.6,40.6-19.6,48.3-39.1c3.2,16,10.5,27,22.1,33
				C274.4,110.4,275.7,104.4,275.7,96.8z"/>
		</g>
	</g>
</g>
<g transform="matrix( 1, 0, 0, 1, 0,0) ">
	<g>
		<g id="Layer54_0_FILL_1_">
			<path class="st8" d="M212.6,231.1l-25.8-0.2c-3.9,19.6-8,35.5-12.2,47.7c-1.2,7.7-0.8,13.1,1.4,16.5c1.6,3,3.9,5.1,6.7,6.3
				c4.4,1.7,7.7-1.1,10-8.6C198.5,275,205.2,254.4,212.6,231.1z"/>
			<path class="st13" d="M182.9,230.4l3.8,0.6l25.8,0.2c4.8-7.4,7.7-16.4,8.9-27c-0.3-7-4.8-10.5-13.7-10.5c-6.3,0-11.3,3-15.1,8.9
				c-3.8,5.9-7,15.2-9.6,27.8L182.9,230.4z"/>
		</g>
	</g>
</g>
<g transform="matrix( 1, 0, 0, 1, 0,0) ">
	<g>
		<g id="Layer53_0_FILL_1_">
			<path class="st8" d="M231,273.8c-0.4-0.1-0.8-0.1-1.1-0.1c-1,0-2.1,0.2-3.3,0.6c-15.3,4.9-30.8,8.1-46.6,9.8
				c-1.5,0.5-2.7,1.2-3.6,1.9c-1.1,1-1.7,2.1-1.7,3.5c0,1.7,0.9,3.6,2.7,5.9c2.9,3.6,6.1,5.8,9.7,6.7c0.6,0.1,1.2,0.2,1.9,0.3
				c2,0.2,4-0.1,6.1-0.7c15.7-4.8,28.1-10.5,37.2-16.9c1.5-1.1,2.6-2.2,3.2-3.3c0.3-0.7,0.5-1.4,0.5-2.1c0-1-0.4-2-1.1-2.9
				c-0.6-0.8-1.2-1.4-1.9-1.8c-0.4-0.2-0.8-0.4-1.1-0.5c0,0-0.1-0.1-0.2,0C231.5,273.9,231.3,273.8,231,273.8z"/>
		</g>
	</g>
</g>
<g transform="matrix( 1, 0, 0, 1, 0,0) ">
	<g>
		<g id="Layer52_0_FILL_1_">
			<path class="st8" d="M237.6,260.9l0,0.2c-8.4,3.1-15.3,8.6-20.4,16.5c-4.8,5.1-5.1,8.7-0.9,10.6c4.6,2.4,8.7,2.5,12.3,0.4
				l6.6-3.8c1.6,5.7,4.2,7.9,7.9,6.7l-3.2-6.9c2.7,1.5,5.7,2.5,8.8,2.9c3.3,0.1,4.3-1.6,2.9-5.2c3.8,0.3,3.9-1.4,0.6-5.1l-7.2-7.8
				c6.7,0.6,10-0.7,9.7-3.8L237.6,260.9z"/>
		</g>
	</g>
</g>
<g transform="matrix( 1, 0, 0, 1, 0,0) ">
	<g>
		<g id="Layer50_0_FILL_1_">
			<path class="st9" d="M280.1,254.4c0-3.9-1.2-7.1-3.7-9.5c-1.3-1.3-2.8-2.4-4.4-3.2c-0.2,0.2-0.3,0.3-0.6,0.3
				c-0.8,0.1-1.8,0.1-3.2,0c-1.4-0.1-2.7-0.4-3.9-0.9c-0.6-0.2-1-0.6-1.3-1.1c-1.7,0.1-3.1,0.6-4.2,1.4c-1.9,1.4-3.2,4.2-3.9,8.4
				c-0.8,4.2,1.2,8.9,5.9,13.9c4.7,5,7.1,9.9,7.2,14.6c4.3-2.2,7.4-5.7,9.3-10.6C279.1,262.7,280.1,258.3,280.1,254.4 M253.7,184.4
				c-2.8-0.1-4.2,1.5-4.1,4.7c0,3.2,1,6.3,2.9,9.2c1.9,2.9,3.5,4.5,4.6,5c-0.7,1.5-1,3.2-1,5c0,3.4,1.2,6.3,3.6,8.7
				c0.9,0.9,2,1.7,3.1,2.3c-2.2,1.1-3.6,3.2-4.3,6.3c-0.7,3.1,0.2,6.2,2.7,9.3c0.5,0.7,1,1.3,1.5,1.8c0.2-0.9,0.7-1.3,1.5-1.1
				c1.1,0.2,2.2,0.3,3.6,0.3c1.3,0,2.4,0.1,3.4,0.5c0.4,0.1,0.6,0.4,0.9,0.7c3-3,4.9-6.2,5.7-9.8c0.9-3.6,0.4-6.7-1.4-9.2
				c-0.1-0.1-0.1-0.1-0.1-0.2c0.3-0.3,0.7-0.6,1-1c2.4-2.4,3.6-5.3,3.6-8.7c0-3.4-1.2-6.3-3.6-8.8c-0.4-0.4-0.8-0.8-1.2-1.1
				c0.8-1.4,1.3-3,1.4-4.8c0.3-3.3-0.9-6-3.6-7.9c-2.7-1.9-6-2.6-10-2C259.9,184.2,256.5,184.5,253.7,184.4z"/>
			<path class="st19" d="M262.6,236.7c-0.1,0.3-0.1,0.7-0.1,1.1c0,0.8,0.2,1.5,0.5,2.1c0.3,0.5,0.7,0.9,1.3,1.1
				c1.2,0.5,2.5,0.8,3.9,0.9c1.4,0,2.4,0,3.2,0c0.2,0,0.4-0.1,0.6-0.3c0.3-0.4,0.5-1.2,0.5-2.3c0-1-0.2-1.8-0.5-2.3
				c-0.2-0.3-0.5-0.6-0.9-0.7c-0.9-0.4-2-0.5-3.4-0.5c-1.3,0-2.5-0.1-3.6-0.3C263.3,235.4,262.8,235.8,262.6,236.7z"/>
		</g>
	</g>
</g>
<g transform="matrix( 1, 0, 0, 1, 0,0) ">
	<g>
		<path id="Layer49_0_1_STROKES_1_" class="st20" d="M247.9,142.8c-2.1,2-5.9,2.4-11.5,1.2"/>
	</g>
</g>
<g transform="matrix( 1, 0, 0, 1, 0,0) ">
	<g>
		<g id="Layer48_0_FILL_1_">
			<path class="st8" d="M209.7,119.2c-1.4-2.3-3-4-5-5c-2-1.1-3.8-1.1-5.4-0.2c-1.5,0.9-2.4,2.5-2.5,4.7c-0.1,2.3,0.5,4.6,1.8,6.9
				c1.4,2.3,3,4,5.1,5c0.9,0.5,1.8,0.7,2.7,0.8c1,0.1,1.9-0.1,2.7-0.6c1.6-0.9,2.4-2.5,2.5-4.7C211.7,123.8,211.1,121.5,209.7,119.2
				z"/>
		</g>
	</g>
</g>
<g transform="matrix( 1, 0, 0, 1, 0,0) ">
	<g>
		<g id="Layer47_0_FILL_1_">
			<path class="st8" d="M319.6,278.5c0-3.1-1-4.9-3-5.4c-8.6,1.5-17.9,0.6-28.1-2.7c-0.5-0.1-0.9-0.2-1.3-0.2c-0.3,0-0.6,0-0.8,0.1
				c-0.2,0.1-0.4,0.2-0.6,0.3c-1,0.7-1.4,2.4-1.4,5.1c0.1,4.4,1.7,7.9,5,10.5c3.1,2.9,6.3,4.8,9.5,5.9c3.3,1.1,6.6,1.4,10.2,0.8
				c3.5-0.6,5.3-0.7,5.5-0.4c0.2,0.3,1.1-0.7,2.7-3c1.7-2.3,2.4-4.2,2.4-5.7C319.6,282.4,319.6,280.6,319.6,278.5z"/>
		</g>
	</g>
</g>
<g transform="matrix( 1, 0, 0, 1, 0,0) ">
	<g>
		<g id="Layer46_0_FILL_1_">
			<path class="st8" d="M299.8,281c2.5-4,0.3-6.8-6.6-8.3c-8.7-3.6-17.5-4.3-26.4-2l-0.1-0.1l-11.8,13.6c1.5,2.7,4.9,2,10.2-2.4
				l-1.6,10.6c-0.8,5,0.3,6.3,3.3,3.9c0.9,3.8,2.7,4.6,5.4,2.7c2.4-2.1,4.4-4.6,5.8-7.4l1.1,7.6c3.8-1.1,4.8-4.4,2.9-10.1l7.7-0.6
				C293.8,288,297.2,285.5,299.8,281z"/>
		</g>
	</g>
</g>
<g transform="matrix( 1, 0, 0, 1, 0,0) ">
	<g>
		<g id="Layer44_0_FILL_1_">
			<path class="st12" d="M126.3,226.2c-0.9-0.3-1.8-0.1-2.8,0.6c-1,0.7-1.8,1.8-2.3,3.2c-0.2,0.4-0.3,0.9-0.4,1.3
				c-0.1,0.3-0.1,0.6-0.1,0.9c0,0.2,0,0.4,0,0.6c-0.2-0.1-0.4-0.2-0.6-0.3c-2.5-1.1-4.5-1.4-5.8-0.8c-1.3,0.6-2.1,2.1-2.4,4.6
				c-0.3,2.4,0.2,5,1.4,7.7c1.2,2.6,2.9,4.6,5.1,5.9c1.2,0.7,2.3,1.1,3.4,1.2c-0.1,1.5-0.2,3.1-0.1,4.8c-0.1,0-0.1-0.1-0.2-0.1
				c-1.2-0.6-2.4-0.8-3.5-0.7s-1.9,0.6-2.3,1.4c-0.4,0.8-0.3,1.7,0.3,2.6c0.6,1,1.5,1.8,2.7,2.3c1.2,0.6,2.4,0.8,3.5,0.7
				c0,0,0,0,0,0c1.1,7.5,3.2,13.7,6.3,18.5c3.3,5.2,5.5,6.8,6.6,4.8c1.1-2,2.9-4.9,5.4-8.8c2.4-3.9,4.7-9.6,6.7-17.2
				c0.5-1.9,0.9-3.8,1.1-5.5c0.4,0.1,0.9,0.1,1.4,0c1.1-0.2,2.2-0.7,3.2-1.6c1-0.9,1.6-1.9,1.9-2.9c0.3-1.1,0.1-2-0.5-2.7
				c-0.6-0.6-1.4-0.9-2.5-0.7c-1.1,0.2-2.2,0.7-3.2,1.6c-0.1,0.1-0.2,0.2-0.3,0.3c-0.3-2.4-1.1-4.5-2.4-6.2
				c-2.9-4.2-6.4-6.3-10.5-6.3c-3.3,0-6.3,1.4-8.8,4.2c-0.2-0.5-0.4-1-0.7-1.6c-0.4-0.8-0.8-1.5-1.2-2.1c0.3-0.1,0.5-0.3,0.8-0.5
				c1-0.8,1.7-1.8,2.3-3.2c0.5-1.4,0.6-2.6,0.4-3.8C127.8,227.3,127.2,226.5,126.3,226.2z"/>
		</g>
	</g>
</g>
<g transform="matrix( 1, 0, 0, 1, 0,0) ">
	<g>
		<path id="Layer43_0_1_STROKES_1_" class="st21" d="M124.4,228.5l-2-2.9 M117.4,233.7l0.7-4.5 M131.5,237.9l-2.2-4.7 M126.6,231.2
			l3.6-1.8 M141.2,244.6l2.7-2.2 M131.6,247.8l-2.3-5 M129.8,255.4l0.9,4.3 M143.5,255l0.4-3.8 M135.8,259.3l3.5-4.3 M136.6,251.4
			l1.8-5 M116.3,246.4l-4.5,0.5 M126.1,259.9l-2.3-2.2 M116.7,242.8l2.2-3.1 M119,259.1l-3.4,1.8 M126.4,250.9l-2.9-3.2
			 M125.3,266.7h-5 M129.4,269.4l2.7,3.2 M131.5,264.2l-4-1.3 M136,269.8l2.5-2.2 M137.6,263.3l4.1-2.7 M127.5,274.1l-4.3-0.2
			 M114,238.4l-5.8-0.5 M140.3,239.5l3.2-4.7 M151.6,251.4l4.5,1.3 M146.2,257.3l5.4-0.9 M140.2,272.6h5 M143.2,266.7l5.1-2.7
			 M144.8,246.5l4.3-3.2"/>
	</g>
</g>
<g transform="matrix( 1, 0, 0, 1, 0,0) ">
	<g>
		<path id="Layer42_0_1_STROKES_1_" class="st22" d="M93.4,247.8l-13.1,54"/>
	</g>
	<g>
		<path id="Layer42_0_2_STROKES_1_" class="st23" d="M88.4,294.6l11.3-51.3"/>
	</g>
	<g>
		<path id="Layer42_0_3_STROKES_1_" class="st24" d="M75.8,242.4l4.5,59.4"/>
	</g>
</g>
<g transform="matrix( 1, 0, 0, 1, 0,0) ">
	<g>
		<g id="Layer40_0_FILL_1_">
			<path class="st25" d="M126.8,295.8c-2.8-0.9-5-1.4-6.6-1.4c-1.1,0-2.1,0-2.9,0.1l3.9,12h24.6l1.5-4.3c-3.7-0.7-7.8-1.9-12.3-3.5
				C129.7,296.8,126.9,295.8,126.8,295.8 M140.3,278.2h-28.5l2.5,7.6v0c4.5-1.4,8.8-1.5,12.9-0.5c3.3,0.8,5.6,1.3,6.7,1.5l0,0
				l-0.1,0.4c9.4,2.1,16,1,19.7-3.4l1.9-5.6H140.3z"/>
			<path class="st19" d="M134,286.8c-1.2-0.2-3.4-0.7-6.7-1.5c-4.2-1-8.5-0.8-12.9,0.5l2.9,8.7c0.8-0.1,1.8-0.1,2.9-0.1
				c1.7,0,3.9,0.5,6.6,1.4c0.2,0.1,2.9,1.1,8.2,3c4.5,1.6,8.5,2.8,12.3,3.5l6.3-18.5c-3.7,4.4-10.2,5.5-19.7,3.4L134,286.8
				L134,286.8z"/>
			<path class="st26" d="M99.3,262.3l-10-0.1l-18.8-0.1l6.2,44.2l16.2,0.1L99.3,262.3z"/>
		</g>
	</g>
</g>
<g transform="matrix( -1.7520751953125, 0, 0, 1.7520751953125, 2900.3,14) ">
	<g>
		<g id="Layer39_0_MEMBER_0_MEMBER_0_MEMBER_0_FILL_1_">
			<path class="st27" d="M1392.3,90.9l6.8,60.7h39.9v-29.9h18v29.9h47.2l-6.8-60.7H1392.3z"/>
		</g>
	</g>
</g>
<g transform="matrix( -1.7520751953125, 0, 0, 1.7520751953125, 2900.3,14) ">
	<g>
		<g id="Layer39_0_MEMBER_0_MEMBER_0_MEMBER_1_FILL_1_">
			<path class="st28" d="M1457,121.7h-18v41.7h-0.1v2.6h28.5v-2.6H1457V121.7 M1501.4,90.9h-4l6.8,60.7h4L1501.4,90.9 M1535.5,166
				v-4.5h-61.2v4.5H1535.5z"/>
		</g>
	</g>
</g>
<g transform="matrix( -1.7520751953125, 0, 0, 1.7520751953125, 2900.3,14) ">
	<g>
		<g>
			<g id="Layer39_2_MEMBER_0_MEMBER_0_MEMBER_0_FILL_00000003100222231808834950000002014768193973631882_">
				<path class="st29" d="M1626,170l0.2-5.4h-52.5v9.4L1626,170z"/>
			</g>
		</g>
	</g>
</g>
<g transform="matrix( -1.7520751953125, 0, 0, 1.7520751953125, 2900.3,14) ">
	<g>
		<g id="Layer39_2_MEMBER_0_MEMBER_0_MEMBER_1_FILL_1_">
			<path class="st30" d="M1375.6,164.6v9.4h198.1v-9.4H1375.6z"/>
		</g>
	</g>
</g>
<g transform="matrix( 1, 0, 0, 1, 0,0) ">
	<g>
		<g id="Layer68_0_FILL">
			<path class="st9" d="M197.9,564.4l-0.2,8.2l-3.2-0.1c-1.3-6-1.7-11.1-1.2-15.3c2.1,2.2,4.2,4.2,6.3,5.8c6,4.7,12.2,7.2,18.6,7.5
				c4.4,0.2,5.5-0.8,3.4-2.9c3.8,2.5,7.9,5.1,12.1,7.7c1.8,2.1,0,3.1-5.4,3.2c-14,0.3-22.4-1.7-25.2-5.9L197.9,564.4z"/>
			<path class="st8" d="M204.7,549.3c1.1,1.4,2.1,3,3.2,4.6c3,4.8,5.9,8.2,9,10.4c1.6,1.1,3.2,2.2,4.9,3.3c2.2,2.1,1,3-3.4,2.9
				c-6.4-0.4-12.6-2.9-18.6-7.5c-2.1-1.7-4.2-3.6-6.3-5.8c0.3-2.3,0.8-4.3,1.6-6C197.2,546.1,200.4,545.5,204.7,549.3z"/>
		</g>
	</g>
</g>
<g transform="matrix( 1, 0, 0, 1, 0,0) ">
	<g>
		<g id="Layer68_0_FILL_00000021830169657456941150000009606666573826406295_">
			<path class="st9" d="M301.6,560.4l-0.2,8.2l-3.2-0.1c-1.3-6-1.7-11.1-1.2-15.3c2.1,2.2,4.2,4.2,6.3,5.8c6,4.7,12.2,7.2,18.6,7.5
				c4.4,0.2,5.5-0.8,3.4-2.9c3.8,2.5,7.9,5.1,12.1,7.7c1.8,2.1,0,3.1-5.4,3.2c-14,0.3-22.4-1.7-25.2-5.9L301.6,560.4z"/>
			<path class="st8" d="M308.4,545.3c1.1,1.4,2.1,3,3.2,4.6c3,4.8,5.9,8.2,9,10.4c1.6,1.1,3.2,2.2,4.9,3.3c2.2,2.1,1,3-3.4,2.9
				c-6.4-0.4-12.6-2.9-18.6-7.5c-2.1-1.7-4.2-3.6-6.3-5.8c0.3-2.3,0.8-4.3,1.6-6C300.9,542.1,304.1,541.5,308.4,545.3z"/>
		</g>
	</g>
</g>
<path class="st20" d="M227.3,146.7c6.2,4.3,12.6,6.8,19.1,7.5"/>
<g transform="matrix( 1, 0, 0, 1, 0,0) ">
	<g>
		<g id="Layer40_0_FILL">
			<path class="st31" d="M101.7,317c-0.8,0.9-1.3,2-1.3,3.4l-6.1,250.5c0,0,0,0.1,0,0.1h0L108,321.1c0.1-1.4-0.2-2.6-0.9-3.6
				c-0.7-1.1-1.6-1.7-2.7-1.8C103.4,315.6,102.4,316,101.7,317 M68.4,320.7l-1.8,25.2l7-0.3l2.4-23.8c0.1-1.4-0.1-2.6-0.7-3.7
				c-0.7-1.1-1.5-1.8-2.6-2c-1-0.2-2,0.2-2.8,1c-0.8,0.9-1.3,2-1.5,3.3V320.7 M432,321.1l0.5,9.8l7.4-0.3l-0.2-10
				c0-1.4-0.4-2.6-1.2-3.5c-0.8-0.9-1.7-1.4-2.8-1.3c-1.1,0-2,0.6-2.7,1.6c-0.7,1-1.1,2.2-1.1,3.6L432,321.1 M465,321.2v0.2
				l24.9,243.1c0,0.1,0,0.1,0.1,0.1c0.1,0,0.1,0,0-0.1l-17.3-244.2c-0.1-1.4-0.5-2.5-1.4-3.4c-0.8-0.9-1.8-1.3-2.8-1.2
				c-1.1,0.1-1.9,0.7-2.6,1.8C465.3,318.6,465,319.8,465,321.2z"/>
			<path class="st32" d="M73.6,345.6l-7,0.3L51,565c-0.1,0.1,0,0.1,0,0.1c0.1,0,0.1,0,0.1-0.1L73.6,345.6 M440,330.6l-7.4,0.3
				l13.1,240c0,0.1,0,0.1,0,0c0.1,0,0.1,0,0-0.1L440,330.6z"/>
		</g>
	</g>
</g>
</svg>
